SplineFontDB: 3.0
FontName: Amiga-Topaz-13
FullName: Amiga Topaz 13 Normal
FamilyName: Amiga-Topaz-13
Weight: Normal
Copyright: Copyright Lammpee 2017
Version: 1.0
ItalicAngle: 0
UnderlinePosition: -51
UnderlineWidth: 102
Ascent: 2048
Descent: 0
InvalidEm: 0
sfntRevision: 0x00010000
LayerCount: 2
Layer: 0 1 "Back" 1
Layer: 1 1 "Fore" 0
XUID: [1021 308 842050926 11395070]
UseXUID: 1
StyleMap: 0x0040
FSType: 4
OS2Version: 2
OS2_WeightWidthSlopeOnly: 0
OS2_UseTypoMetrics: 0
CreationTime: 1476304585
ModificationTime: 1512834920
PfmFamily: 81
TTFWeight: 400
TTFWidth: 5
LineGap: 0
VLineGap: 0
Panose: 0 0 4 0 0 0 0 0 0 0
OS2TypoAscent: 2048
OS2TypoAOffset: 0
OS2TypoDescent: 0
OS2TypoDOffset: 0
OS2TypoLinegap: 0
OS2WinAscent: 2048
OS2WinAOffset: 0
OS2WinDescent: 296
OS2WinDOffset: 0
HheadAscent: 2048
HheadAOffset: 0
HheadDescent: -296
HheadDOffset: 0
OS2SubXSize: 1024
OS2SubYSize: 1024
OS2SubXOff: 0
OS2SubYOff: 0
OS2SupXSize: 1024
OS2SupYSize: 1024
OS2SupXOff: 0
OS2SupYOff: 1024
OS2StrikeYSize: 102
OS2StrikeYPos: 410
OS2CapHeight: 2048
OS2XHeight: 1536
OS2Vendor: 'FSTR'
OS2CodePages: 000001fb.00000000
OS2UnicodeRanges: a0000007.0000000a.00000000.00000000
MarkAttachClasses: 1
DEI: 91125
TtTable: prep
PUSHW_1
 511
SCANCTRL
PUSHB_1
 1
SCANTYPE
SVTCA[y-axis]
MPPEM
PUSHB_1
 8
LT
IF
PUSHB_2
 1
 1
INSTCTRL
EIF
PUSHB_2
 70
 6
CALL
IF
POP
PUSHB_1
 16
EIF
MPPEM
PUSHB_1
 20
GT
IF
POP
PUSHB_1
 128
EIF
SCVTCI
PUSHB_1
 6
CALL
NOT
IF
SVTCA[y-axis]
PUSHB_1
 1
DUP
RCVT
PUSHB_1
 3
CALL
WCVTP
SVTCA[x-axis]
PUSHB_1
 2
DUP
RCVT
PUSHB_1
 3
CALL
WCVTP
PUSHB_1
 3
DUP
RCVT
PUSHB_3
 2
 12
 2
CALL
PUSHB_2
 3
 70
SROUND
CALL
WCVTP
PUSHB_1
 4
DUP
RCVT
PUSHB_3
 2
 11
 2
CALL
PUSHB_2
 3
 70
SROUND
CALL
WCVTP
PUSHB_1
 5
DUP
RCVT
PUSHB_3
 4
 8
 2
CALL
PUSHB_2
 3
 70
SROUND
CALL
WCVTP
PUSHB_1
 6
DUP
RCVT
PUSHB_3
 5
 7
 2
CALL
PUSHB_2
 3
 70
SROUND
CALL
WCVTP
EIF
PUSHB_1
 20
CALL
EndTTInstrs
TtTable: fpgm
PUSHB_1
 0
FDEF
PUSHB_1
 0
SZP0
MPPEM
PUSHB_1
 76
LT
IF
PUSHB_1
 74
SROUND
EIF
PUSHB_1
 0
SWAP

StartChar: .notdef
Encoding: 65536 -1 0
Width: 748
Flags: W
LayerCount: 2
Fore
SplineSet
68 0 m 1,0,-1
 68 1365 l 1,1,-1
 612 1365 l 1,2,-1
 612 0 l 1,3,-1
 68 0 l 1,0,-1
136 68 m 1,4,-1
 544 68 l 1,5,-1
 544 1297 l 1,6,-1
 136 1297 l 1,7,-1
 136 68 l 1,4,-1
EndSplineSet
EndChar

StartChar: exclam
Encoding: 33 33 4
Width: 640
GlyphClass: 2
Flags: W
LayerCount: 2
Fore
SplineSet
0 1280 m 1,0,-1
 0 1792 l 1,1,-1
 128 1792 l 1,2,-1
 128 2048 l 1,3,-1
 384 2048 l 1,4,-1
 384 1792 l 1,5,-1
 512 1792 l 1,6,-1
 512 1280 l 1,7,-1
 384 1280 l 1,8,-1
 384 768 l 1,9,-1
 128 768 l 1,10,-1
 128 1280 l 1,11,-1
 0 1280 l 1,0,-1
128 256 m 1,12,-1
 128 512 l 1,13,-1
 384 512 l 1,14,-1
 384 256 l 1,15,-1
 128 256 l 1,12,-1
EndSplineSet
EndChar

StartChar: quotedbl
Encoding: 34 34 5
Width: 896
GlyphClass: 2
Flags: W
LayerCount: 2
Fore
SplineSet
128 1536 m 1,0,-1
 128 2048 l 1,1,-1
 384 2048 l 1,2,-1
 384 1536 l 1,3,-1
 128 1536 l 1,0,-1
512 1536 m 1,4,-1
 512 2048 l 1,5,-1
 768 2048 l 1,6,-1
 768 1536 l 1,7,-1
 512 1536 l 1,4,-1
EndSplineSet
EndChar

StartChar: numbersign
Encoding: 35 35 6
Width: 1024
GlyphClass: 2
Flags: W
LayerCount: 2
Fore
SplineSet
0 768 m 1,0,-1
 0 1024 l 1,1,-1
 128 1024 l 1,2,-1
 128 1280 l 1,3,-1
 0 1280 l 1,4,-1
 0 1536 l 1,5,-1
 128 1536 l 1,6,-1
 128 2048 l 1,7,-1
 384 2048 l 1,8,-1
 384 1536 l 1,9,-1
 512 1536 l 1,10,-1
 512 2048 l 1,11,-1
 768 2048 l 1,12,-1
 768 1536 l 1,13,-1
 896 1536 l 1,14,-1
 896 1280 l 1,15,-1
 768 1280 l 1,16,-1
 768 1024 l 1,17,-1
 896 1024 l 1,18,-1
 896 768 l 1,19,-1
 768 768 l 1,20,-1
 768 256 l 1,21,-1
 512 256 l 1,22,-1
 512 768 l 1,23,-1
 384 768 l 1,24,-1
 384 256 l 1,25,-1
 128 256 l 1,26,-1
 128 768 l 1,27,-1
 0 768 l 1,0,-1
384 1024 m 1,28,-1
 512 1024 l 1,29,-1
 512 1280 l 1,30,-1
 384 1280 l 1,31,-1
 384 1024 l 1,28,-1
EndSplineSet
EndChar

StartChar: dollar
Encoding: 36 36 7
Width: 896
GlyphClass: 2
Flags: W
LayerCount: 2
Fore
SplineSet
0 512 m 1,0,-1
 0 768 l 1,1,-1
 512 768 l 1,2,-1
 512 1024 l 1,3,-1
 128 1024 l 1,4,-1
 128 1280 l 1,5,-1
 0 1280 l 1,6,-1
 0 1536 l 1,7,-1
 128 1536 l 1,8,-1
 128 1792 l 1,9,-1
 256 1792 l 1,10,-1
 256 2048 l 1,11,-1
 512 2048 l 1,12,-1
 512 1792 l 1,13,-1
 768 1792 l 1,14,-1
 768 1536 l 1,15,-1
 256 1536 l 1,16,-1
 256 1280 l 1,17,-1
 640 1280 l 1,18,-1
 640 1024 l 1,19,-1
 768 1024 l 1,20,-1
 768 768 l 1,21,-1
 640 768 l 1,22,-1
 640 512 l 1,23,-1
 512 512 l 1,24,-1
 512 256 l 1,25,-1
 256 256 l 1,26,-1
 256 512 l 1,27,-1
 0 512 l 1,0,-1
EndSplineSet
EndChar

StartChar: percent
Encoding: 37 37 8
Width: 1024
GlyphClass: 2
Flags: W
LayerCount: 2
Fore
SplineSet
0 256 m 1,0,-1
 0 512 l 1,1,-1
 128 512 l 1,2,-1
 128 768 l 1,3,-1
 256 768 l 1,4,-1
 256 1024 l 1,5,-1
 384 1024 l 1,6,-1
 384 1280 l 1,7,-1
 512 1280 l 1,8,-1
 512 1536 l 1,9,-1
 640 1536 l 1,10,-1
 640 1792 l 1,11,-1
 896 1792 l 1,12,-1
 896 1536 l 1,13,-1
 768 1536 l 1,14,-1
 768 1280 l 1,15,-1
 640 1280 l 1,16,-1
 640 1024 l 1,17,-1
 512 1024 l 1,18,-1
 512 768 l 1,19,-1
 384 768 l 1,20,-1
 384 512 l 1,21,-1
 256 512 l 1,22,-1
 256 256 l 1,23,-1
 0 256 l 1,0,-1
0 1280 m 1,24,-1
 0 1792 l 1,25,-1
 256 1792 l 1,26,-1
 256 1280 l 1,27,-1
 0 1280 l 1,24,-1
640 256 m 1,28,-1
 640 768 l 1,29,-1
 896 768 l 1,30,-1
 896 256 l 1,31,-1
 640 256 l 1,28,-1
EndSplineSet
EndChar

StartChar: ampersand
Encoding: 38 38 9
Width: 1024
GlyphClass: 2
Flags: W
LayerCount: 2
Fore
SplineSet
0 512 m 1,0,-1
 0 1024 l 1,1,-1
 128 1024 l 1,2,-1
 128 1792 l 1,3,-1
 256 1792 l 1,4,-1
 256 2048 l 1,5,-1
 640 2048 l 1,6,-1
 640 1792 l 1,7,-1
 768 1792 l 1,8,-1
 768 1536 l 1,9,-1
 640 1536 l 1,10,-1
 640 1280 l 1,11,-1
 512 1280 l 1,12,-1
 512 1792 l 1,13,-1
 384 1792 l 1,14,-1
 384 1280 l 1,15,-1
 512 1280 l 1,16,-1
 512 1024 l 1,17,-1
 640 1024 l 1,18,-1
 640 1280 l 1,19,-1
 896 1280 l 1,20,-1
 896 1024 l 1,21,-1
 768 1024 l 1,22,-1
 768 512 l 1,23,-1
 896 512 l 1,24,-1
 896 256 l 1,25,-1
 640 256 l 1,26,-1
 640 512 l 1,27,-1
 512 512 l 1,28,-1
 512 768 l 1,29,-1
 384 768 l 1,30,-1
 384 1024 l 1,31,-1
 256 1024 l 1,32,-1
 256 512 l 1,33,-1
 512 512 l 1,34,-1
 512 256 l 1,35,-1
 128 256 l 1,36,-1
 128 512 l 1,37,-1
 0 512 l 1,0,-1
EndSplineSet
EndChar

StartChar: quotesingle
Encoding: 39 39 10
Width: 512
GlyphClass: 2
Flags: W
LayerCount: 2
Fore
SplineSet
128 1536 m 1,0,-1
 128 2048 l 1,1,-1
 384 2048 l 1,2,-1
 384 1536 l 1,3,-1
 128 1536 l 1,0,-1
EndSplineSet
EndChar

StartChar: parenleft
Encoding: 40 40 11
Width: 768
GlyphClass: 2
Flags: W
LayerCount: 2
Fore
SplineSet
128 768 m 1,0,-1
 128 1536 l 1,1,-1
 256 1536 l 1,2,-1
 256 1792 l 1,3,-1
 384 1792 l 1,4,-1
 384 2048 l 1,5,-1
 640 2048 l 1,6,-1
 640 1792 l 1,7,-1
 512 1792 l 1,8,-1
 512 1536 l 1,9,-1
 384 1536 l 1,10,-1
 384 768 l 1,11,-1
 512 768 l 1,12,-1
 512 512 l 1,13,-1
 640 512 l 1,14,-1
 640 256 l 1,15,-1
 384 256 l 1,16,-1
 384 512 l 1,17,-1
 256 512 l 1,18,-1
 256 768 l 1,19,-1
 128 768 l 1,0,-1
EndSplineSet
EndChar

StartChar: parenright
Encoding: 41 41 12
Width: 768
GlyphClass: 2
Flags: W
LayerCount: 2
Fore
SplineSet
128 256 m 1,0,-1
 128 512 l 1,1,-1
 256 512 l 1,2,-1
 256 768 l 1,3,-1
 384 768 l 1,4,-1
 384 1536 l 1,5,-1
 256 1536 l 1,6,-1
 256 1792 l 1,7,-1
 128 1792 l 1,8,-1
 128 2048 l 1,9,-1
 384 2048 l 1,10,-1
 384 1792 l 1,11,-1
 512 1792 l 1,12,-1
 512 1536 l 1,13,-1
 640 1536 l 1,14,-1
 640 768 l 1,15,-1
 512 768 l 1,16,-1
 512 512 l 1,17,-1
 384 512 l 1,18,-1
 384 256 l 1,19,-1
 128 256 l 1,0,-1
EndSplineSet
EndChar

StartChar: asterisk
Encoding: 42 42 13
Width: 1152
GlyphClass: 2
Flags: W
LayerCount: 2
Fore
SplineSet
0 1024 m 1,0,-1
 0 1280 l 1,1,-1
 256 1280 l 1,2,-1
 256 1536 l 1,3,-1
 128 1536 l 1,4,-1
 128 1792 l 1,5,-1
 384 1792 l 1,6,-1
 384 1536 l 1,7,-1
 640 1536 l 1,8,-1
 640 1792 l 1,9,-1
 896 1792 l 1,10,-1
 896 1536 l 1,11,-1
 768 1536 l 1,12,-1
 768 1280 l 1,13,-1
 1024 1280 l 1,14,-1
 1024 1024 l 1,15,-1
 768 1024 l 1,16,-1
 768 768 l 1,17,-1
 896 768 l 1,18,-1
 896 512 l 1,19,-1
 640 512 l 1,20,-1
 640 768 l 1,21,-1
 384 768 l 1,22,-1
 384 512 l 1,23,-1
 128 512 l 1,24,-1
 128 768 l 1,25,-1
 256 768 l 1,26,-1
 256 1024 l 1,27,-1
 0 1024 l 1,0,-1
EndSplineSet
EndChar

StartChar: plus
Encoding: 43 43 14
Width: 1024
GlyphClass: 2
Flags: W
LayerCount: 2
Fore
SplineSet
128 1024 m 1,0,-1
 128 1280 l 1,1,-1
 384 1280 l 1,2,-1
 384 1792 l 1,3,-1
 640 1792 l 1,4,-1
 640 1280 l 1,5,-1
 896 1280 l 1,6,-1
 896 1024 l 1,7,-1
 640 1024 l 1,8,-1
 640 512 l 1,9,-1
 384 512 l 1,10,-1
 384 1024 l 1,11,-1
 128 1024 l 1,0,-1
EndSplineSet
EndChar

StartChar: comma
Encoding: 44 44 15
Width: 512
GlyphClass: 2
Flags: W
LayerCount: 2
Fore
SplineSet
0 0 m 1,0,-1
 0 256 l 1,1,-1
 128 256 l 1,2,-1
 128 768 l 1,3,-1
 384 768 l 1,4,-1
 384 256 l 1,5,-1
 256 256 l 1,6,-1
 256 0 l 1,7,-1
 0 0 l 1,0,-1
EndSplineSet
EndChar

StartChar: hyphen
Encoding: 45 45 16
Width: 1024
GlyphClass: 2
Flags: W
LayerCount: 2
Fore
SplineSet
128 1024 m 1,0,-1
 128 1280 l 1,1,-1
 896 1280 l 1,2,-1
 896 1024 l 1,3,-1
 128 1024 l 1,0,-1
EndSplineSet
EndChar

StartChar: period
Encoding: 46 46 17
Width: 512
GlyphClass: 2
Flags: W
LayerCount: 2
Fore
SplineSet
128 256 m 1,0,-1
 128 768 l 1,1,-1
 384 768 l 1,2,-1
 384 256 l 1,3,-1
 128 256 l 1,0,-1
EndSplineSet
EndChar

StartChar: slash
Encoding: 47 47 18
Width: 1152
GlyphClass: 2
Flags: W
LayerCount: 2
Fore
SplineSet
0 256 m 1,0,-1
 0 512 l 1,1,-1
 128 512 l 1,2,-1
 128 768 l 1,3,-1
 256 768 l 1,4,-1
 256 1024 l 1,5,-1
 384 1024 l 1,6,-1
 384 1280 l 1,7,-1
 512 1280 l 1,8,-1
 512 1536 l 1,9,-1
 640 1536 l 1,10,-1
 640 1792 l 1,11,-1
 768 1792 l 1,12,-1
 768 2048 l 1,13,-1
 1024 2048 l 1,14,-1
 1024 1792 l 1,15,-1
 896 1792 l 1,16,-1
 896 1536 l 1,17,-1
 768 1536 l 1,18,-1
 768 1280 l 1,19,-1
 640 1280 l 1,20,-1
 640 1024 l 1,21,-1
 512 1024 l 1,22,-1
 512 768 l 1,23,-1
 384 768 l 1,24,-1
 384 512 l 1,25,-1
 256 512 l 1,26,-1
 256 256 l 1,27,-1
 0 256 l 1,0,-1
EndSplineSet
EndChar

StartChar: zero
Encoding: 48 48 19
Width: 896
GlyphClass: 2
Flags: W
LayerCount: 2
Fore
SplineSet
0 512 m 1,0,-1
 0 1792 l 1,1,-1
 128 1792 l 1,2,-1
 128 2048 l 1,3,-1
 640 2048 l 1,4,-1
 640 1792 l 1,5,-1
 768 1792 l 1,6,-1
 768 512 l 1,7,-1
 640 512 l 1,8,-1
 640 256 l 1,9,-1
 128 256 l 1,10,-1
 128 512 l 1,11,-1
 0 512 l 1,0,-1
256 512 m 1,12,-1
 512 512 l 1,13,-1
 512 1024 l 1,14,-1
 384 1024 l 1,15,-1
 384 768 l 1,16,-1
 256 768 l 1,17,-1
 256 512 l 1,12,-1
256 1280 m 1,18,-1
 384 1280 l 1,19,-1
 384 1536 l 1,20,-1
 512 1536 l 1,21,-1
 512 1792 l 1,22,-1
 256 1792 l 1,23,-1
 256 1280 l 1,18,-1
EndSplineSet
EndChar

StartChar: one
Encoding: 49 49 20
Width: 896
GlyphClass: 2
Flags: W
LayerCount: 2
Fore
SplineSet
0 256 m 1,0,-1
 0 512 l 1,1,-1
 256 512 l 1,2,-1
 256 1536 l 1,3,-1
 128 1536 l 1,4,-1
 128 1792 l 1,5,-1
 256 1792 l 1,6,-1
 256 2048 l 1,7,-1
 512 2048 l 1,8,-1
 512 512 l 1,9,-1
 768 512 l 1,10,-1
 768 256 l 1,11,-1
 0 256 l 1,0,-1
EndSplineSet
EndChar

StartChar: two
Encoding: 50 50 21
Width: 896
GlyphClass: 2
Flags: W
LayerCount: 2
Fore
SplineSet
0 256 m 1,0,-1
 0 768 l 1,1,-1
 128 768 l 1,2,-1
 128 1024 l 1,3,-1
 256 1024 l 1,4,-1
 256 1280 l 1,5,-1
 512 1280 l 1,6,-1
 512 1792 l 1,7,-1
 256 1792 l 1,8,-1
 256 1536 l 1,9,-1
 0 1536 l 1,10,-1
 0 1792 l 1,11,-1
 128 1792 l 1,12,-1
 128 2048 l 1,13,-1
 640 2048 l 1,14,-1
 640 1792 l 1,15,-1
 768 1792 l 1,16,-1
 768 1280 l 1,17,-1
 640 1280 l 1,18,-1
 640 1024 l 1,19,-1
 384 1024 l 1,20,-1
 384 768 l 1,21,-1
 256 768 l 1,22,-1
 256 512 l 1,23,-1
 512 512 l 1,24,-1
 512 768 l 1,25,-1
 768 768 l 1,26,-1
 768 256 l 1,27,-1
 0 256 l 1,0,-1
EndSplineSet
EndChar

StartChar: three
Encoding: 51 51 22
Width: 896
GlyphClass: 2
Flags: W
LayerCount: 2
Fore
SplineSet
0 512 m 1,0,-1
 0 768 l 1,1,-1
 256 768 l 1,2,-1
 256 512 l 1,3,-1
 512 512 l 1,4,-1
 512 1024 l 1,5,-1
 256 1024 l 1,6,-1
 256 1280 l 1,7,-1
 512 1280 l 1,8,-1
 512 1792 l 1,9,-1
 256 1792 l 1,10,-1
 256 1536 l 1,11,-1
 0 1536 l 1,12,-1
 0 1792 l 1,13,-1
 128 1792 l 1,14,-1
 128 2048 l 1,15,-1
 640 2048 l 1,16,-1
 640 1792 l 1,17,-1
 768 1792 l 1,18,-1
 768 1280 l 1,19,-1
 640 1280 l 1,20,-1
 640 1024 l 1,21,-1
 768 1024 l 1,22,-1
 768 512 l 1,23,-1
 640 512 l 1,24,-1
 640 256 l 1,25,-1
 128 256 l 1,26,-1
 128 512 l 1,27,-1
 0 512 l 1,0,-1
EndSplineSet
EndChar

StartChar: four
Encoding: 52 52 23
Width: 1024
GlyphClass: 2
Flags: W
LayerCount: 2
Fore
SplineSet
0 768 m 1,0,-1
 0 1280 l 1,1,-1
 128 1280 l 1,2,-1
 128 1536 l 1,3,-1
 256 1536 l 1,4,-1
 256 1792 l 1,5,-1
 384 1792 l 1,6,-1
 384 2048 l 1,7,-1
 768 2048 l 1,8,-1
 768 1024 l 1,9,-1
 896 1024 l 1,10,-1
 896 768 l 1,11,-1
 768 768 l 1,12,-1
 768 512 l 1,13,-1
 896 512 l 1,14,-1
 896 256 l 1,15,-1
 384 256 l 1,16,-1
 384 512 l 1,17,-1
 512 512 l 1,18,-1
 512 768 l 1,19,-1
 0 768 l 1,0,-1
256 1024 m 1,20,-1
 512 1024 l 1,21,-1
 512 1536 l 1,22,-1
 384 1536 l 1,23,-1
 384 1280 l 1,24,-1
 256 1280 l 1,25,-1
 256 1024 l 1,20,-1
EndSplineSet
EndChar

StartChar: five
Encoding: 53 53 24
Width: 896
GlyphClass: 2
Flags: W
LayerCount: 2
Fore
SplineSet
0 512 m 1,0,-1
 0 768 l 1,1,-1
 256 768 l 1,2,-1
 256 512 l 1,3,-1
 512 512 l 1,4,-1
 512 1280 l 1,5,-1
 0 1280 l 1,6,-1
 0 2048 l 1,7,-1
 768 2048 l 1,8,-1
 768 1792 l 1,9,-1
 256 1792 l 1,10,-1
 256 1536 l 1,11,-1
 640 1536 l 1,12,-1
 640 1280 l 1,13,-1
 768 1280 l 1,14,-1
 768 512 l 1,15,-1
 640 512 l 1,16,-1
 640 256 l 1,17,-1
 128 256 l 1,18,-1
 128 512 l 1,19,-1
 0 512 l 1,0,-1
EndSplineSet
EndChar

StartChar: six
Encoding: 54 54 25
Width: 896
GlyphClass: 2
Flags: W
LayerCount: 2
Fore
SplineSet
0 512 m 1,0,-1
 0 1536 l 1,1,-1
 128 1536 l 1,2,-1
 128 1792 l 1,3,-1
 256 1792 l 1,4,-1
 256 2048 l 1,5,-1
 640 2048 l 1,6,-1
 640 1792 l 1,7,-1
 384 1792 l 1,8,-1
 384 1536 l 1,9,-1
 256 1536 l 1,10,-1
 256 1280 l 1,11,-1
 640 1280 l 1,12,-1
 640 1024 l 1,13,-1
 768 1024 l 1,14,-1
 768 512 l 1,15,-1
 640 512 l 1,16,-1
 640 256 l 1,17,-1
 128 256 l 1,18,-1
 128 512 l 1,19,-1
 0 512 l 1,0,-1
256 512 m 1,20,-1
 512 512 l 1,21,-1
 512 1024 l 1,22,-1
 256 1024 l 1,23,-1
 256 512 l 1,20,-1
EndSplineSet
EndChar

StartChar: seven
Encoding: 55 55 26
Width: 896
GlyphClass: 2
Flags: W
LayerCount: 2
Fore
SplineSet
0 1536 m 1,0,-1
 0 2048 l 1,1,-1
 768 2048 l 1,2,-1
 768 1280 l 1,3,-1
 640 1280 l 1,4,-1
 640 1024 l 1,5,-1
 512 1024 l 1,6,-1
 512 256 l 1,7,-1
 256 256 l 1,8,-1
 256 1024 l 1,9,-1
 384 1024 l 1,10,-1
 384 1280 l 1,11,-1
 512 1280 l 1,12,-1
 512 1792 l 1,13,-1
 256 1792 l 1,14,-1
 256 1536 l 1,15,-1
 0 1536 l 1,0,-1
EndSplineSet
EndChar

StartChar: eight
Encoding: 56 56 27
Width: 896
GlyphClass: 2
Flags: W
LayerCount: 2
Fore
SplineSet
0 512 m 1,0,-1
 0 1024 l 1,1,-1
 128 1024 l 1,2,-1
 128 1280 l 1,3,-1
 0 1280 l 1,4,-1
 0 1792 l 1,5,-1
 128 1792 l 1,6,-1
 128 2048 l 1,7,-1
 640 2048 l 1,8,-1
 640 1792 l 1,9,-1
 768 1792 l 1,10,-1
 768 1280 l 1,11,-1
 640 1280 l 1,12,-1
 640 1024 l 1,13,-1
 768 1024 l 1,14,-1
 768 512 l 1,15,-1
 640 512 l 1,16,-1
 640 256 l 1,17,-1
 128 256 l 1,18,-1
 128 512 l 1,19,-1
 0 512 l 1,0,-1
256 512 m 1,20,-1
 512 512 l 1,21,-1
 512 1024 l 1,22,-1
 256 1024 l 1,23,-1
 256 512 l 1,20,-1
256 1280 m 1,24,-1
 512 1280 l 1,25,-1
 512 1792 l 1,26,-1
 256 1792 l 1,27,-1
 256 1280 l 1,24,-1
EndSplineSet
EndChar

StartChar: nine
Encoding: 57 57 28
Width: 896
GlyphClass: 2
Flags: W
LayerCount: 2
Fore
SplineSet
0 1280 m 1,0,-1
 0 1792 l 1,1,-1
 128 1792 l 1,2,-1
 128 2048 l 1,3,-1
 640 2048 l 1,4,-1
 640 1792 l 1,5,-1
 768 1792 l 1,6,-1
 768 768 l 1,7,-1
 640 768 l 1,8,-1
 640 512 l 1,9,-1
 512 512 l 1,10,-1
 512 256 l 1,11,-1
 128 256 l 1,12,-1
 128 512 l 1,13,-1
 384 512 l 1,14,-1
 384 768 l 1,15,-1
 512 768 l 1,16,-1
 512 1024 l 1,17,-1
 128 1024 l 1,18,-1
 128 1280 l 1,19,-1
 0 1280 l 1,0,-1
256 1280 m 1,20,-1
 512 1280 l 1,21,-1
 512 1792 l 1,22,-1
 256 1792 l 1,23,-1
 256 1280 l 1,20,-1
EndSplineSet
EndChar

StartChar: colon
Encoding: 58 58 29
Width: 512
GlyphClass: 2
Flags: W
LayerCount: 2
Fore
SplineSet
128 256 m 1,0,-1
 128 768 l 1,1,-1
 384 768 l 1,2,-1
 384 256 l 1,3,-1
 128 256 l 1,0,-1
128 1280 m 1,4,-1
 128 1792 l 1,5,-1
 384 1792 l 1,6,-1
 384 1280 l 1,7,-1
 128 1280 l 1,4,-1
EndSplineSet
EndChar

StartChar: semicolon
Encoding: 59 59 30
Width: 512
GlyphClass: 2
Flags: W
LayerCount: 2
Fore
SplineSet
0 0 m 1,0,-1
 0 256 l 1,1,-1
 128 256 l 1,2,-1
 128 768 l 1,3,-1
 384 768 l 1,4,-1
 384 256 l 1,5,-1
 256 256 l 1,6,-1
 256 0 l 1,7,-1
 0 0 l 1,0,-1
128 1280 m 1,8,-1
 128 1792 l 1,9,-1
 384 1792 l 1,10,-1
 384 1280 l 1,11,-1
 128 1280 l 1,8,-1
EndSplineSet
EndChar

StartChar: less
Encoding: 60 60 31
Width: 896
GlyphClass: 2
Flags: W
LayerCount: 2
Fore
SplineSet
128 1024 m 1,0,-1
 128 1280 l 1,1,-1
 256 1280 l 1,2,-1
 256 1536 l 1,3,-1
 384 1536 l 1,4,-1
 384 1792 l 1,5,-1
 512 1792 l 1,6,-1
 512 2048 l 1,7,-1
 768 2048 l 1,8,-1
 768 1792 l 1,9,-1
 640 1792 l 1,10,-1
 640 1536 l 1,11,-1
 512 1536 l 1,12,-1
 512 1280 l 1,13,-1
 384 1280 l 1,14,-1
 384 1024 l 1,15,-1
 512 1024 l 1,16,-1
 512 768 l 1,17,-1
 640 768 l 1,18,-1
 640 512 l 1,19,-1
 768 512 l 1,20,-1
 768 256 l 1,21,-1
 512 256 l 1,22,-1
 512 512 l 1,23,-1
 384 512 l 1,24,-1
 384 768 l 1,25,-1
 256 768 l 1,26,-1
 256 1024 l 1,27,-1
 128 1024 l 1,0,-1
EndSplineSet
EndChar

StartChar: equal
Encoding: 61 61 32
Width: 1024
GlyphClass: 2
Flags: W
LayerCount: 2
Fore
SplineSet
128 768 m 1,0,-1
 128 1024 l 1,1,-1
 896 1024 l 1,2,-1
 896 768 l 1,3,-1
 128 768 l 1,0,-1
128 1280 m 1,4,-1
 128 1536 l 1,5,-1
 896 1536 l 1,6,-1
 896 1280 l 1,7,-1
 128 1280 l 1,4,-1
EndSplineSet
EndChar

StartChar: greater
Encoding: 62 62 33
Width: 896
GlyphClass: 2
Flags: W
LayerCount: 2
Fore
SplineSet
128 256 m 1,0,-1
 128 512 l 1,1,-1
 256 512 l 1,2,-1
 256 768 l 1,3,-1
 384 768 l 1,4,-1
 384 1024 l 1,5,-1
 512 1024 l 1,6,-1
 512 1280 l 1,7,-1
 384 1280 l 1,8,-1
 384 1536 l 1,9,-1
 256 1536 l 1,10,-1
 256 1792 l 1,11,-1
 128 1792 l 1,12,-1
 128 2048 l 1,13,-1
 384 2048 l 1,14,-1
 384 1792 l 1,15,-1
 512 1792 l 1,16,-1
 512 1536 l 1,17,-1
 640 1536 l 1,18,-1
 640 1280 l 1,19,-1
 768 1280 l 1,20,-1
 768 1024 l 1,21,-1
 640 1024 l 1,22,-1
 640 768 l 1,23,-1
 512 768 l 1,24,-1
 512 512 l 1,25,-1
 384 512 l 1,26,-1
 384 256 l 1,27,-1
 128 256 l 1,0,-1
EndSplineSet
EndChar

StartChar: question
Encoding: 63 63 34
Width: 896
GlyphClass: 2
Flags: W
LayerCount: 2
Fore
SplineSet
0 1536 m 1,0,-1
 0 1792 l 1,1,-1
 128 1792 l 1,2,-1
 128 2048 l 1,3,-1
 640 2048 l 1,4,-1
 640 1792 l 1,5,-1
 768 1792 l 1,6,-1
 768 1280 l 1,7,-1
 640 1280 l 1,8,-1
 640 1024 l 1,9,-1
 512 1024 l 1,10,-1
 512 768 l 1,11,-1
 256 768 l 1,12,-1
 256 1024 l 1,13,-1
 384 1024 l 1,14,-1
 384 1280 l 1,15,-1
 512 1280 l 1,16,-1
 512 1792 l 1,17,-1
 256 1792 l 1,18,-1
 256 1536 l 1,19,-1
 0 1536 l 1,0,-1
256 256 m 1,20,-1
 256 512 l 1,21,-1
 512 512 l 1,22,-1
 512 256 l 1,23,-1
 256 256 l 1,20,-1
EndSplineSet
EndChar

StartChar: at
Encoding: 64 64 35
Width: 1024
GlyphClass: 2
Flags: W
LayerCount: 2
Fore
SplineSet
0 512 m 1,0,-1
 0 1792 l 1,1,-1
 128 1792 l 1,2,-1
 128 2048 l 1,3,-1
 768 2048 l 1,4,-1
 768 1792 l 1,5,-1
 896 1792 l 1,6,-1
 896 768 l 1,7,-1
 384 768 l 1,8,-1
 384 1536 l 1,9,-1
 640 1536 l 1,10,-1
 640 1792 l 1,11,-1
 256 1792 l 1,12,-1
 256 512 l 1,13,-1
 640 512 l 1,14,-1
 640 256 l 1,15,-1
 128 256 l 1,16,-1
 128 512 l 1,17,-1
 0 512 l 1,0,-1
EndSplineSet
EndChar

StartChar: A
Encoding: 65 65 36
Width: 1152
GlyphClass: 2
Flags: W
LayerCount: 2
Fore
SplineSet
0 256 m 1,0,-1
 0 768 l 1,1,-1
 128 768 l 1,2,-1
 128 1280 l 1,3,-1
 256 1280 l 1,4,-1
 256 1792 l 1,5,-1
 384 1792 l 1,6,-1
 384 2048 l 1,7,-1
 640 2048 l 1,8,-1
 640 1792 l 1,9,-1
 768 1792 l 1,10,-1
 768 1280 l 1,11,-1
 896 1280 l 1,12,-1
 896 768 l 1,13,-1
 1024 768 l 1,14,-1
 1024 256 l 1,15,-1
 768 256 l 1,16,-1
 768 768 l 1,17,-1
 256 768 l 1,18,-1
 256 256 l 1,19,-1
 0 256 l 1,0,-1
384 1024 m 1,20,-1
 640 1024 l 1,21,-1
 640 1280 l 1,22,-1
 384 1280 l 1,23,-1
 384 1024 l 1,20,-1
EndSplineSet
EndChar

StartChar: B
Encoding: 66 66 37
Width: 1024
GlyphClass: 2
Flags: W
LayerCount: 2
Fore
SplineSet
0 256 m 1,0,-1
 0 512 l 1,1,-1
 128 512 l 1,2,-1
 128 1792 l 1,3,-1
 0 1792 l 1,4,-1
 0 2048 l 1,5,-1
 768 2048 l 1,6,-1
 768 1792 l 1,7,-1
 896 1792 l 1,8,-1
 896 1280 l 1,9,-1
 768 1280 l 1,10,-1
 768 1024 l 1,11,-1
 896 1024 l 1,12,-1
 896 512 l 1,13,-1
 768 512 l 1,14,-1
 768 256 l 1,15,-1
 0 256 l 1,0,-1
384 512 m 1,16,-1
 640 512 l 1,17,-1
 640 1024 l 1,18,-1
 384 1024 l 1,19,-1
 384 512 l 1,16,-1
384 1280 m 1,20,-1
 640 1280 l 1,21,-1
 640 1792 l 1,22,-1
 384 1792 l 1,23,-1
 384 1280 l 1,20,-1
EndSplineSet
EndChar

StartChar: C
Encoding: 67 67 38
Width: 1024
GlyphClass: 2
Flags: W
LayerCount: 2
Fore
SplineSet
0 768 m 1,0,-1
 0 1536 l 1,1,-1
 128 1536 l 1,2,-1
 128 1792 l 1,3,-1
 256 1792 l 1,4,-1
 256 2048 l 1,5,-1
 768 2048 l 1,6,-1
 768 1792 l 1,7,-1
 896 1792 l 1,8,-1
 896 1536 l 1,9,-1
 640 1536 l 1,10,-1
 640 1792 l 1,11,-1
 384 1792 l 1,12,-1
 384 1536 l 1,13,-1
 256 1536 l 1,14,-1
 256 768 l 1,15,-1
 384 768 l 1,16,-1
 384 512 l 1,17,-1
 640 512 l 1,18,-1
 640 768 l 1,19,-1
 896 768 l 1,20,-1
 896 512 l 1,21,-1
 768 512 l 1,22,-1
 768 256 l 1,23,-1
 256 256 l 1,24,-1
 256 512 l 1,25,-1
 128 512 l 1,26,-1
 128 768 l 1,27,-1
 0 768 l 1,0,-1
EndSplineSet
EndChar

StartChar: D
Encoding: 68 68 39
Width: 1024
GlyphClass: 2
Flags: W
LayerCount: 2
Fore
SplineSet
0 256 m 1,0,-1
 0 512 l 1,1,-1
 128 512 l 1,2,-1
 128 1792 l 1,3,-1
 0 1792 l 1,4,-1
 0 2048 l 1,5,-1
 640 2048 l 1,6,-1
 640 1792 l 1,7,-1
 768 1792 l 1,8,-1
 768 1536 l 1,9,-1
 896 1536 l 1,10,-1
 896 768 l 1,11,-1
 768 768 l 1,12,-1
 768 512 l 1,13,-1
 640 512 l 1,14,-1
 640 256 l 1,15,-1
 0 256 l 1,0,-1
384 512 m 1,16,-1
 512 512 l 1,17,-1
 512 768 l 1,18,-1
 640 768 l 1,19,-1
 640 1536 l 1,20,-1
 512 1536 l 1,21,-1
 512 1792 l 1,22,-1
 384 1792 l 1,23,-1
 384 512 l 1,16,-1
EndSplineSet
EndChar

StartChar: E
Encoding: 69 69 40
Width: 1024
GlyphClass: 2
Flags: W
LayerCount: 2
Fore
SplineSet
0 256 m 1,0,-1
 0 512 l 1,1,-1
 128 512 l 1,2,-1
 128 1792 l 1,3,-1
 0 1792 l 1,4,-1
 0 2048 l 1,5,-1
 896 2048 l 1,6,-1
 896 1536 l 1,7,-1
 640 1536 l 1,8,-1
 640 1792 l 1,9,-1
 384 1792 l 1,10,-1
 384 1280 l 1,11,-1
 640 1280 l 1,12,-1
 640 1024 l 1,13,-1
 384 1024 l 1,14,-1
 384 512 l 1,15,-1
 640 512 l 1,16,-1
 640 768 l 1,17,-1
 896 768 l 1,18,-1
 896 256 l 1,19,-1
 0 256 l 1,0,-1
EndSplineSet
EndChar

StartChar: F
Encoding: 70 70 41
Width: 1024
GlyphClass: 2
Flags: W
LayerCount: 2
Fore
SplineSet
0 256 m 1,0,-1
 0 512 l 1,1,-1
 128 512 l 1,2,-1
 128 1792 l 1,3,-1
 0 1792 l 1,4,-1
 0 2048 l 1,5,-1
 896 2048 l 1,6,-1
 896 1536 l 1,7,-1
 640 1536 l 1,8,-1
 640 1792 l 1,9,-1
 384 1792 l 1,10,-1
 384 1280 l 1,11,-1
 640 1280 l 1,12,-1
 640 1024 l 1,13,-1
 384 1024 l 1,14,-1
 384 512 l 1,15,-1
 512 512 l 1,16,-1
 512 256 l 1,17,-1
 0 256 l 1,0,-1
EndSplineSet
EndChar

StartChar: G
Encoding: 71 71 42
Width: 1024
GlyphClass: 2
Flags: W
LayerCount: 2
Fore
SplineSet
0 768 m 1,0,-1
 0 1536 l 1,1,-1
 128 1536 l 1,2,-1
 128 1792 l 1,3,-1
 256 1792 l 1,4,-1
 256 2048 l 1,5,-1
 768 2048 l 1,6,-1
 768 1792 l 1,7,-1
 896 1792 l 1,8,-1
 896 1536 l 1,9,-1
 640 1536 l 1,10,-1
 640 1792 l 1,11,-1
 384 1792 l 1,12,-1
 384 1536 l 1,13,-1
 256 1536 l 1,14,-1
 256 768 l 1,15,-1
 384 768 l 1,16,-1
 384 512 l 1,17,-1
 640 512 l 1,18,-1
 640 1024 l 1,19,-1
 512 1024 l 1,20,-1
 512 1280 l 1,21,-1
 896 1280 l 1,22,-1
 896 256 l 1,23,-1
 256 256 l 1,24,-1
 256 512 l 1,25,-1
 128 512 l 1,26,-1
 128 768 l 1,27,-1
 0 768 l 1,0,-1
EndSplineSet
EndChar

StartChar: H
Encoding: 72 72 43
Width: 1024
GlyphClass: 2
Flags: W
LayerCount: 2
Fore
SplineSet
128 256 m 1,0,-1
 128 2048 l 1,1,-1
 384 2048 l 1,2,-1
 384 1280 l 1,3,-1
 640 1280 l 1,4,-1
 640 2048 l 1,5,-1
 896 2048 l 1,6,-1
 896 256 l 1,7,-1
 640 256 l 1,8,-1
 640 1024 l 1,9,-1
 384 1024 l 1,10,-1
 384 256 l 1,11,-1
 128 256 l 1,0,-1
EndSplineSet
EndChar

StartChar: I
Encoding: 73 73 44
Width: 1024
GlyphClass: 2
Flags: W
LayerCount: 2
Fore
SplineSet
128 256 m 1,0,-1
 128 512 l 1,1,-1
 384 512 l 1,2,-1
 384 1792 l 1,3,-1
 128 1792 l 1,4,-1
 128 2048 l 1,5,-1
 896 2048 l 1,6,-1
 896 1792 l 1,7,-1
 640 1792 l 1,8,-1
 640 512 l 1,9,-1
 896 512 l 1,10,-1
 896 256 l 1,11,-1
 128 256 l 1,0,-1
EndSplineSet
EndChar

StartChar: J
Encoding: 74 74 45
Width: 896
GlyphClass: 2
Flags: W
LayerCount: 2
Fore
SplineSet
0 512 m 1,0,-1
 0 1024 l 1,1,-1
 256 1024 l 1,2,-1
 256 512 l 1,3,-1
 0 512 l 1,0,-1
256 256 m 1,4,-1
 256 512 l 1,5,-1
 512 512 l 1,6,-1
 512 1792 l 1,7,-1
 384 1792 l 1,8,-1
 384 2048 l 1,9,-1
 768 2048 l 1,10,-1
 768 512 l 1,11,-1
 640 512 l 1,12,-1
 640 256 l 1,13,-1
 256 256 l 1,4,-1
EndSplineSet
EndChar

StartChar: K
Encoding: 75 75 46
Width: 1024
GlyphClass: 2
Flags: W
LayerCount: 2
Fore
SplineSet
0 256 m 1,0,-1
 0 512 l 1,1,-1
 128 512 l 1,2,-1
 128 1792 l 1,3,-1
 0 1792 l 1,4,-1
 0 2048 l 1,5,-1
 384 2048 l 1,6,-1
 384 1280 l 1,7,-1
 512 1280 l 1,8,-1
 512 1536 l 1,9,-1
 640 1536 l 1,10,-1
 640 2048 l 1,11,-1
 896 2048 l 1,12,-1
 896 1536 l 1,13,-1
 768 1536 l 1,14,-1
 768 1280 l 1,15,-1
 640 1280 l 1,16,-1
 640 1024 l 1,17,-1
 768 1024 l 1,18,-1
 768 768 l 1,19,-1
 896 768 l 1,20,-1
 896 256 l 1,21,-1
 640 256 l 1,22,-1
 640 768 l 1,23,-1
 512 768 l 1,24,-1
 512 1024 l 1,25,-1
 384 1024 l 1,26,-1
 384 256 l 1,27,-1
 0 256 l 1,0,-1
EndSplineSet
EndChar

StartChar: L
Encoding: 76 76 47
Width: 1024
GlyphClass: 2
Flags: W
LayerCount: 2
Fore
SplineSet
0 256 m 1,0,-1
 0 512 l 1,1,-1
 128 512 l 1,2,-1
 128 1792 l 1,3,-1
 0 1792 l 1,4,-1
 0 2048 l 1,5,-1
 512 2048 l 1,6,-1
 512 1792 l 1,7,-1
 384 1792 l 1,8,-1
 384 512 l 1,9,-1
 640 512 l 1,10,-1
 640 768 l 1,11,-1
 768 768 l 1,12,-1
 768 1024 l 1,13,-1
 896 1024 l 1,14,-1
 896 256 l 1,15,-1
 0 256 l 1,0,-1
EndSplineSet
EndChar

StartChar: M
Encoding: 77 77 48
Width: 1024
GlyphClass: 2
Flags: W
LayerCount: 2
Fore
SplineSet
0 256 m 1,0,-1
 0 2048 l 1,1,-1
 128 2048 l 1,2,-1
 128 1792 l 1,3,-1
 256 1792 l 1,4,-1
 256 1536 l 1,5,-1
 384 1536 l 1,6,-1
 384 1280 l 1,7,-1
 512 1280 l 1,8,-1
 512 1536 l 1,9,-1
 640 1536 l 1,10,-1
 640 1792 l 1,11,-1
 768 1792 l 1,12,-1
 768 2048 l 1,13,-1
 896 2048 l 1,14,-1
 896 256 l 1,15,-1
 640 256 l 1,16,-1
 640 1024 l 1,17,-1
 512 1024 l 1,18,-1
 512 768 l 1,19,-1
 384 768 l 1,20,-1
 384 1024 l 1,21,-1
 256 1024 l 1,22,-1
 256 256 l 1,23,-1
 0 256 l 1,0,-1
EndSplineSet
EndChar

StartChar: N
Encoding: 78 78 49
Width: 1024
GlyphClass: 2
Flags: W
LayerCount: 2
Fore
SplineSet
0 256 m 1,0,-1
 0 2048 l 1,1,-1
 256 2048 l 1,2,-1
 256 1792 l 1,3,-1
 384 1792 l 1,4,-1
 384 1536 l 1,5,-1
 512 1536 l 1,6,-1
 512 1280 l 1,7,-1
 640 1280 l 1,8,-1
 640 2048 l 1,9,-1
 896 2048 l 1,10,-1
 896 256 l 1,11,-1
 640 256 l 1,12,-1
 640 768 l 1,13,-1
 512 768 l 1,14,-1
 512 1024 l 1,15,-1
 384 1024 l 1,16,-1
 384 1280 l 1,17,-1
 256 1280 l 1,18,-1
 256 256 l 1,19,-1
 0 256 l 1,0,-1
EndSplineSet
EndChar

StartChar: O
Encoding: 79 79 50
Width: 1024
GlyphClass: 2
Flags: W
LayerCount: 2
Fore
SplineSet
0 768 m 1,0,-1
 0 1536 l 1,1,-1
 128 1536 l 1,2,-1
 128 1792 l 1,3,-1
 256 1792 l 1,4,-1
 256 2048 l 1,5,-1
 640 2048 l 1,6,-1
 640 1792 l 1,7,-1
 768 1792 l 1,8,-1
 768 1536 l 1,9,-1
 896 1536 l 1,10,-1
 896 768 l 1,11,-1
 768 768 l 1,12,-1
 768 512 l 1,13,-1
 640 512 l 1,14,-1
 640 256 l 1,15,-1
 256 256 l 1,16,-1
 256 512 l 1,17,-1
 128 512 l 1,18,-1
 128 768 l 1,19,-1
 0 768 l 1,0,-1
256 768 m 1,20,-1
 384 768 l 1,21,-1
 384 512 l 1,22,-1
 512 512 l 1,23,-1
 512 768 l 1,24,-1
 640 768 l 1,25,-1
 640 1536 l 1,26,-1
 512 1536 l 1,27,-1
 512 1792 l 1,28,-1
 384 1792 l 1,29,-1
 384 1536 l 1,30,-1
 256 1536 l 1,31,-1
 256 768 l 1,20,-1
EndSplineSet
EndChar

StartChar: P
Encoding: 80 80 51
Width: 1024
GlyphClass: 2
Flags: W
LayerCount: 2
Fore
SplineSet
0 256 m 1,0,-1
 0 512 l 1,1,-1
 128 512 l 1,2,-1
 128 1792 l 1,3,-1
 0 1792 l 1,4,-1
 0 2048 l 1,5,-1
 768 2048 l 1,6,-1
 768 1792 l 1,7,-1
 896 1792 l 1,8,-1
 896 1280 l 1,9,-1
 768 1280 l 1,10,-1
 768 1024 l 1,11,-1
 384 1024 l 1,12,-1
 384 512 l 1,13,-1
 512 512 l 1,14,-1
 512 256 l 1,15,-1
 0 256 l 1,0,-1
384 1280 m 1,16,-1
 640 1280 l 1,17,-1
 640 1792 l 1,18,-1
 384 1792 l 1,19,-1
 384 1280 l 1,16,-1
EndSplineSet
EndChar

StartChar: Q
Encoding: 81 81 52
Width: 1024
GlyphClass: 2
Flags: W
LayerCount: 2
Fore
SplineSet
0 768 m 1,0,-1
 0 1536 l 1,1,-1
 128 1536 l 1,2,-1
 128 1792 l 1,3,-1
 256 1792 l 1,4,-1
 256 2048 l 1,5,-1
 640 2048 l 1,6,-1
 640 1792 l 1,7,-1
 768 1792 l 1,8,-1
 768 1536 l 1,9,-1
 896 1536 l 1,10,-1
 896 768 l 1,11,-1
 768 768 l 1,12,-1
 768 512 l 1,13,-1
 640 512 l 1,14,-1
 640 256 l 1,15,-1
 768 256 l 1,16,-1
 768 0 l 1,17,-1
 512 0 l 1,18,-1
 512 256 l 1,19,-1
 256 256 l 1,20,-1
 256 512 l 1,21,-1
 128 512 l 1,22,-1
 128 768 l 1,23,-1
 0 768 l 1,0,-1
256 768 m 1,24,-1
 384 768 l 1,25,-1
 384 512 l 1,26,-1
 512 512 l 1,27,-1
 512 768 l 1,28,-1
 640 768 l 1,29,-1
 640 1536 l 1,30,-1
 512 1536 l 1,31,-1
 512 1792 l 1,32,-1
 384 1792 l 1,33,-1
 384 1536 l 1,34,-1
 256 1536 l 1,35,-1
 256 768 l 1,24,-1
EndSplineSet
EndChar

StartChar: R
Encoding: 82 82 53
Width: 1152
GlyphClass: 2
Flags: W
LayerCount: 2
Fore
SplineSet
0 256 m 1,0,-1
 0 512 l 1,1,-1
 128 512 l 1,2,-1
 128 1792 l 1,3,-1
 0 1792 l 1,4,-1
 0 2048 l 1,5,-1
 768 2048 l 1,6,-1
 768 1792 l 1,7,-1
 896 1792 l 1,8,-1
 896 1280 l 1,9,-1
 768 1280 l 1,10,-1
 768 768 l 1,11,-1
 896 768 l 1,12,-1
 896 512 l 1,13,-1
 1024 512 l 1,14,-1
 1024 256 l 1,15,-1
 768 256 l 1,16,-1
 768 512 l 1,17,-1
 640 512 l 1,18,-1
 640 768 l 1,19,-1
 512 768 l 1,20,-1
 512 1024 l 1,21,-1
 384 1024 l 1,22,-1
 384 256 l 1,23,-1
 0 256 l 1,0,-1
384 1280 m 1,24,-1
 640 1280 l 1,25,-1
 640 1792 l 1,26,-1
 384 1792 l 1,27,-1
 384 1280 l 1,24,-1
EndSplineSet
EndChar

StartChar: S
Encoding: 83 83 54
Width: 1024
GlyphClass: 2
Flags: W
LayerCount: 2
Fore
SplineSet
128 512 m 1,0,-1
 128 768 l 1,1,-1
 384 768 l 1,2,-1
 384 512 l 1,3,-1
 640 512 l 1,4,-1
 640 768 l 1,5,-1
 512 768 l 1,6,-1
 512 1024 l 1,7,-1
 256 1024 l 1,8,-1
 256 1280 l 1,9,-1
 128 1280 l 1,10,-1
 128 1792 l 1,11,-1
 256 1792 l 1,12,-1
 256 2048 l 1,13,-1
 768 2048 l 1,14,-1
 768 1792 l 1,15,-1
 896 1792 l 1,16,-1
 896 1536 l 1,17,-1
 640 1536 l 1,18,-1
 640 1792 l 1,19,-1
 384 1792 l 1,20,-1
 384 1536 l 1,21,-1
 512 1536 l 1,22,-1
 512 1280 l 1,23,-1
 640 1280 l 1,24,-1
 640 1024 l 1,25,-1
 896 1024 l 1,26,-1
 896 512 l 1,27,-1
 768 512 l 1,28,-1
 768 256 l 1,29,-1
 256 256 l 1,30,-1
 256 512 l 1,31,-1
 128 512 l 1,0,-1
EndSplineSet
EndChar

StartChar: T
Encoding: 84 84 55
Width: 1024
GlyphClass: 2
Flags: W
LayerCount: 2
Fore
SplineSet
128 1536 m 1,0,-1
 128 2048 l 1,1,-1
 896 2048 l 1,2,-1
 896 1536 l 1,3,-1
 768 1536 l 1,4,-1
 768 1792 l 1,5,-1
 640 1792 l 1,6,-1
 640 512 l 1,7,-1
 768 512 l 1,8,-1
 768 256 l 1,9,-1
 256 256 l 1,10,-1
 256 512 l 1,11,-1
 384 512 l 1,12,-1
 384 1792 l 1,13,-1
 256 1792 l 1,14,-1
 256 1536 l 1,15,-1
 128 1536 l 1,0,-1
EndSplineSet
EndChar

StartChar: U
Encoding: 85 85 56
Width: 1024
GlyphClass: 2
Flags: W
LayerCount: 2
Fore
SplineSet
128 512 m 1,0,-1
 128 2048 l 1,1,-1
 384 2048 l 1,2,-1
 384 512 l 1,3,-1
 640 512 l 1,4,-1
 640 2048 l 1,5,-1
 896 2048 l 1,6,-1
 896 256 l 1,7,-1
 256 256 l 1,8,-1
 256 512 l 1,9,-1
 128 512 l 1,0,-1
EndSplineSet
EndChar

StartChar: V
Encoding: 86 86 57
Width: 1152
GlyphClass: 2
Flags: W
LayerCount: 2
Fore
SplineSet
0 1536 m 1,0,-1
 0 2048 l 1,1,-1
 256 2048 l 1,2,-1
 256 1536 l 1,3,-1
 384 1536 l 1,4,-1
 384 1024 l 1,5,-1
 640 1024 l 1,6,-1
 640 1536 l 1,7,-1
 768 1536 l 1,8,-1
 768 2048 l 1,9,-1
 1024 2048 l 1,10,-1
 1024 1536 l 1,11,-1
 896 1536 l 1,12,-1
 896 1024 l 1,13,-1
 768 1024 l 1,14,-1
 768 512 l 1,15,-1
 640 512 l 1,16,-1
 640 256 l 1,17,-1
 384 256 l 1,18,-1
 384 512 l 1,19,-1
 256 512 l 1,20,-1
 256 1024 l 1,21,-1
 128 1024 l 1,22,-1
 128 1536 l 1,23,-1
 0 1536 l 1,0,-1
EndSplineSet
EndChar

StartChar: W
Encoding: 87 87 58
Width: 1024
GlyphClass: 2
Flags: W
LayerCount: 2
Fore
SplineSet
0 256 m 1,0,-1
 0 2048 l 1,1,-1
 256 2048 l 1,2,-1
 256 1024 l 1,3,-1
 384 1024 l 1,4,-1
 384 1280 l 1,5,-1
 512 1280 l 1,6,-1
 512 1024 l 1,7,-1
 640 1024 l 1,8,-1
 640 2048 l 1,9,-1
 896 2048 l 1,10,-1
 896 256 l 1,11,-1
 640 256 l 1,12,-1
 640 512 l 1,13,-1
 512 512 l 1,14,-1
 512 768 l 1,15,-1
 384 768 l 1,16,-1
 384 512 l 1,17,-1
 256 512 l 1,18,-1
 256 256 l 1,19,-1
 0 256 l 1,0,-1
EndSplineSet
EndChar

StartChar: X
Encoding: 88 88 59
Width: 1152
GlyphClass: 2
Flags: W
LayerCount: 2
Fore
SplineSet
0 256 m 1,0,-1
 0 512 l 1,1,-1
 128 512 l 1,2,-1
 128 768 l 1,3,-1
 256 768 l 1,4,-1
 256 1024 l 1,5,-1
 384 1024 l 1,6,-1
 384 1280 l 1,7,-1
 256 1280 l 1,8,-1
 256 1536 l 1,9,-1
 128 1536 l 1,10,-1
 128 1792 l 1,11,-1
 0 1792 l 1,12,-1
 0 2048 l 1,13,-1
 256 2048 l 1,14,-1
 256 1792 l 1,15,-1
 384 1792 l 1,16,-1
 384 1536 l 1,17,-1
 640 1536 l 1,18,-1
 640 1792 l 1,19,-1
 768 1792 l 1,20,-1
 768 2048 l 1,21,-1
 1024 2048 l 1,22,-1
 1024 1792 l 1,23,-1
 896 1792 l 1,24,-1
 896 1536 l 1,25,-1
 768 1536 l 1,26,-1
 768 1280 l 1,27,-1
 640 1280 l 1,28,-1
 640 1024 l 1,29,-1
 768 1024 l 1,30,-1
 768 768 l 1,31,-1
 896 768 l 1,32,-1
 896 512 l 1,33,-1
 1024 512 l 1,34,-1
 1024 256 l 1,35,-1
 768 256 l 1,36,-1
 768 512 l 1,37,-1
 640 512 l 1,38,-1
 640 768 l 1,39,-1
 384 768 l 1,40,-1
 384 512 l 1,41,-1
 256 512 l 1,42,-1
 256 256 l 1,43,-1
 0 256 l 1,0,-1
EndSplineSet
EndChar

StartChar: Y
Encoding: 89 89 60
Width: 1152
GlyphClass: 2
Flags: W
LayerCount: 2
Fore
SplineSet
0 1536 m 1,0,-1
 0 2048 l 1,1,-1
 256 2048 l 1,2,-1
 256 1536 l 1,3,-1
 384 1536 l 1,4,-1
 384 1280 l 1,5,-1
 640 1280 l 1,6,-1
 640 1536 l 1,7,-1
 768 1536 l 1,8,-1
 768 2048 l 1,9,-1
 1024 2048 l 1,10,-1
 1024 1536 l 1,11,-1
 896 1536 l 1,12,-1
 896 1280 l 1,13,-1
 768 1280 l 1,14,-1
 768 1024 l 1,15,-1
 640 1024 l 1,16,-1
 640 512 l 1,17,-1
 768 512 l 1,18,-1
 768 256 l 1,19,-1
 256 256 l 1,20,-1
 256 512 l 1,21,-1
 384 512 l 1,22,-1
 384 1024 l 1,23,-1
 256 1024 l 1,24,-1
 256 1280 l 1,25,-1
 128 1280 l 1,26,-1
 128 1536 l 1,27,-1
 0 1536 l 1,0,-1
EndSplineSet
EndChar

StartChar: Z
Encoding: 90 90 61
Width: 1024
GlyphClass: 2
Flags: W
LayerCount: 2
Fore
SplineSet
0 256 m 1,0,-1
 0 512 l 1,1,-1
 128 512 l 1,2,-1
 128 768 l 1,3,-1
 256 768 l 1,4,-1
 256 1024 l 1,5,-1
 384 1024 l 1,6,-1
 384 1280 l 1,7,-1
 512 1280 l 1,8,-1
 512 1536 l 1,9,-1
 640 1536 l 1,10,-1
 640 1792 l 1,11,-1
 256 1792 l 1,12,-1
 256 1536 l 1,13,-1
 128 1536 l 1,14,-1
 128 1280 l 1,15,-1
 0 1280 l 1,16,-1
 0 2048 l 1,17,-1
 896 2048 l 1,18,-1
 896 1536 l 1,19,-1
 768 1536 l 1,20,-1
 768 1280 l 1,21,-1
 640 1280 l 1,22,-1
 640 1024 l 1,23,-1
 512 1024 l 1,24,-1
 512 768 l 1,25,-1
 384 768 l 1,26,-1
 384 512 l 1,27,-1
 640 512 l 1,28,-1
 640 768 l 1,29,-1
 768 768 l 1,30,-1
 768 1024 l 1,31,-1
 896 1024 l 1,32,-1
 896 256 l 1,33,-1
 0 256 l 1,0,-1
EndSplineSet
EndChar

StartChar: bracketleft
Encoding: 91 91 62
Width: 768
GlyphClass: 2
Flags: W
LayerCount: 2
Fore
SplineSet
128 263 m 1,0,-1
 128 2055 l 1,1,-1
 640 2055 l 1,2,-1
 640 1799 l 1,3,-1
 384 1799 l 1,4,-1
 384 519 l 1,5,-1
 640 519 l 1,6,-1
 640 263 l 1,7,-1
 128 263 l 1,0,-1
EndSplineSet
EndChar

StartChar: backslash
Encoding: 92 92 63
Width: 1152
GlyphClass: 2
Flags: W
LayerCount: 2
Fore
SplineSet
0 1792 m 1,0,-1
 0 2048 l 1,1,-1
 256 2048 l 1,2,-1
 256 1792 l 1,3,-1
 384 1792 l 1,4,-1
 384 1536 l 1,5,-1
 512 1536 l 1,6,-1
 512 1280 l 1,7,-1
 640 1280 l 1,8,-1
 640 1024 l 1,9,-1
 768 1024 l 1,10,-1
 768 768 l 1,11,-1
 896 768 l 1,12,-1
 896 512 l 1,13,-1
 1024 512 l 1,14,-1
 1024 256 l 1,15,-1
 768 256 l 1,16,-1
 768 512 l 1,17,-1
 640 512 l 1,18,-1
 640 768 l 1,19,-1
 512 768 l 1,20,-1
 512 1024 l 1,21,-1
 384 1024 l 1,22,-1
 384 1280 l 1,23,-1
 256 1280 l 1,24,-1
 256 1536 l 1,25,-1
 128 1536 l 1,26,-1
 128 1792 l 1,27,-1
 0 1792 l 1,0,-1
EndSplineSet
EndChar

StartChar: bracketright
Encoding: 93 93 64
Width: 768
GlyphClass: 2
Flags: W
LayerCount: 2
Fore
SplineSet
128 258 m 1,0,-1
 128 514 l 1,1,-1
 384 514 l 1,2,-1
 384 1794 l 1,3,-1
 128 1794 l 1,4,-1
 128 2050 l 1,5,-1
 640 2050 l 1,6,-1
 640 258 l 1,7,-1
 128 258 l 1,0,-1
EndSplineSet
EndChar

StartChar: asciicircum
Encoding: 94 94 65
Width: 1024
GlyphClass: 2
Flags: W
LayerCount: 2
Fore
SplineSet
0 1024 m 1,0,-1
 0 1280 l 1,1,-1
 128 1280 l 1,2,-1
 128 1536 l 1,3,-1
 256 1536 l 1,4,-1
 256 1792 l 1,5,-1
 384 1792 l 1,6,-1
 384 2048 l 1,7,-1
 512 2048 l 1,8,-1
 512 1792 l 1,9,-1
 640 1792 l 1,10,-1
 640 1536 l 1,11,-1
 768 1536 l 1,12,-1
 768 1280 l 1,13,-1
 896 1280 l 1,14,-1
 896 1024 l 1,15,-1
 640 1024 l 1,16,-1
 640 1280 l 1,17,-1
 512 1280 l 1,18,-1
 512 1536 l 1,19,-1
 384 1536 l 1,20,-1
 384 1280 l 1,21,-1
 256 1280 l 1,22,-1
 256 1024 l 1,23,-1
 0 1024 l 1,0,-1
EndSplineSet
EndChar

StartChar: underscore
Encoding: 95 95 66
Width: 1024
GlyphClass: 2
Flags: W
LayerCount: 2
Fore
SplineSet
0 0 m 1,0,-1
 0 256 l 1,1,-1
 896 256 l 1,2,-1
 896 0 l 1,3,-1
 0 0 l 1,0,-1
EndSplineSet
EndChar

StartChar: grave
Encoding: 96 96 67
Width: 640
GlyphClass: 2
Flags: W
LayerCount: 2
Fore
SplineSet
128 1536 m 1,0,-1
 128 2048 l 1,1,-1
 384 2048 l 1,2,-1
 384 1536 l 1,3,-1
 512 1536 l 1,4,-1
 512 1280 l 1,5,-1
 256 1280 l 1,6,-1
 256 1536 l 1,7,-1
 128 1536 l 1,0,-1
EndSplineSet
EndChar

StartChar: a
Encoding: 97 97 68
Width: 1024
GlyphClass: 2
Flags: W
LayerCount: 2
Fore
SplineSet
0 512 m 1,0,-1
 0 768 l 1,1,-1
 256 768 l 1,2,-1
 256 512 l 1,3,-1
 512 512 l 1,4,-1
 512 256 l 1,5,-1
 128 256 l 1,6,-1
 128 512 l 1,7,-1
 0 512 l 1,0,-1
128 1280 m 1,8,-1
 128 1536 l 1,9,-1
 640 1536 l 1,10,-1
 640 1280 l 1,11,-1
 768 1280 l 1,12,-1
 768 512 l 1,13,-1
 896 512 l 1,14,-1
 896 256 l 1,15,-1
 640 256 l 1,16,-1
 640 512 l 1,17,-1
 512 512 l 1,18,-1
 512 768 l 1,19,-1
 256 768 l 1,20,-1
 256 1024 l 1,21,-1
 512 1024 l 1,22,-1
 512 1280 l 1,23,-1
 128 1280 l 1,8,-1
EndSplineSet
EndChar

StartChar: b
Encoding: 98 98 69
Width: 1024
GlyphClass: 2
Flags: W
LayerCount: 2
Fore
SplineSet
0 1792 m 1,0,-1
 0 2048 l 1,1,-1
 384 2048 l 1,2,-1
 384 1280 l 1,3,-1
 512 1280 l 1,4,-1
 512 1024 l 1,5,-1
 384 1024 l 1,6,-1
 384 512 l 1,7,-1
 640 512 l 1,8,-1
 640 1280 l 1,9,-1
 512 1280 l 1,10,-1
 512 1536 l 1,11,-1
 768 1536 l 1,12,-1
 768 1280 l 1,13,-1
 896 1280 l 1,14,-1
 896 512 l 1,15,-1
 768 512 l 1,16,-1
 768 256 l 1,17,-1
 256 256 l 1,18,-1
 256 512 l 1,19,-1
 128 512 l 1,20,-1
 128 1792 l 1,21,-1
 0 1792 l 1,0,-1
EndSplineSet
EndChar

StartChar: c
Encoding: 99 99 70
Width: 896
GlyphClass: 2
Flags: W
LayerCount: 2
Fore
SplineSet
0 512 m 1,0,-1
 0 1280 l 1,1,-1
 128 1280 l 1,2,-1
 128 1536 l 1,3,-1
 640 1536 l 1,4,-1
 640 1280 l 1,5,-1
 768 1280 l 1,6,-1
 768 1024 l 1,7,-1
 512 1024 l 1,8,-1
 512 1280 l 1,9,-1
 256 1280 l 1,10,-1
 256 512 l 1,11,-1
 0 512 l 1,0,-1
256 256 m 1,12,-1
 256 512 l 1,13,-1
 512 512 l 1,14,-1
 512 768 l 1,15,-1
 768 768 l 1,16,-1
 768 512 l 1,17,-1
 640 512 l 1,18,-1
 640 256 l 1,19,-1
 256 256 l 1,12,-1
EndSplineSet
EndChar

StartChar: d
Encoding: 100 100 71
Width: 1024
GlyphClass: 2
Flags: W
LayerCount: 2
Fore
SplineSet
0 512 m 1,0,-1
 0 1280 l 1,1,-1
 128 1280 l 1,2,-1
 128 1536 l 1,3,-1
 384 1536 l 1,4,-1
 384 1280 l 1,5,-1
 256 1280 l 1,6,-1
 256 512 l 1,7,-1
 512 512 l 1,8,-1
 512 256 l 1,9,-1
 128 256 l 1,10,-1
 128 512 l 1,11,-1
 0 512 l 1,0,-1
384 1024 m 1,12,-1
 384 1280 l 1,13,-1
 512 1280 l 1,14,-1
 512 1792 l 1,15,-1
 384 1792 l 1,16,-1
 384 2048 l 1,17,-1
 768 2048 l 1,18,-1
 768 512 l 1,19,-1
 896 512 l 1,20,-1
 896 256 l 1,21,-1
 640 256 l 1,22,-1
 640 512 l 1,23,-1
 512 512 l 1,24,-1
 512 1024 l 1,25,-1
 384 1024 l 1,12,-1
EndSplineSet
EndChar

StartChar: e
Encoding: 101 101 72
Width: 896
GlyphClass: 2
Flags: W
LayerCount: 2
Fore
SplineSet
0 512 m 1,0,-1
 0 1280 l 1,1,-1
 128 1280 l 1,2,-1
 128 1536 l 1,3,-1
 640 1536 l 1,4,-1
 640 1280 l 1,5,-1
 768 1280 l 1,6,-1
 768 768 l 1,7,-1
 256 768 l 1,8,-1
 256 512 l 1,9,-1
 640 512 l 1,10,-1
 640 256 l 1,11,-1
 128 256 l 1,12,-1
 128 512 l 1,13,-1
 0 512 l 1,0,-1
256 1024 m 1,14,-1
 512 1024 l 1,15,-1
 512 1280 l 1,16,-1
 256 1280 l 1,17,-1
 256 1024 l 1,14,-1
EndSplineSet
EndChar

StartChar: f
Encoding: 102 102 73
Width: 896
GlyphClass: 2
Flags: W
LayerCount: 2
Fore
SplineSet
0 256 m 1,0,-1
 0 512 l 1,1,-1
 128 512 l 1,2,-1
 128 1024 l 1,3,-1
 0 1024 l 1,4,-1
 0 1280 l 1,5,-1
 128 1280 l 1,6,-1
 128 1792 l 1,7,-1
 256 1792 l 1,8,-1
 256 2048 l 1,9,-1
 640 2048 l 1,10,-1
 640 1792 l 1,11,-1
 768 1792 l 1,12,-1
 768 1536 l 1,13,-1
 512 1536 l 1,14,-1
 512 1792 l 1,15,-1
 384 1792 l 1,16,-1
 384 1280 l 1,17,-1
 512 1280 l 1,18,-1
 512 1024 l 1,19,-1
 384 1024 l 1,20,-1
 384 512 l 1,21,-1
 512 512 l 1,22,-1
 512 256 l 1,23,-1
 0 256 l 1,0,-1
EndSplineSet
EndChar

StartChar: g
Encoding: 103 103 74
Width: 1152
GlyphClass: 2
Flags: W
LayerCount: 2
Fore
SplineSet
0 256 m 1,0,-1
 0 512 l 1,1,-1
 256 512 l 1,2,-1
 256 256 l 1,3,-1
 640 256 l 1,4,-1
 640 0 l 1,5,-1
 128 0 l 1,6,-1
 128 256 l 1,7,-1
 0 256 l 1,0,-1
128 768 m 1,8,-1
 128 1280 l 1,9,-1
 256 1280 l 1,10,-1
 256 1536 l 1,11,-1
 640 1536 l 1,12,-1
 640 1280 l 1,13,-1
 384 1280 l 1,14,-1
 384 768 l 1,15,-1
 640 768 l 1,16,-1
 640 1280 l 1,17,-1
 768 1280 l 1,18,-1
 768 1536 l 1,19,-1
 1024 1536 l 1,20,-1
 1024 1280 l 1,21,-1
 896 1280 l 1,22,-1
 896 768 l 1,23,-1
 768 768 l 1,24,-1
 768 512 l 1,25,-1
 896 512 l 1,26,-1
 896 256 l 1,27,-1
 640 256 l 1,28,-1
 640 512 l 1,29,-1
 256 512 l 1,30,-1
 256 768 l 1,31,-1
 128 768 l 1,8,-1
EndSplineSet
EndChar

StartChar: h
Encoding: 104 104 75
Width: 1024
GlyphClass: 2
Flags: W
LayerCount: 2
Fore
SplineSet
0 256 m 1,0,-1
 0 512 l 1,1,-1
 128 512 l 1,2,-1
 128 1792 l 1,3,-1
 0 1792 l 1,4,-1
 0 2048 l 1,5,-1
 384 2048 l 1,6,-1
 384 1280 l 1,7,-1
 512 1280 l 1,8,-1
 512 1024 l 1,9,-1
 384 1024 l 1,10,-1
 384 256 l 1,11,-1
 0 256 l 1,0,-1
512 1280 m 1,12,-1
 512 1536 l 1,13,-1
 768 1536 l 1,14,-1
 768 1280 l 1,15,-1
 896 1280 l 1,16,-1
 896 256 l 1,17,-1
 640 256 l 1,18,-1
 640 1280 l 1,19,-1
 512 1280 l 1,12,-1
EndSplineSet
EndChar

StartChar: i
Encoding: 105 105 76
Width: 640
GlyphClass: 2
Flags: W
LayerCount: 2
Fore
SplineSet
0 256 m 1,0,-1
 0 512 l 1,1,-1
 128 512 l 1,2,-1
 128 1280 l 1,3,-1
 0 1280 l 1,4,-1
 0 1536 l 1,5,-1
 384 1536 l 1,6,-1
 384 512 l 1,7,-1
 512 512 l 1,8,-1
 512 256 l 1,9,-1
 0 256 l 1,0,-1
128 1792 m 1,10,-1
 128 2048 l 1,11,-1
 384 2048 l 1,12,-1
 384 1792 l 1,13,-1
 128 1792 l 1,10,-1
EndSplineSet
EndChar

StartChar: j
Encoding: 106 106 77
Width: 1024
GlyphClass: 2
Flags: W
LayerCount: 2
Fore
SplineSet
0 256 m 1,0,-1
 0 512 l 1,1,-1
 256 512 l 1,2,-1
 256 256 l 1,3,-1
 512 256 l 1,4,-1
 512 1536 l 1,5,-1
 768 1536 l 1,6,-1
 768 256 l 1,7,-1
 640 256 l 1,8,-1
 640 0 l 1,9,-1
 128 0 l 1,10,-1
 128 256 l 1,11,-1
 0 256 l 1,0,-1
512 1792 m 1,12,-1
 512 2048 l 1,13,-1
 768 2048 l 1,14,-1
 768 1792 l 1,15,-1
 512 1792 l 1,12,-1
EndSplineSet
EndChar

StartChar: k
Encoding: 107 107 78
Width: 1024
GlyphClass: 2
Flags: W
LayerCount: 2
Fore
SplineSet
0 256 m 1,0,-1
 0 512 l 1,1,-1
 128 512 l 1,2,-1
 128 1792 l 1,3,-1
 0 1792 l 1,4,-1
 0 2048 l 1,5,-1
 384 2048 l 1,6,-1
 384 1024 l 1,7,-1
 512 1024 l 1,8,-1
 512 1280 l 1,9,-1
 640 1280 l 1,10,-1
 640 1536 l 1,11,-1
 896 1536 l 1,12,-1
 896 1280 l 1,13,-1
 768 1280 l 1,14,-1
 768 1024 l 1,15,-1
 640 1024 l 1,16,-1
 640 768 l 1,17,-1
 768 768 l 1,18,-1
 768 512 l 1,19,-1
 896 512 l 1,20,-1
 896 256 l 1,21,-1
 640 256 l 1,22,-1
 640 512 l 1,23,-1
 512 512 l 1,24,-1
 512 768 l 1,25,-1
 384 768 l 1,26,-1
 384 256 l 1,27,-1
 0 256 l 1,0,-1
EndSplineSet
EndChar

StartChar: l
Encoding: 108 108 79
Width: 640
GlyphClass: 2
Flags: W
LayerCount: 2
Fore
SplineSet
0 256 m 1,0,-1
 0 512 l 1,1,-1
 128 512 l 1,2,-1
 128 1792 l 1,3,-1
 0 1792 l 1,4,-1
 0 2048 l 1,5,-1
 384 2048 l 1,6,-1
 384 512 l 1,7,-1
 512 512 l 1,8,-1
 512 256 l 1,9,-1
 0 256 l 1,0,-1
EndSplineSet
EndChar

StartChar: m
Encoding: 109 109 80
Width: 1024
GlyphClass: 2
Flags: W
LayerCount: 2
Fore
SplineSet
0 256 m 1,0,-1
 0 1536 l 1,1,-1
 256 1536 l 1,2,-1
 256 1280 l 1,3,-1
 384 1280 l 1,4,-1
 384 1024 l 1,5,-1
 256 1024 l 1,6,-1
 256 256 l 1,7,-1
 0 256 l 1,0,-1
384 768 m 1,8,-1
 384 1024 l 1,9,-1
 512 1024 l 1,10,-1
 512 768 l 1,11,-1
 384 768 l 1,8,-1
512 1024 m 1,12,-1
 512 1536 l 1,13,-1
 768 1536 l 1,14,-1
 768 1280 l 1,15,-1
 896 1280 l 1,16,-1
 896 256 l 1,17,-1
 640 256 l 1,18,-1
 640 1024 l 1,19,-1
 512 1024 l 1,12,-1
EndSplineSet
EndChar

StartChar: n
Encoding: 110 110 81
Width: 896
GlyphClass: 2
Flags: W
LayerCount: 2
Fore
SplineSet
0 256 m 1,0,-1
 0 1536 l 1,1,-1
 640 1536 l 1,2,-1
 640 1280 l 1,3,-1
 768 1280 l 1,4,-1
 768 256 l 1,5,-1
 512 256 l 1,6,-1
 512 1280 l 1,7,-1
 256 1280 l 1,8,-1
 256 256 l 1,9,-1
 0 256 l 1,0,-1
EndSplineSet
EndChar

StartChar: o
Encoding: 111 111 82
Width: 896
GlyphClass: 2
Flags: W
LayerCount: 2
Fore
SplineSet
0 512 m 1,0,-1
 0 1280 l 1,1,-1
 128 1280 l 1,2,-1
 128 1536 l 1,3,-1
 640 1536 l 1,4,-1
 640 1280 l 1,5,-1
 768 1280 l 1,6,-1
 768 512 l 1,7,-1
 640 512 l 1,8,-1
 640 256 l 1,9,-1
 128 256 l 1,10,-1
 128 512 l 1,11,-1
 0 512 l 1,0,-1
256 512 m 1,12,-1
 512 512 l 1,13,-1
 512 1280 l 1,14,-1
 256 1280 l 1,15,-1
 256 512 l 1,12,-1
EndSplineSet
EndChar

StartChar: p
Encoding: 112 112 83
Width: 1024
GlyphClass: 2
Flags: W
LayerCount: 2
Fore
SplineSet
0 0 m 1,0,-1
 0 256 l 1,1,-1
 128 256 l 1,2,-1
 128 1280 l 1,3,-1
 0 1280 l 1,4,-1
 0 1536 l 1,5,-1
 256 1536 l 1,6,-1
 256 1280 l 1,7,-1
 384 1280 l 1,8,-1
 384 768 l 1,9,-1
 640 768 l 1,10,-1
 640 1280 l 1,11,-1
 384 1280 l 1,12,-1
 384 1536 l 1,13,-1
 768 1536 l 1,14,-1
 768 1280 l 1,15,-1
 896 1280 l 1,16,-1
 896 768 l 1,17,-1
 768 768 l 1,18,-1
 768 512 l 1,19,-1
 384 512 l 1,20,-1
 384 256 l 1,21,-1
 512 256 l 1,22,-1
 512 0 l 1,23,-1
 0 0 l 1,0,-1
EndSplineSet
EndChar

StartChar: q
Encoding: 113 113 84
Width: 1152
GlyphClass: 2
Flags: W
LayerCount: 2
Fore
SplineSet
128 768 m 1,0,-1
 128 1280 l 1,1,-1
 256 1280 l 1,2,-1
 256 1536 l 1,3,-1
 640 1536 l 1,4,-1
 640 1280 l 1,5,-1
 384 1280 l 1,6,-1
 384 768 l 1,7,-1
 640 768 l 1,8,-1
 640 1280 l 1,9,-1
 768 1280 l 1,10,-1
 768 1536 l 1,11,-1
 1024 1536 l 1,12,-1
 1024 1280 l 1,13,-1
 896 1280 l 1,14,-1
 896 256 l 1,15,-1
 1024 256 l 1,16,-1
 1024 0 l 1,17,-1
 512 0 l 1,18,-1
 512 256 l 1,19,-1
 640 256 l 1,20,-1
 640 512 l 1,21,-1
 256 512 l 1,22,-1
 256 768 l 1,23,-1
 128 768 l 1,0,-1
EndSplineSet
EndChar

StartChar: r
Encoding: 114 114 85
Width: 1024
GlyphClass: 2
Flags: W
LayerCount: 2
Fore
SplineSet
0 256 m 1,0,-1
 0 512 l 1,1,-1
 128 512 l 1,2,-1
 128 1280 l 1,3,-1
 0 1280 l 1,4,-1
 0 1536 l 1,5,-1
 384 1536 l 1,6,-1
 384 1280 l 1,7,-1
 512 1280 l 1,8,-1
 512 1024 l 1,9,-1
 384 1024 l 1,10,-1
 384 512 l 1,11,-1
 512 512 l 1,12,-1
 512 256 l 1,13,-1
 0 256 l 1,0,-1
512 1280 m 1,14,-1
 512 1536 l 1,15,-1
 768 1536 l 1,16,-1
 768 1280 l 1,17,-1
 896 1280 l 1,18,-1
 896 768 l 1,19,-1
 640 768 l 1,20,-1
 640 1280 l 1,21,-1
 512 1280 l 1,14,-1
EndSplineSet
EndChar

StartChar: s
Encoding: 115 115 86
Width: 896
GlyphClass: 2
Flags: W
LayerCount: 2
Fore
SplineSet
0 256 m 1,0,-1
 0 512 l 1,1,-1
 512 512 l 1,2,-1
 512 768 l 1,3,-1
 128 768 l 1,4,-1
 128 1024 l 1,5,-1
 0 1024 l 1,6,-1
 0 1280 l 1,7,-1
 128 1280 l 1,8,-1
 128 1536 l 1,9,-1
 768 1536 l 1,10,-1
 768 1280 l 1,11,-1
 256 1280 l 1,12,-1
 256 1024 l 1,13,-1
 640 1024 l 1,14,-1
 640 768 l 1,15,-1
 768 768 l 1,16,-1
 768 512 l 1,17,-1
 640 512 l 1,18,-1
 640 256 l 1,19,-1
 0 256 l 1,0,-1
EndSplineSet
EndChar

StartChar: t
Encoding: 116 116 87
Width: 768
GlyphClass: 2
Flags: W
LayerCount: 2
Fore
SplineSet
0 1280 m 1,0,-1
 0 1536 l 1,1,-1
 128 1536 l 1,2,-1
 128 1792 l 1,3,-1
 256 1792 l 1,4,-1
 256 2048 l 1,5,-1
 384 2048 l 1,6,-1
 384 1536 l 1,7,-1
 640 1536 l 1,8,-1
 640 1280 l 1,9,-1
 384 1280 l 1,10,-1
 384 512 l 1,11,-1
 512 512 l 1,12,-1
 512 256 l 1,13,-1
 256 256 l 1,14,-1
 256 512 l 1,15,-1
 128 512 l 1,16,-1
 128 1280 l 1,17,-1
 0 1280 l 1,0,-1
512 512 m 1,18,-1
 512 768 l 1,19,-1
 640 768 l 1,20,-1
 640 512 l 1,21,-1
 512 512 l 1,18,-1
EndSplineSet
EndChar

StartChar: u
Encoding: 117 117 88
Width: 1024
GlyphClass: 2
Flags: W
LayerCount: 2
Fore
SplineSet
0 512 m 1,0,-1
 0 1536 l 1,1,-1
 256 1536 l 1,2,-1
 256 512 l 1,3,-1
 512 512 l 1,4,-1
 512 256 l 1,5,-1
 128 256 l 1,6,-1
 128 512 l 1,7,-1
 0 512 l 1,0,-1
512 512 m 1,8,-1
 512 1536 l 1,9,-1
 768 1536 l 1,10,-1
 768 512 l 1,11,-1
 896 512 l 1,12,-1
 896 256 l 1,13,-1
 640 256 l 1,14,-1
 640 512 l 1,15,-1
 512 512 l 1,8,-1
EndSplineSet
EndChar

StartChar: v
Encoding: 118 118 89
Width: 896
GlyphClass: 2
Flags: W
LayerCount: 2
Fore
SplineSet
0 768 m 1,0,-1
 0 1536 l 1,1,-1
 256 1536 l 1,2,-1
 256 768 l 1,3,-1
 512 768 l 1,4,-1
 512 1536 l 1,5,-1
 768 1536 l 1,6,-1
 768 768 l 1,7,-1
 640 768 l 1,8,-1
 640 512 l 1,9,-1
 512 512 l 1,10,-1
 512 256 l 1,11,-1
 256 256 l 1,12,-1
 256 512 l 1,13,-1
 128 512 l 1,14,-1
 128 768 l 1,15,-1
 0 768 l 1,0,-1
EndSplineSet
EndChar

StartChar: w
Encoding: 119 119 90
Width: 1024
GlyphClass: 2
Flags: W
LayerCount: 2
Fore
SplineSet
0 768 m 1,0,-1
 0 1536 l 1,1,-1
 256 1536 l 1,2,-1
 256 768 l 1,3,-1
 384 768 l 1,4,-1
 384 256 l 1,5,-1
 128 256 l 1,6,-1
 128 768 l 1,7,-1
 0 768 l 1,0,-1
384 768 m 1,8,-1
 384 1280 l 1,9,-1
 512 1280 l 1,10,-1
 512 768 l 1,11,-1
 384 768 l 1,8,-1
512 256 m 1,12,-1
 512 768 l 1,13,-1
 640 768 l 1,14,-1
 640 1536 l 1,15,-1
 896 1536 l 1,16,-1
 896 768 l 1,17,-1
 768 768 l 1,18,-1
 768 256 l 1,19,-1
 512 256 l 1,12,-1
EndSplineSet
EndChar

StartChar: x
Encoding: 120 120 91
Width: 1024
GlyphClass: 2
Flags: W
LayerCount: 2
Fore
SplineSet
0 256 m 1,0,-1
 0 512 l 1,1,-1
 128 512 l 1,2,-1
 128 768 l 1,3,-1
 256 768 l 1,4,-1
 256 1024 l 1,5,-1
 128 1024 l 1,6,-1
 128 1280 l 1,7,-1
 0 1280 l 1,8,-1
 0 1536 l 1,9,-1
 256 1536 l 1,10,-1
 256 1280 l 1,11,-1
 384 1280 l 1,12,-1
 384 1024 l 1,13,-1
 512 1024 l 1,14,-1
 512 1280 l 1,15,-1
 640 1280 l 1,16,-1
 640 1536 l 1,17,-1
 896 1536 l 1,18,-1
 896 1280 l 1,19,-1
 768 1280 l 1,20,-1
 768 1024 l 1,21,-1
 640 1024 l 1,22,-1
 640 768 l 1,23,-1
 768 768 l 1,24,-1
 768 512 l 1,25,-1
 896 512 l 1,26,-1
 896 256 l 1,27,-1
 640 256 l 1,28,-1
 640 512 l 1,29,-1
 512 512 l 1,30,-1
 512 768 l 1,31,-1
 384 768 l 1,32,-1
 384 512 l 1,33,-1
 256 512 l 1,34,-1
 256 256 l 1,35,-1
 0 256 l 1,0,-1
EndSplineSet
EndChar

StartChar: y
Encoding: 121 121 92
Width: 896
GlyphClass: 2
Flags: W
LayerCount: 2
Fore
SplineSet
0 0 m 1,0,-1
 0 256 l 1,1,-1
 256 256 l 1,2,-1
 256 512 l 1,3,-1
 128 512 l 1,4,-1
 128 768 l 1,5,-1
 0 768 l 1,6,-1
 0 1536 l 1,7,-1
 256 1536 l 1,8,-1
 256 768 l 1,9,-1
 512 768 l 1,10,-1
 512 1536 l 1,11,-1
 768 1536 l 1,12,-1
 768 768 l 1,13,-1
 640 768 l 1,14,-1
 640 512 l 1,15,-1
 512 512 l 1,16,-1
 512 256 l 1,17,-1
 384 256 l 1,18,-1
 384 0 l 1,19,-1
 0 0 l 1,0,-1
EndSplineSet
EndChar

StartChar: z
Encoding: 122 122 93
Width: 896
GlyphClass: 2
Flags: W
LayerCount: 2
Fore
SplineSet
0 256 m 1,0,-1
 0 512 l 1,1,-1
 128 512 l 1,2,-1
 128 768 l 1,3,-1
 256 768 l 1,4,-1
 256 1024 l 1,5,-1
 384 1024 l 1,6,-1
 384 1280 l 1,7,-1
 128 1280 l 1,8,-1
 128 1024 l 1,9,-1
 0 1024 l 1,10,-1
 0 1536 l 1,11,-1
 768 1536 l 1,12,-1
 768 1280 l 1,13,-1
 640 1280 l 1,14,-1
 640 1024 l 1,15,-1
 512 1024 l 1,16,-1
 512 768 l 1,17,-1
 384 768 l 1,18,-1
 384 512 l 1,19,-1
 640 512 l 1,20,-1
 640 768 l 1,21,-1
 768 768 l 1,22,-1
 768 256 l 1,23,-1
 0 256 l 1,0,-1
EndSplineSet
EndChar

StartChar: braceleft
Encoding: 123 123 94
Width: 1024
GlyphClass: 2
Flags: W
LayerCount: 2
Fore
SplineSet
128 1024 m 1,0,-1
 128 1280 l 1,1,-1
 384 1280 l 1,2,-1
 384 1792 l 1,3,-1
 512 1792 l 1,4,-1
 512 2048 l 1,5,-1
 896 2048 l 1,6,-1
 896 1792 l 1,7,-1
 640 1792 l 1,8,-1
 640 1280 l 1,9,-1
 512 1280 l 1,10,-1
 512 1024 l 1,11,-1
 640 1024 l 1,12,-1
 640 512 l 1,13,-1
 896 512 l 1,14,-1
 896 256 l 1,15,-1
 512 256 l 1,16,-1
 512 512 l 1,17,-1
 384 512 l 1,18,-1
 384 1024 l 1,19,-1
 128 1024 l 1,0,-1
EndSplineSet
EndChar

StartChar: bar
Encoding: 124 124 95
Width: 1024
GlyphClass: 2
Flags: W
LayerCount: 2
Fore
SplineSet
384 256 m 1,0,-1
 384 2048 l 1,1,-1
 640 2048 l 1,2,-1
 640 256 l 1,3,-1
 384 256 l 1,0,-1
EndSplineSet
EndChar

StartChar: braceright
Encoding: 125 125 96
Width: 1024
GlyphClass: 2
Flags: W
LayerCount: 2
Fore
SplineSet
128 256 m 1,0,-1
 128 512 l 1,1,-1
 384 512 l 1,2,-1
 384 1024 l 1,3,-1
 512 1024 l 1,4,-1
 512 1280 l 1,5,-1
 384 1280 l 1,6,-1
 384 1792 l 1,7,-1
 128 1792 l 1,8,-1
 128 2048 l 1,9,-1
 512 2048 l 1,10,-1
 512 1792 l 1,11,-1
 640 1792 l 1,12,-1
 640 1280 l 1,13,-1
 896 1280 l 1,14,-1
 896 1024 l 1,15,-1
 640 1024 l 1,16,-1
 640 512 l 1,17,-1
 512 512 l 1,18,-1
 512 256 l 1,19,-1
 128 256 l 1,0,-1
EndSplineSet
EndChar

StartChar: asciitilde
Encoding: 126 126 97
Width: 1152
GlyphClass: 2
Flags: W
LayerCount: 2
Fore
SplineSet
128 1536 m 1,0,-1
 128 1792 l 1,1,-1
 256 1792 l 1,2,-1
 256 1536 l 1,3,-1
 128 1536 l 1,0,-1
256 1792 m 1,4,-1
 256 2048 l 1,5,-1
 640 2048 l 1,6,-1
 640 1792 l 1,7,-1
 896 1792 l 1,8,-1
 896 1536 l 1,9,-1
 512 1536 l 1,10,-1
 512 1792 l 1,11,-1
 256 1792 l 1,4,-1
896 1792 m 1,12,-1
 896 2048 l 1,13,-1
 1024 2048 l 1,14,-1
 1024 1792 l 1,15,-1
 896 1792 l 1,12,-1
EndSplineSet
EndChar

StartChar: exclamdown
Encoding: 161 161 99
Width: 768
GlyphClass: 2
Flags: W
LayerCount: 2
Fore
SplineSet
128 256 m 1,0,-1
 128 768 l 1,1,-1
 256 768 l 1,2,-1
 256 1280 l 1,3,-1
 512 1280 l 1,4,-1
 512 768 l 1,5,-1
 640 768 l 1,6,-1
 640 256 l 1,7,-1
 512 256 l 1,8,-1
 512 0 l 1,9,-1
 256 0 l 1,10,-1
 256 256 l 1,11,-1
 128 256 l 1,0,-1
256 1536 m 1,12,-1
 256 1792 l 1,13,-1
 512 1792 l 1,14,-1
 512 1536 l 1,15,-1
 256 1536 l 1,12,-1
EndSplineSet
EndChar

StartChar: cent
Encoding: 162 162 100
Width: 1152
GlyphClass: 2
Flags: W
LayerCount: 2
Fore
SplineSet
256 1024 m 1,0,-1
 256 1536 l 1,1,-1
 384 1536 l 1,2,-1
 384 1792 l 1,3,-1
 640 1792 l 1,4,-1
 640 2048 l 1,5,-1
 896 2048 l 1,6,-1
 896 1792 l 1,7,-1
 1024 1792 l 1,8,-1
 1024 1536 l 1,9,-1
 896 1536 l 1,10,-1
 896 1024 l 1,11,-1
 1024 1024 l 1,12,-1
 1024 768 l 1,13,-1
 896 768 l 1,14,-1
 896 512 l 1,15,-1
 640 512 l 1,16,-1
 640 768 l 1,17,-1
 384 768 l 1,18,-1
 384 1024 l 1,19,-1
 256 1024 l 1,0,-1
512 1024 m 1,20,-1
 640 1024 l 1,21,-1
 640 1536 l 1,22,-1
 512 1536 l 1,23,-1
 512 1024 l 1,20,-1
EndSplineSet
EndChar

StartChar: sterling
Encoding: 163 163 101
Width: 1024
GlyphClass: 2
Flags: W
LayerCount: 2
Fore
SplineSet
128 256 m 1,0,-1
 128 512 l 1,1,-1
 256 512 l 1,2,-1
 256 1024 l 1,3,-1
 128 1024 l 1,4,-1
 128 1280 l 1,5,-1
 256 1280 l 1,6,-1
 256 1792 l 1,7,-1
 384 1792 l 1,8,-1
 384 2048 l 1,9,-1
 768 2048 l 1,10,-1
 768 1792 l 1,11,-1
 896 1792 l 1,12,-1
 896 1536 l 1,13,-1
 640 1536 l 1,14,-1
 640 1792 l 1,15,-1
 512 1792 l 1,16,-1
 512 1280 l 1,17,-1
 640 1280 l 1,18,-1
 640 1024 l 1,19,-1
 512 1024 l 1,20,-1
 512 512 l 1,21,-1
 896 512 l 1,22,-1
 896 256 l 1,23,-1
 128 256 l 1,0,-1
EndSplineSet
EndChar

StartChar: currency
Encoding: 164 164 102
Width: 1024
GlyphClass: 2
Flags: W
LayerCount: 2
Fore
SplineSet
128 768 m 1,0,-1
 128 1024 l 1,1,-1
 256 1024 l 1,2,-1
 256 768 l 1,3,-1
 128 768 l 1,0,-1
128 1280 m 1,4,-1
 128 1536 l 1,5,-1
 256 1536 l 1,6,-1
 256 1792 l 1,7,-1
 768 1792 l 1,8,-1
 768 1536 l 1,9,-1
 896 1536 l 1,10,-1
 896 1280 l 1,11,-1
 768 1280 l 1,12,-1
 768 1024 l 1,13,-1
 256 1024 l 1,14,-1
 256 1280 l 1,15,-1
 128 1280 l 1,4,-1
128 1792 m 1,16,-1
 128 2048 l 1,17,-1
 256 2048 l 1,18,-1
 256 1792 l 1,19,-1
 128 1792 l 1,16,-1
384 1280 m 1,20,-1
 640 1280 l 1,21,-1
 640 1536 l 1,22,-1
 384 1536 l 1,23,-1
 384 1280 l 1,20,-1
768 768 m 1,24,-1
 768 1024 l 1,25,-1
 896 1024 l 1,26,-1
 896 768 l 1,27,-1
 768 768 l 1,24,-1
768 1792 m 1,28,-1
 768 2048 l 1,29,-1
 896 2048 l 1,30,-1
 896 1792 l 1,31,-1
 768 1792 l 1,28,-1
EndSplineSet
EndChar

StartChar: yen
Encoding: 165 165 103
Width: 1280
GlyphClass: 2
Flags: W
LayerCount: 2
Fore
SplineSet
128 1792 m 1,0,-1
 128 2048 l 1,1,-1
 384 2048 l 1,2,-1
 384 1792 l 1,3,-1
 512 1792 l 1,4,-1
 512 1536 l 1,5,-1
 768 1536 l 1,6,-1
 768 1792 l 1,7,-1
 896 1792 l 1,8,-1
 896 2048 l 1,9,-1
 1152 2048 l 1,10,-1
 1152 1792 l 1,11,-1
 1024 1792 l 1,12,-1
 1024 1536 l 1,13,-1
 896 1536 l 1,14,-1
 896 1280 l 1,15,-1
 768 1280 l 1,16,-1
 768 1024 l 1,17,-1
 896 1024 l 1,18,-1
 896 768 l 1,19,-1
 768 768 l 1,20,-1
 768 512 l 1,21,-1
 896 512 l 1,22,-1
 896 256 l 1,23,-1
 384 256 l 1,24,-1
 384 512 l 1,25,-1
 512 512 l 1,26,-1
 512 768 l 1,27,-1
 384 768 l 1,28,-1
 384 1024 l 1,29,-1
 512 1024 l 1,30,-1
 512 1280 l 1,31,-1
 384 1280 l 1,32,-1
 384 1536 l 1,33,-1
 256 1536 l 1,34,-1
 256 1792 l 1,35,-1
 128 1792 l 1,0,-1
EndSplineSet
EndChar

StartChar: brokenbar
Encoding: 166 166 104
Width: 512
GlyphClass: 2
Flags: W
LayerCount: 2
Fore
SplineSet
128 256 m 1,0,-1
 128 1024 l 1,1,-1
 384 1024 l 1,2,-1
 384 256 l 1,3,-1
 128 256 l 1,0,-1
128 1280 m 1,4,-1
 128 2048 l 1,5,-1
 384 2048 l 1,6,-1
 384 1280 l 1,7,-1
 128 1280 l 1,4,-1
EndSplineSet
EndChar

StartChar: section
Encoding: 167 167 105
Width: 1024
GlyphClass: 2
Flags: W
LayerCount: 2
Fore
SplineSet
128 1024 m 1,0,-1
 128 1280 l 1,1,-1
 256 1280 l 1,2,-1
 256 1536 l 1,3,-1
 768 1536 l 1,4,-1
 768 1280 l 1,5,-1
 896 1280 l 1,6,-1
 896 1024 l 1,7,-1
 768 1024 l 1,8,-1
 768 768 l 1,9,-1
 256 768 l 1,10,-1
 256 1024 l 1,11,-1
 128 1024 l 1,0,-1
128 1536 m 1,12,-1
 128 1792 l 1,13,-1
 256 1792 l 1,14,-1
 256 1536 l 1,15,-1
 128 1536 l 1,12,-1
256 256 m 1,16,-1
 256 512 l 1,17,-1
 768 512 l 1,18,-1
 768 256 l 1,19,-1
 256 256 l 1,16,-1
256 1792 m 1,20,-1
 256 2048 l 1,21,-1
 768 2048 l 1,22,-1
 768 1792 l 1,23,-1
 256 1792 l 1,20,-1
384 1024 m 1,24,-1
 640 1024 l 1,25,-1
 640 1280 l 1,26,-1
 384 1280 l 1,27,-1
 384 1024 l 1,24,-1
768 512 m 1,28,-1
 768 768 l 1,29,-1
 896 768 l 1,30,-1
 896 512 l 1,31,-1
 768 512 l 1,28,-1
EndSplineSet
EndChar

StartChar: dieresis
Encoding: 168 168 106
Width: 1024
GlyphClass: 2
Flags: W
LayerCount: 2
Fore
SplineSet
128 1792 m 1,0,-1
 128 2048 l 1,1,-1
 384 2048 l 1,2,-1
 384 1792 l 1,3,-1
 128 1792 l 1,0,-1
640 1792 m 1,4,-1
 640 2048 l 1,5,-1
 896 2048 l 1,6,-1
 896 1792 l 1,7,-1
 640 1792 l 1,4,-1
EndSplineSet
EndChar

StartChar: copyright
Encoding: 169 169 107
Width: 1280
GlyphClass: 2
Flags: W
LayerCount: 2
Fore
SplineSet
128 256 m 1,0,-1
 128 1792 l 1,1,-1
 256 1792 l 1,2,-1
 256 256 l 1,3,-1
 128 256 l 1,0,-1
256 0 m 1,4,-1
 256 256 l 1,5,-1
 1024 256 l 1,6,-1
 1024 0 l 1,7,-1
 256 0 l 1,4,-1
256 1792 m 1,8,-1
 256 2048 l 1,9,-1
 1024 2048 l 1,10,-1
 1024 1792 l 1,11,-1
 256 1792 l 1,8,-1
384 768 m 1,12,-1
 384 1280 l 1,13,-1
 512 1280 l 1,14,-1
 512 1536 l 1,15,-1
 896 1536 l 1,16,-1
 896 1280 l 1,17,-1
 640 1280 l 1,18,-1
 640 768 l 1,19,-1
 896 768 l 1,20,-1
 896 512 l 1,21,-1
 512 512 l 1,22,-1
 512 768 l 1,23,-1
 384 768 l 1,12,-1
1024 256 m 1,24,-1
 1024 1792 l 1,25,-1
 1152 1792 l 1,26,-1
 1152 256 l 1,27,-1
 1024 256 l 1,24,-1
EndSplineSet
EndChar

StartChar: ordfeminine
Encoding: 170 170 108
Width: 1024
GlyphClass: 2
Flags: W
LayerCount: 2
Fore
SplineSet
128 512 m 1,0,-1
 128 768 l 1,1,-1
 896 768 l 1,2,-1
 896 512 l 1,3,-1
 128 512 l 1,0,-1
128 1024 m 1,4,-1
 128 1536 l 1,5,-1
 256 1536 l 1,6,-1
 256 1280 l 1,7,-1
 640 1280 l 1,8,-1
 640 1792 l 1,9,-1
 768 1792 l 1,10,-1
 768 1024 l 1,11,-1
 128 1024 l 1,4,-1
256 1536 m 1,12,-1
 256 1792 l 1,13,-1
 384 1792 l 1,14,-1
 384 1536 l 1,15,-1
 256 1536 l 1,12,-1
384 1792 m 1,16,-1
 384 2048 l 1,17,-1
 640 2048 l 1,18,-1
 640 1792 l 1,19,-1
 384 1792 l 1,16,-1
EndSplineSet
EndChar

StartChar: guillemotleft
Encoding: 171 171 109
Width: 1152
GlyphClass: 2
Flags: W
LayerCount: 2
Fore
SplineSet
0 1024 m 1,0,-1
 0 1280 l 1,1,-1
 128 1280 l 1,2,-1
 128 1536 l 1,3,-1
 256 1536 l 1,4,-1
 256 1792 l 1,5,-1
 512 1792 l 1,6,-1
 512 1536 l 1,7,-1
 384 1536 l 1,8,-1
 384 1280 l 1,9,-1
 256 1280 l 1,10,-1
 256 1024 l 1,11,-1
 384 1024 l 1,12,-1
 384 768 l 1,13,-1
 512 768 l 1,14,-1
 512 512 l 1,15,-1
 256 512 l 1,16,-1
 256 768 l 1,17,-1
 128 768 l 1,18,-1
 128 1024 l 1,19,-1
 0 1024 l 1,0,-1
512 1024 m 1,20,-1
 512 1280 l 1,21,-1
 640 1280 l 1,22,-1
 640 1536 l 1,23,-1
 768 1536 l 1,24,-1
 768 1792 l 1,25,-1
 1024 1792 l 1,26,-1
 1024 1536 l 1,27,-1
 896 1536 l 1,28,-1
 896 1280 l 1,29,-1
 768 1280 l 1,30,-1
 768 1024 l 1,31,-1
 896 1024 l 1,32,-1
 896 768 l 1,33,-1
 1024 768 l 1,34,-1
 1024 512 l 1,35,-1
 768 512 l 1,36,-1
 768 768 l 1,37,-1
 640 768 l 1,38,-1
 640 1024 l 1,39,-1
 512 1024 l 1,20,-1
EndSplineSet
EndChar

StartChar: logicalnot
Encoding: 172 172 110
Width: 1152
GlyphClass: 2
Flags: W
LayerCount: 2
Fore
SplineSet
256 1792 m 1,0,-1
 256 2048 l 1,1,-1
 1024 2048 l 1,2,-1
 1024 1536 l 1,3,-1
 768 1536 l 1,4,-1
 768 1792 l 1,5,-1
 256 1792 l 1,0,-1
EndSplineSet
EndChar

StartChar: uni00AD
Encoding: 173 173 111
Width: 1024
GlyphClass: 2
Flags: W
LayerCount: 2
Fore
SplineSet
0 0 m 1,0,-1
 0 256 l 1,1,-1
 896 256 l 1,2,-1
 896 0 l 1,3,-1
 0 0 l 1,0,-1
EndSplineSet
EndChar

StartChar: registered
Encoding: 174 174 112
Width: 1280
GlyphClass: 2
Flags: W
LayerCount: 2
Fore
SplineSet
128 256 m 1,0,-1
 128 1792 l 1,1,-1
 256 1792 l 1,2,-1
 256 256 l 1,3,-1
 128 256 l 1,0,-1
256 0 m 1,4,-1
 256 256 l 1,5,-1
 1024 256 l 1,6,-1
 1024 0 l 1,7,-1
 256 0 l 1,4,-1
256 1792 m 1,8,-1
 256 2048 l 1,9,-1
 1024 2048 l 1,10,-1
 1024 1792 l 1,11,-1
 256 1792 l 1,8,-1
384 512 m 1,12,-1
 384 1536 l 1,13,-1
 768 1536 l 1,14,-1
 768 1024 l 1,15,-1
 640 1024 l 1,16,-1
 640 768 l 1,17,-1
 512 768 l 1,18,-1
 512 512 l 1,19,-1
 384 512 l 1,12,-1
640 512 m 1,20,-1
 640 768 l 1,21,-1
 768 768 l 1,22,-1
 768 512 l 1,23,-1
 640 512 l 1,20,-1
1024 256 m 1,24,-1
 1024 1792 l 1,25,-1
 1152 1792 l 1,26,-1
 1152 256 l 1,27,-1
 1024 256 l 1,24,-1
EndSplineSet
EndChar

StartChar: macron
Encoding: 175 175 113
Width: 1024
GlyphClass: 2
Flags: W
LayerCount: 2
Fore
SplineSet
128 1792 m 1,0,-1
 128 2048 l 1,1,-1
 896 2048 l 1,2,-1
 896 1792 l 1,3,-1
 128 1792 l 1,0,-1
EndSplineSet
EndChar

StartChar: degree
Encoding: 176 176 114
Width: 1024
GlyphClass: 2
Flags: W
LayerCount: 2
Fore
SplineSet
128 1536 m 1,0,-1
 128 1792 l 1,1,-1
 256 1792 l 1,2,-1
 256 2048 l 1,3,-1
 768 2048 l 1,4,-1
 768 1792 l 1,5,-1
 896 1792 l 1,6,-1
 896 1536 l 1,7,-1
 768 1536 l 1,8,-1
 768 1280 l 1,9,-1
 256 1280 l 1,10,-1
 256 1536 l 1,11,-1
 128 1536 l 1,0,-1
384 1536 m 1,12,-1
 640 1536 l 1,13,-1
 640 1792 l 1,14,-1
 384 1792 l 1,15,-1
 384 1536 l 1,12,-1
EndSplineSet
EndChar

StartChar: plusminus
Encoding: 177 177 115
Width: 1024
GlyphClass: 2
Flags: W
LayerCount: 2
Fore
SplineSet
128 0 m 1,0,-1
 128 256 l 1,1,-1
 896 256 l 1,2,-1
 896 0 l 1,3,-1
 128 0 l 1,0,-1
128 1024 m 1,4,-1
 128 1280 l 1,5,-1
 384 1280 l 1,6,-1
 384 1792 l 1,7,-1
 640 1792 l 1,8,-1
 640 1280 l 1,9,-1
 896 1280 l 1,10,-1
 896 1024 l 1,11,-1
 640 1024 l 1,12,-1
 640 512 l 1,13,-1
 384 512 l 1,14,-1
 384 1024 l 1,15,-1
 128 1024 l 1,4,-1
EndSplineSet
EndChar

StartChar: uni00B2
Encoding: 178 178 116
Width: 768
GlyphClass: 2
Flags: W
LayerCount: 2
Fore
SplineSet
0 768 m 1,0,-1
 0 1024 l 1,1,-1
 128 1024 l 1,2,-1
 128 1280 l 1,3,-1
 256 1280 l 1,4,-1
 256 1536 l 1,5,-1
 384 1536 l 1,6,-1
 384 1792 l 1,7,-1
 0 1792 l 1,8,-1
 0 2048 l 1,9,-1
 512 2048 l 1,10,-1
 512 1792 l 1,11,-1
 640 1792 l 1,12,-1
 640 1536 l 1,13,-1
 512 1536 l 1,14,-1
 512 1280 l 1,15,-1
 384 1280 l 1,16,-1
 384 1024 l 1,17,-1
 640 1024 l 1,18,-1
 640 768 l 1,19,-1
 0 768 l 1,0,-1
EndSplineSet
EndChar

StartChar: uni00B3
Encoding: 179 179 117
Width: 768
GlyphClass: 2
Flags: W
LayerCount: 2
Fore
SplineSet
0 768 m 1,0,-1
 0 1024 l 1,1,-1
 384 1024 l 1,2,-1
 384 1280 l 1,3,-1
 256 1280 l 1,4,-1
 256 1536 l 1,5,-1
 384 1536 l 1,6,-1
 384 1792 l 1,7,-1
 0 1792 l 1,8,-1
 0 2048 l 1,9,-1
 512 2048 l 1,10,-1
 512 1792 l 1,11,-1
 640 1792 l 1,12,-1
 640 1536 l 1,13,-1
 512 1536 l 1,14,-1
 512 1280 l 1,15,-1
 640 1280 l 1,16,-1
 640 1024 l 1,17,-1
 512 1024 l 1,18,-1
 512 768 l 1,19,-1
 0 768 l 1,0,-1
EndSplineSet
EndChar

StartChar: acute
Encoding: 180 180 118
Width: 768
GlyphClass: 2
Flags: W
LayerCount: 2
Fore
SplineSet
256 1280 m 1,0,-1
 256 1536 l 1,1,-1
 384 1536 l 1,2,-1
 384 1792 l 1,3,-1
 640 1792 l 1,4,-1
 640 1536 l 1,5,-1
 512 1536 l 1,6,-1
 512 1280 l 1,7,-1
 256 1280 l 1,0,-1
EndSplineSet
EndChar

StartChar: uni00B5
Encoding: 181 181 119
Width: 1024
GlyphClass: 2
Flags: W
LayerCount: 2
Fore
SplineSet
0 0 m 1,0,-1
 0 1536 l 1,1,-1
 256 1536 l 1,2,-1
 256 768 l 1,3,-1
 384 768 l 1,4,-1
 384 512 l 1,5,-1
 512 512 l 1,6,-1
 512 768 l 1,7,-1
 640 768 l 1,8,-1
 640 1536 l 1,9,-1
 896 1536 l 1,10,-1
 896 256 l 1,11,-1
 768 256 l 1,12,-1
 768 512 l 1,13,-1
 640 512 l 1,14,-1
 640 256 l 1,15,-1
 256 256 l 1,16,-1
 256 0 l 1,17,-1
 0 0 l 1,0,-1
EndSplineSet
EndChar

StartChar: paragraph
Encoding: 182 182 120
Width: 1024
GlyphClass: 2
Flags: W
LayerCount: 2
Fore
SplineSet
0 1152 m 1,0,-1
 0 1664 l 1,1,-1
 128 1664 l 1,2,-1
 128 1920 l 1,3,-1
 896 1920 l 1,4,-1
 896 1664 l 1,5,-1
 768 1664 l 1,6,-1
 768 128 l 1,7,-1
 640 128 l 1,8,-1
 640 1664 l 1,9,-1
 512 1664 l 1,10,-1
 512 128 l 1,11,-1
 384 128 l 1,12,-1
 384 896 l 1,13,-1
 128 896 l 1,14,-1
 128 1152 l 1,15,-1
 0 1152 l 1,0,-1
EndSplineSet
EndChar

StartChar: periodcentered
Encoding: 183 183 121
Width: 768
GlyphClass: 2
Flags: W
LayerCount: 2
Fore
SplineSet
256 896 m 1,0,-1
 256 1408 l 1,1,-1
 512 1408 l 1,2,-1
 512 896 l 1,3,-1
 256 896 l 1,0,-1
EndSplineSet
EndChar

StartChar: uni00B9
Encoding: 185 185 122
Width: 640
GlyphClass: 2
Flags: W
LayerCount: 2
Fore
SplineSet
128 1536 m 1,0,-1
 128 1792 l 1,1,-1
 256 1792 l 1,2,-1
 256 2048 l 1,3,-1
 512 2048 l 1,4,-1
 512 768 l 1,5,-1
 256 768 l 1,6,-1
 256 1536 l 1,7,-1
 128 1536 l 1,0,-1
EndSplineSet
EndChar

StartChar: ordmasculine
Encoding: 186 186 123
Width: 768
GlyphClass: 2
Flags: W
LayerCount: 2
Fore
SplineSet
0 512 m 1,0,-1
 0 768 l 1,1,-1
 640 768 l 1,2,-1
 640 512 l 1,3,-1
 0 512 l 1,0,-1
0 1280 m 1,4,-1
 0 1792 l 1,5,-1
 128 1792 l 1,6,-1
 128 1280 l 1,7,-1
 0 1280 l 1,4,-1
128 1024 m 1,8,-1
 128 1280 l 1,9,-1
 512 1280 l 1,10,-1
 512 1024 l 1,11,-1
 128 1024 l 1,8,-1
128 1792 m 1,12,-1
 128 2048 l 1,13,-1
 512 2048 l 1,14,-1
 512 1792 l 1,15,-1
 128 1792 l 1,12,-1
512 1280 m 1,16,-1
 512 1792 l 1,17,-1
 640 1792 l 1,18,-1
 640 1280 l 1,19,-1
 512 1280 l 1,16,-1
EndSplineSet
EndChar

StartChar: guillemotright
Encoding: 187 187 124
Width: 1152
GlyphClass: 2
Flags: W
LayerCount: 2
Fore
SplineSet
0 512 m 1,0,-1
 0 768 l 1,1,-1
 128 768 l 1,2,-1
 128 1024 l 1,3,-1
 256 1024 l 1,4,-1
 256 1280 l 1,5,-1
 128 1280 l 1,6,-1
 128 1536 l 1,7,-1
 0 1536 l 1,8,-1
 0 1792 l 1,9,-1
 256 1792 l 1,10,-1
 256 1536 l 1,11,-1
 384 1536 l 1,12,-1
 384 1280 l 1,13,-1
 512 1280 l 1,14,-1
 512 1024 l 1,15,-1
 384 1024 l 1,16,-1
 384 768 l 1,17,-1
 256 768 l 1,18,-1
 256 512 l 1,19,-1
 0 512 l 1,0,-1
512 512 m 1,20,-1
 512 768 l 1,21,-1
 640 768 l 1,22,-1
 640 1024 l 1,23,-1
 768 1024 l 1,24,-1
 768 1280 l 1,25,-1
 640 1280 l 1,26,-1
 640 1536 l 1,27,-1
 512 1536 l 1,28,-1
 512 1792 l 1,29,-1
 768 1792 l 1,30,-1
 768 1536 l 1,31,-1
 896 1536 l 1,32,-1
 896 1280 l 1,33,-1
 1024 1280 l 1,34,-1
 1024 1024 l 1,35,-1
 896 1024 l 1,36,-1
 896 768 l 1,37,-1
 768 768 l 1,38,-1
 768 512 l 1,39,-1
 512 512 l 1,20,-1
EndSplineSet
EndChar

StartChar: onequarter
Encoding: 188 188 125
Width: 1024
GlyphClass: 2
Flags: W
LayerCount: 2
Fore
SplineSet
0 256 m 1,0,-1
 0 512 l 1,1,-1
 128 512 l 1,2,-1
 128 768 l 1,3,-1
 256 768 l 1,4,-1
 256 1024 l 1,5,-1
 384 1024 l 1,6,-1
 384 1280 l 1,7,-1
 512 1280 l 1,8,-1
 512 1536 l 1,9,-1
 640 1536 l 1,10,-1
 640 1792 l 1,11,-1
 896 1792 l 1,12,-1
 896 1536 l 1,13,-1
 768 1536 l 1,14,-1
 768 1280 l 1,15,-1
 640 1280 l 1,16,-1
 640 1024 l 1,17,-1
 512 1024 l 1,18,-1
 512 768 l 1,19,-1
 384 768 l 1,20,-1
 384 512 l 1,21,-1
 256 512 l 1,22,-1
 256 256 l 1,23,-1
 0 256 l 1,0,-1
0 1536 m 1,24,-1
 0 1792 l 1,25,-1
 128 1792 l 1,26,-1
 128 2048 l 1,27,-1
 256 2048 l 1,28,-1
 256 1024 l 1,29,-1
 128 1024 l 1,30,-1
 128 1536 l 1,31,-1
 0 1536 l 1,24,-1
512 256 m 1,32,-1
 512 512 l 1,33,-1
 640 512 l 1,34,-1
 640 768 l 1,35,-1
 768 768 l 1,36,-1
 768 1024 l 1,37,-1
 896 1024 l 1,38,-1
 896 0 l 1,39,-1
 768 0 l 1,40,-1
 768 256 l 1,41,-1
 512 256 l 1,32,-1
EndSplineSet
EndChar

StartChar: onehalf
Encoding: 189 189 126
Width: 1024
GlyphClass: 2
Flags: W
LayerCount: 2
Fore
SplineSet
0 256 m 1,0,-1
 0 512 l 1,1,-1
 128 512 l 1,2,-1
 128 768 l 1,3,-1
 256 768 l 1,4,-1
 256 1024 l 1,5,-1
 384 1024 l 1,6,-1
 384 1280 l 1,7,-1
 512 1280 l 1,8,-1
 512 1536 l 1,9,-1
 640 1536 l 1,10,-1
 640 1792 l 1,11,-1
 896 1792 l 1,12,-1
 896 1536 l 1,13,-1
 768 1536 l 1,14,-1
 768 1280 l 1,15,-1
 640 1280 l 1,16,-1
 640 1024 l 1,17,-1
 512 1024 l 1,18,-1
 512 768 l 1,19,-1
 384 768 l 1,20,-1
 384 512 l 1,21,-1
 256 512 l 1,22,-1
 256 256 l 1,23,-1
 0 256 l 1,0,-1
0 1536 m 1,24,-1
 0 1792 l 1,25,-1
 128 1792 l 1,26,-1
 128 2048 l 1,27,-1
 256 2048 l 1,28,-1
 256 1024 l 1,29,-1
 128 1024 l 1,30,-1
 128 1536 l 1,31,-1
 0 1536 l 1,24,-1
512 0 m 1,32,-1
 512 256 l 1,33,-1
 640 256 l 1,34,-1
 640 512 l 1,35,-1
 768 512 l 1,36,-1
 768 256 l 1,37,-1
 896 256 l 1,38,-1
 896 0 l 1,39,-1
 512 0 l 1,32,-1
640 768 m 1,40,-1
 640 1024 l 1,41,-1
 896 1024 l 1,42,-1
 896 512 l 1,43,-1
 768 512 l 1,44,-1
 768 768 l 1,45,-1
 640 768 l 1,40,-1
EndSplineSet
EndChar

StartChar: threequarters
Encoding: 190 190 127
Width: 1152
GlyphClass: 2
Flags: W
LayerCount: 2
Fore
SplineSet
0 768 m 1,0,-1
 0 1024 l 1,1,-1
 256 1024 l 1,2,-1
 256 768 l 1,3,-1
 0 768 l 1,0,-1
0 1792 m 1,4,-1
 0 2048 l 1,5,-1
 256 2048 l 1,6,-1
 256 1792 l 1,7,-1
 0 1792 l 1,4,-1
128 256 m 1,8,-1
 128 512 l 1,9,-1
 256 512 l 1,10,-1
 256 768 l 1,11,-1
 384 768 l 1,12,-1
 384 1024 l 1,13,-1
 512 1024 l 1,14,-1
 512 1280 l 1,15,-1
 640 1280 l 1,16,-1
 640 1536 l 1,17,-1
 768 1536 l 1,18,-1
 768 1792 l 1,19,-1
 1024 1792 l 1,20,-1
 1024 1536 l 1,21,-1
 896 1536 l 1,22,-1
 896 1280 l 1,23,-1
 768 1280 l 1,24,-1
 768 1024 l 1,25,-1
 640 1024 l 1,26,-1
 640 768 l 1,27,-1
 512 768 l 1,28,-1
 512 512 l 1,29,-1
 384 512 l 1,30,-1
 384 256 l 1,31,-1
 128 256 l 1,8,-1
128 1280 m 1,32,-1
 128 1536 l 1,33,-1
 256 1536 l 1,34,-1
 256 1792 l 1,35,-1
 384 1792 l 1,36,-1
 384 1024 l 1,37,-1
 256 1024 l 1,38,-1
 256 1280 l 1,39,-1
 128 1280 l 1,32,-1
640 256 m 1,40,-1
 640 512 l 1,41,-1
 768 512 l 1,42,-1
 768 768 l 1,43,-1
 896 768 l 1,44,-1
 896 1024 l 1,45,-1
 1024 1024 l 1,46,-1
 1024 0 l 1,47,-1
 896 0 l 1,48,-1
 896 256 l 1,49,-1
 640 256 l 1,40,-1
EndSplineSet
EndChar

StartChar: questiondown
Encoding: 191 191 128
Width: 1024
GlyphClass: 2
Flags: W
LayerCount: 2
Fore
SplineSet
128 256 m 1,0,-1
 128 768 l 1,1,-1
 256 768 l 1,2,-1
 256 1024 l 1,3,-1
 384 1024 l 1,4,-1
 384 1280 l 1,5,-1
 640 1280 l 1,6,-1
 640 1024 l 1,7,-1
 512 1024 l 1,8,-1
 512 768 l 1,9,-1
 384 768 l 1,10,-1
 384 256 l 1,11,-1
 640 256 l 1,12,-1
 640 512 l 1,13,-1
 896 512 l 1,14,-1
 896 256 l 1,15,-1
 768 256 l 1,16,-1
 768 0 l 1,17,-1
 256 0 l 1,18,-1
 256 256 l 1,19,-1
 128 256 l 1,0,-1
384 1536 m 1,20,-1
 384 1792 l 1,21,-1
 640 1792 l 1,22,-1
 640 1536 l 1,23,-1
 384 1536 l 1,20,-1
EndSplineSet
EndChar

StartChar: Agrave
Encoding: 192 192 129
Width: 1152
GlyphClass: 2
Flags: W
LayerCount: 2
Fore
SplineSet
0 256 m 1,0,-1
 0 768 l 1,1,-1
 128 768 l 1,2,-1
 128 1280 l 1,3,-1
 256 1280 l 1,4,-1
 256 1536 l 1,5,-1
 512 1536 l 1,6,-1
 512 1792 l 1,7,-1
 640 1792 l 1,8,-1
 640 1536 l 1,9,-1
 768 1536 l 1,10,-1
 768 1280 l 1,11,-1
 896 1280 l 1,12,-1
 896 768 l 1,13,-1
 1024 768 l 1,14,-1
 1024 256 l 1,15,-1
 768 256 l 1,16,-1
 768 768 l 1,17,-1
 256 768 l 1,18,-1
 256 256 l 1,19,-1
 0 256 l 1,0,-1
256 1792 m 1,20,-1
 256 2048 l 1,21,-1
 512 2048 l 1,22,-1
 512 1792 l 1,23,-1
 256 1792 l 1,20,-1
384 1024 m 1,24,-1
 640 1024 l 1,25,-1
 640 1280 l 1,26,-1
 384 1280 l 1,27,-1
 384 1024 l 1,24,-1
EndSplineSet
EndChar

StartChar: Aacute
Encoding: 193 193 130
Width: 1152
GlyphClass: 2
Flags: W
LayerCount: 2
Fore
SplineSet
0 256 m 1,0,-1
 0 768 l 1,1,-1
 128 768 l 1,2,-1
 128 1280 l 1,3,-1
 256 1280 l 1,4,-1
 256 1536 l 1,5,-1
 384 1536 l 1,6,-1
 384 1792 l 1,7,-1
 512 1792 l 1,8,-1
 512 1536 l 1,9,-1
 768 1536 l 1,10,-1
 768 1280 l 1,11,-1
 896 1280 l 1,12,-1
 896 768 l 1,13,-1
 1024 768 l 1,14,-1
 1024 256 l 1,15,-1
 768 256 l 1,16,-1
 768 768 l 1,17,-1
 256 768 l 1,18,-1
 256 256 l 1,19,-1
 0 256 l 1,0,-1
384 1024 m 1,20,-1
 640 1024 l 1,21,-1
 640 1280 l 1,22,-1
 384 1280 l 1,23,-1
 384 1024 l 1,20,-1
512 1792 m 1,24,-1
 512 2048 l 1,25,-1
 768 2048 l 1,26,-1
 768 1792 l 1,27,-1
 512 1792 l 1,24,-1
EndSplineSet
EndChar

StartChar: Acircumflex
Encoding: 194 194 131
Width: 1152
GlyphClass: 2
Flags: W
LayerCount: 2
Fore
SplineSet
0 256 m 1,0,-1
 0 768 l 1,1,-1
 128 768 l 1,2,-1
 128 1280 l 1,3,-1
 256 1280 l 1,4,-1
 256 1792 l 1,5,-1
 384 1792 l 1,6,-1
 384 1536 l 1,7,-1
 640 1536 l 1,8,-1
 640 1792 l 1,9,-1
 768 1792 l 1,10,-1
 768 1280 l 1,11,-1
 896 1280 l 1,12,-1
 896 768 l 1,13,-1
 1024 768 l 1,14,-1
 1024 256 l 1,15,-1
 768 256 l 1,16,-1
 768 768 l 1,17,-1
 256 768 l 1,18,-1
 256 256 l 1,19,-1
 0 256 l 1,0,-1
384 1024 m 1,20,-1
 640 1024 l 1,21,-1
 640 1280 l 1,22,-1
 384 1280 l 1,23,-1
 384 1024 l 1,20,-1
384 1792 m 1,24,-1
 384 2048 l 1,25,-1
 640 2048 l 1,26,-1
 640 1792 l 1,27,-1
 384 1792 l 1,24,-1
EndSplineSet
EndChar

StartChar: Atilde
Encoding: 195 195 132
Width: 1152
GlyphClass: 2
Flags: W
LayerCount: 2
Fore
SplineSet
0 256 m 1,0,-1
 0 768 l 1,1,-1
 128 768 l 1,2,-1
 128 1280 l 1,3,-1
 256 1280 l 1,4,-1
 256 1536 l 1,5,-1
 512 1536 l 1,6,-1
 512 1792 l 1,7,-1
 896 1792 l 1,8,-1
 896 1536 l 1,9,-1
 768 1536 l 1,10,-1
 768 1280 l 1,11,-1
 896 1280 l 1,12,-1
 896 768 l 1,13,-1
 1024 768 l 1,14,-1
 1024 256 l 1,15,-1
 768 256 l 1,16,-1
 768 768 l 1,17,-1
 256 768 l 1,18,-1
 256 256 l 1,19,-1
 0 256 l 1,0,-1
0 1536 m 1,20,-1
 0 1792 l 1,21,-1
 128 1792 l 1,22,-1
 128 1536 l 1,23,-1
 0 1536 l 1,20,-1
128 1792 m 1,24,-1
 128 2048 l 1,25,-1
 512 2048 l 1,26,-1
 512 1792 l 1,27,-1
 128 1792 l 1,24,-1
384 1024 m 1,28,-1
 640 1024 l 1,29,-1
 640 1280 l 1,30,-1
 384 1280 l 1,31,-1
 384 1024 l 1,28,-1
896 1792 m 1,32,-1
 896 2048 l 1,33,-1
 1024 2048 l 1,34,-1
 1024 1792 l 1,35,-1
 896 1792 l 1,32,-1
EndSplineSet
EndChar

StartChar: Adieresis
Encoding: 196 196 133
Width: 1152
GlyphClass: 2
Flags: W
LayerCount: 2
Fore
SplineSet
0 256 m 1,0,-1
 0 768 l 1,1,-1
 128 768 l 1,2,-1
 128 1280 l 1,3,-1
 256 1280 l 1,4,-1
 256 1536 l 1,5,-1
 384 1536 l 1,6,-1
 384 1792 l 1,7,-1
 640 1792 l 1,8,-1
 640 1536 l 1,9,-1
 768 1536 l 1,10,-1
 768 1280 l 1,11,-1
 896 1280 l 1,12,-1
 896 768 l 1,13,-1
 1024 768 l 1,14,-1
 1024 256 l 1,15,-1
 768 256 l 1,16,-1
 768 768 l 1,17,-1
 256 768 l 1,18,-1
 256 256 l 1,19,-1
 0 256 l 1,0,-1
0 1792 m 1,20,-1
 0 2048 l 1,21,-1
 256 2048 l 1,22,-1
 256 1792 l 1,23,-1
 0 1792 l 1,20,-1
384 1024 m 1,24,-1
 640 1024 l 1,25,-1
 640 1280 l 1,26,-1
 384 1280 l 1,27,-1
 384 1024 l 1,24,-1
768 1792 m 1,28,-1
 768 2048 l 1,29,-1
 1024 2048 l 1,30,-1
 1024 1792 l 1,31,-1
 768 1792 l 1,28,-1
EndSplineSet
EndChar

StartChar: Aring
Encoding: 197 197 134
Width: 1152
GlyphClass: 2
Flags: W
LayerCount: 2
Fore
SplineSet
0 256 m 1,0,-1
 0 768 l 1,1,-1
 128 768 l 1,2,-1
 128 1280 l 1,3,-1
 256 1280 l 1,4,-1
 256 1536 l 1,5,-1
 128 1536 l 1,6,-1
 128 1792 l 1,7,-1
 256 1792 l 1,8,-1
 256 2048 l 1,9,-1
 768 2048 l 1,10,-1
 768 1792 l 1,11,-1
 896 1792 l 1,12,-1
 896 1536 l 1,13,-1
 768 1536 l 1,14,-1
 768 1280 l 1,15,-1
 896 1280 l 1,16,-1
 896 768 l 1,17,-1
 1024 768 l 1,18,-1
 1024 256 l 1,19,-1
 768 256 l 1,20,-1
 768 768 l 1,21,-1
 256 768 l 1,22,-1
 256 256 l 1,23,-1
 0 256 l 1,0,-1
384 1024 m 1,24,-1
 640 1024 l 1,25,-1
 640 1280 l 1,26,-1
 384 1280 l 1,27,-1
 384 1024 l 1,24,-1
384 1536 m 1,28,-1
 640 1536 l 1,29,-1
 640 1792 l 1,30,-1
 384 1792 l 1,31,-1
 384 1536 l 1,28,-1
EndSplineSet
EndChar

StartChar: AE
Encoding: 198 198 135
Width: 1152
GlyphClass: 2
Flags: W
LayerCount: 2
Fore
SplineSet
0 256 m 1,0,-1
 0 768 l 1,1,-1
 128 768 l 1,2,-1
 128 1280 l 1,3,-1
 256 1280 l 1,4,-1
 256 1792 l 1,5,-1
 384 1792 l 1,6,-1
 384 2048 l 1,7,-1
 1024 2048 l 1,8,-1
 1024 1792 l 1,9,-1
 768 1792 l 1,10,-1
 768 1280 l 1,11,-1
 1024 1280 l 1,12,-1
 1024 1024 l 1,13,-1
 768 1024 l 1,14,-1
 768 512 l 1,15,-1
 1024 512 l 1,16,-1
 1024 256 l 1,17,-1
 512 256 l 1,18,-1
 512 768 l 1,19,-1
 256 768 l 1,20,-1
 256 256 l 1,21,-1
 0 256 l 1,0,-1
384 1024 m 1,22,-1
 512 1024 l 1,23,-1
 512 1280 l 1,24,-1
 384 1280 l 1,25,-1
 384 1024 l 1,22,-1
EndSplineSet
EndChar

StartChar: Ccedilla
Encoding: 199 199 136
Width: 1024
GlyphClass: 2
Flags: W
LayerCount: 2
Fore
SplineSet
0 1024 m 1,0,-1
 0 1536 l 1,1,-1
 128 1536 l 1,2,-1
 128 1792 l 1,3,-1
 256 1792 l 1,4,-1
 256 2048 l 1,5,-1
 768 2048 l 1,6,-1
 768 1792 l 1,7,-1
 896 1792 l 1,8,-1
 896 1536 l 1,9,-1
 640 1536 l 1,10,-1
 640 1792 l 1,11,-1
 384 1792 l 1,12,-1
 384 1536 l 1,13,-1
 256 1536 l 1,14,-1
 256 1024 l 1,15,-1
 384 1024 l 1,16,-1
 384 768 l 1,17,-1
 640 768 l 1,18,-1
 640 1024 l 1,19,-1
 896 1024 l 1,20,-1
 896 768 l 1,21,-1
 768 768 l 1,22,-1
 768 512 l 1,23,-1
 640 512 l 1,24,-1
 640 256 l 1,25,-1
 512 256 l 1,26,-1
 512 512 l 1,27,-1
 256 512 l 1,28,-1
 256 768 l 1,29,-1
 128 768 l 1,30,-1
 128 1024 l 1,31,-1
 0 1024 l 1,0,-1
EndSplineSet
EndChar

StartChar: Egrave
Encoding: 200 200 137
Width: 1024
GlyphClass: 2
Flags: W
LayerCount: 2
Fore
SplineSet
0 256 m 1,0,-1
 0 512 l 1,1,-1
 128 512 l 1,2,-1
 128 1280 l 1,3,-1
 0 1280 l 1,4,-1
 0 1536 l 1,5,-1
 384 1536 l 1,6,-1
 384 1792 l 1,7,-1
 512 1792 l 1,8,-1
 512 1536 l 1,9,-1
 896 1536 l 1,10,-1
 896 1280 l 1,11,-1
 384 1280 l 1,12,-1
 384 1024 l 1,13,-1
 640 1024 l 1,14,-1
 640 768 l 1,15,-1
 384 768 l 1,16,-1
 384 512 l 1,17,-1
 896 512 l 1,18,-1
 896 256 l 1,19,-1
 0 256 l 1,0,-1
128 1792 m 1,20,-1
 128 2048 l 1,21,-1
 384 2048 l 1,22,-1
 384 1792 l 1,23,-1
 128 1792 l 1,20,-1
EndSplineSet
EndChar

StartChar: Eacute
Encoding: 201 201 138
Width: 1024
GlyphClass: 2
Flags: W
LayerCount: 2
Fore
SplineSet
0 256 m 1,0,-1
 0 512 l 1,1,-1
 128 512 l 1,2,-1
 128 1280 l 1,3,-1
 0 1280 l 1,4,-1
 0 1536 l 1,5,-1
 256 1536 l 1,6,-1
 256 1792 l 1,7,-1
 384 1792 l 1,8,-1
 384 1536 l 1,9,-1
 896 1536 l 1,10,-1
 896 1280 l 1,11,-1
 384 1280 l 1,12,-1
 384 1024 l 1,13,-1
 640 1024 l 1,14,-1
 640 768 l 1,15,-1
 384 768 l 1,16,-1
 384 512 l 1,17,-1
 896 512 l 1,18,-1
 896 256 l 1,19,-1
 0 256 l 1,0,-1
384 1792 m 1,20,-1
 384 2048 l 1,21,-1
 640 2048 l 1,22,-1
 640 1792 l 1,23,-1
 384 1792 l 1,20,-1
EndSplineSet
EndChar

StartChar: Ecircumflex
Encoding: 202 202 139
Width: 1024
GlyphClass: 2
Flags: W
LayerCount: 2
Fore
SplineSet
0 256 m 1,0,-1
 0 512 l 1,1,-1
 128 512 l 1,2,-1
 128 1280 l 1,3,-1
 0 1280 l 1,4,-1
 0 1536 l 1,5,-1
 256 1536 l 1,6,-1
 256 1792 l 1,7,-1
 384 1792 l 1,8,-1
 384 1536 l 1,9,-1
 640 1536 l 1,10,-1
 640 1792 l 1,11,-1
 768 1792 l 1,12,-1
 768 1536 l 1,13,-1
 896 1536 l 1,14,-1
 896 1280 l 1,15,-1
 384 1280 l 1,16,-1
 384 1024 l 1,17,-1
 640 1024 l 1,18,-1
 640 768 l 1,19,-1
 384 768 l 1,20,-1
 384 512 l 1,21,-1
 896 512 l 1,22,-1
 896 256 l 1,23,-1
 0 256 l 1,0,-1
384 1792 m 1,24,-1
 384 2048 l 1,25,-1
 640 2048 l 1,26,-1
 640 1792 l 1,27,-1
 384 1792 l 1,24,-1
EndSplineSet
EndChar

StartChar: Edieresis
Encoding: 203 203 140
Width: 1024
GlyphClass: 2
Flags: W
LayerCount: 2
Fore
SplineSet
0 256 m 1,0,-1
 0 512 l 1,1,-1
 128 512 l 1,2,-1
 128 1280 l 1,3,-1
 0 1280 l 1,4,-1
 0 1536 l 1,5,-1
 896 1536 l 1,6,-1
 896 1280 l 1,7,-1
 384 1280 l 1,8,-1
 384 1024 l 1,9,-1
 640 1024 l 1,10,-1
 640 768 l 1,11,-1
 384 768 l 1,12,-1
 384 512 l 1,13,-1
 896 512 l 1,14,-1
 896 256 l 1,15,-1
 0 256 l 1,0,-1
128 1792 m 1,16,-1
 128 2048 l 1,17,-1
 384 2048 l 1,18,-1
 384 1792 l 1,19,-1
 128 1792 l 1,16,-1
640 1792 m 1,20,-1
 640 2048 l 1,21,-1
 896 2048 l 1,22,-1
 896 1792 l 1,23,-1
 640 1792 l 1,20,-1
EndSplineSet
EndChar

StartChar: Igrave
Encoding: 204 204 141
Width: 1024
GlyphClass: 2
Flags: W
LayerCount: 2
Fore
SplineSet
128 256 m 1,0,-1
 128 512 l 1,1,-1
 384 512 l 1,2,-1
 384 1280 l 1,3,-1
 128 1280 l 1,4,-1
 128 1536 l 1,5,-1
 512 1536 l 1,6,-1
 512 1792 l 1,7,-1
 640 1792 l 1,8,-1
 640 1536 l 1,9,-1
 896 1536 l 1,10,-1
 896 1280 l 1,11,-1
 640 1280 l 1,12,-1
 640 512 l 1,13,-1
 896 512 l 1,14,-1
 896 256 l 1,15,-1
 128 256 l 1,0,-1
256 1792 m 1,16,-1
 256 2048 l 1,17,-1
 512 2048 l 1,18,-1
 512 1792 l 1,19,-1
 256 1792 l 1,16,-1
EndSplineSet
EndChar

StartChar: Iacute
Encoding: 205 205 142
Width: 1024
GlyphClass: 2
Flags: W
LayerCount: 2
Fore
SplineSet
128 256 m 1,0,-1
 128 512 l 1,1,-1
 384 512 l 1,2,-1
 384 1280 l 1,3,-1
 128 1280 l 1,4,-1
 128 1536 l 1,5,-1
 384 1536 l 1,6,-1
 384 1792 l 1,7,-1
 512 1792 l 1,8,-1
 512 1536 l 1,9,-1
 896 1536 l 1,10,-1
 896 1280 l 1,11,-1
 640 1280 l 1,12,-1
 640 512 l 1,13,-1
 896 512 l 1,14,-1
 896 256 l 1,15,-1
 128 256 l 1,0,-1
512 1792 m 1,16,-1
 512 2048 l 1,17,-1
 768 2048 l 1,18,-1
 768 1792 l 1,19,-1
 512 1792 l 1,16,-1
EndSplineSet
EndChar

StartChar: Icircumflex
Encoding: 206 206 143
Width: 1024
GlyphClass: 2
Flags: W
LayerCount: 2
Fore
SplineSet
128 256 m 1,0,-1
 128 512 l 1,1,-1
 384 512 l 1,2,-1
 384 1280 l 1,3,-1
 128 1280 l 1,4,-1
 128 1536 l 1,5,-1
 256 1536 l 1,6,-1
 256 1792 l 1,7,-1
 384 1792 l 1,8,-1
 384 1536 l 1,9,-1
 640 1536 l 1,10,-1
 640 1792 l 1,11,-1
 768 1792 l 1,12,-1
 768 1536 l 1,13,-1
 896 1536 l 1,14,-1
 896 1280 l 1,15,-1
 640 1280 l 1,16,-1
 640 512 l 1,17,-1
 896 512 l 1,18,-1
 896 256 l 1,19,-1
 128 256 l 1,0,-1
384 1792 m 1,20,-1
 384 2048 l 1,21,-1
 640 2048 l 1,22,-1
 640 1792 l 1,23,-1
 384 1792 l 1,20,-1
EndSplineSet
EndChar

StartChar: Idieresis
Encoding: 207 207 144
Width: 1024
GlyphClass: 2
Flags: W
LayerCount: 2
Fore
SplineSet
128 256 m 1,0,-1
 128 512 l 1,1,-1
 384 512 l 1,2,-1
 384 1280 l 1,3,-1
 128 1280 l 1,4,-1
 128 1536 l 1,5,-1
 896 1536 l 1,6,-1
 896 1280 l 1,7,-1
 640 1280 l 1,8,-1
 640 512 l 1,9,-1
 896 512 l 1,10,-1
 896 256 l 1,11,-1
 128 256 l 1,0,-1
128 1792 m 1,12,-1
 128 2048 l 1,13,-1
 384 2048 l 1,14,-1
 384 1792 l 1,15,-1
 128 1792 l 1,12,-1
640 1792 m 1,16,-1
 640 2048 l 1,17,-1
 896 2048 l 1,18,-1
 896 1792 l 1,19,-1
 640 1792 l 1,16,-1
EndSplineSet
EndChar

StartChar: Eth
Encoding: 208 208 145
Width: 1024
GlyphClass: 2
Flags: W
LayerCount: 2
Fore
SplineSet
0 256 m 1,0,-1
 0 512 l 1,1,-1
 128 512 l 1,2,-1
 128 1024 l 1,3,-1
 0 1024 l 1,4,-1
 0 1280 l 1,5,-1
 128 1280 l 1,6,-1
 128 1792 l 1,7,-1
 0 1792 l 1,8,-1
 0 2048 l 1,9,-1
 640 2048 l 1,10,-1
 640 1792 l 1,11,-1
 768 1792 l 1,12,-1
 768 1536 l 1,13,-1
 896 1536 l 1,14,-1
 896 768 l 1,15,-1
 768 768 l 1,16,-1
 768 512 l 1,17,-1
 640 512 l 1,18,-1
 640 256 l 1,19,-1
 0 256 l 1,0,-1
384 512 m 1,20,-1
 512 512 l 1,21,-1
 512 768 l 1,22,-1
 640 768 l 1,23,-1
 640 1536 l 1,24,-1
 512 1536 l 1,25,-1
 512 1792 l 1,26,-1
 384 1792 l 1,27,-1
 384 1280 l 1,28,-1
 512 1280 l 1,29,-1
 512 1024 l 1,30,-1
 384 1024 l 1,31,-1
 384 512 l 1,20,-1
EndSplineSet
EndChar

StartChar: Ntilde
Encoding: 209 209 146
Width: 1152
GlyphClass: 2
Flags: W
LayerCount: 2
Fore
SplineSet
0 256 m 1,0,-1
 0 2048 l 1,1,-1
 512 2048 l 1,2,-1
 512 1792 l 1,3,-1
 256 1792 l 1,4,-1
 256 1536 l 1,5,-1
 384 1536 l 1,6,-1
 384 1024 l 1,7,-1
 256 1024 l 1,8,-1
 256 256 l 1,9,-1
 0 256 l 1,0,-1
384 768 m 1,10,-1
 384 1024 l 1,11,-1
 512 1024 l 1,12,-1
 512 768 l 1,13,-1
 384 768 l 1,10,-1
512 512 m 1,14,-1
 512 768 l 1,15,-1
 640 768 l 1,16,-1
 640 1536 l 1,17,-1
 512 1536 l 1,18,-1
 512 1792 l 1,19,-1
 640 1792 l 1,20,-1
 640 2048 l 1,21,-1
 1024 2048 l 1,22,-1
 1024 1792 l 1,23,-1
 896 1792 l 1,24,-1
 896 256 l 1,25,-1
 640 256 l 1,26,-1
 640 512 l 1,27,-1
 512 512 l 1,14,-1
EndSplineSet
EndChar

StartChar: Ograve
Encoding: 210 210 147
Width: 1152
GlyphClass: 2
Flags: W
LayerCount: 2
Fore
SplineSet
0 768 m 1,0,-1
 0 1024 l 1,1,-1
 128 1024 l 1,2,-1
 128 1280 l 1,3,-1
 256 1280 l 1,4,-1
 256 1536 l 1,5,-1
 512 1536 l 1,6,-1
 512 1792 l 1,7,-1
 640 1792 l 1,8,-1
 640 1536 l 1,9,-1
 768 1536 l 1,10,-1
 768 1280 l 1,11,-1
 896 1280 l 1,12,-1
 896 1024 l 1,13,-1
 1024 1024 l 1,14,-1
 1024 768 l 1,15,-1
 896 768 l 1,16,-1
 896 512 l 1,17,-1
 768 512 l 1,18,-1
 768 256 l 1,19,-1
 256 256 l 1,20,-1
 256 512 l 1,21,-1
 128 512 l 1,22,-1
 128 768 l 1,23,-1
 0 768 l 1,0,-1
256 768 m 1,24,-1
 384 768 l 1,25,-1
 384 512 l 1,26,-1
 640 512 l 1,27,-1
 640 768 l 1,28,-1
 768 768 l 1,29,-1
 768 1024 l 1,30,-1
 640 1024 l 1,31,-1
 640 1280 l 1,32,-1
 384 1280 l 1,33,-1
 384 1024 l 1,34,-1
 256 1024 l 1,35,-1
 256 768 l 1,24,-1
256 1792 m 1,36,-1
 256 2048 l 1,37,-1
 512 2048 l 1,38,-1
 512 1792 l 1,39,-1
 256 1792 l 1,36,-1
EndSplineSet
EndChar

StartChar: Oacute
Encoding: 211 211 148
Width: 1152
GlyphClass: 2
Flags: W
LayerCount: 2
Fore
SplineSet
0 768 m 1,0,-1
 0 1024 l 1,1,-1
 128 1024 l 1,2,-1
 128 1280 l 1,3,-1
 256 1280 l 1,4,-1
 256 1536 l 1,5,-1
 384 1536 l 1,6,-1
 384 1792 l 1,7,-1
 512 1792 l 1,8,-1
 512 1536 l 1,9,-1
 768 1536 l 1,10,-1
 768 1280 l 1,11,-1
 896 1280 l 1,12,-1
 896 1024 l 1,13,-1
 1024 1024 l 1,14,-1
 1024 768 l 1,15,-1
 896 768 l 1,16,-1
 896 512 l 1,17,-1
 768 512 l 1,18,-1
 768 256 l 1,19,-1
 256 256 l 1,20,-1
 256 512 l 1,21,-1
 128 512 l 1,22,-1
 128 768 l 1,23,-1
 0 768 l 1,0,-1
256 768 m 1,24,-1
 384 768 l 1,25,-1
 384 512 l 1,26,-1
 640 512 l 1,27,-1
 640 768 l 1,28,-1
 768 768 l 1,29,-1
 768 1024 l 1,30,-1
 640 1024 l 1,31,-1
 640 1280 l 1,32,-1
 384 1280 l 1,33,-1
 384 1024 l 1,34,-1
 256 1024 l 1,35,-1
 256 768 l 1,24,-1
512 1792 m 1,36,-1
 512 2048 l 1,37,-1
 768 2048 l 1,38,-1
 768 1792 l 1,39,-1
 512 1792 l 1,36,-1
EndSplineSet
EndChar

StartChar: Ocircumflex
Encoding: 212 212 149
Width: 1152
GlyphClass: 2
Flags: W
LayerCount: 2
Fore
SplineSet
0 768 m 1,0,-1
 0 1024 l 1,1,-1
 128 1024 l 1,2,-1
 128 1280 l 1,3,-1
 256 1280 l 1,4,-1
 256 1792 l 1,5,-1
 384 1792 l 1,6,-1
 384 1536 l 1,7,-1
 640 1536 l 1,8,-1
 640 1792 l 1,9,-1
 768 1792 l 1,10,-1
 768 1280 l 1,11,-1
 896 1280 l 1,12,-1
 896 1024 l 1,13,-1
 1024 1024 l 1,14,-1
 1024 768 l 1,15,-1
 896 768 l 1,16,-1
 896 512 l 1,17,-1
 768 512 l 1,18,-1
 768 256 l 1,19,-1
 256 256 l 1,20,-1
 256 512 l 1,21,-1
 128 512 l 1,22,-1
 128 768 l 1,23,-1
 0 768 l 1,0,-1
256 768 m 1,24,-1
 384 768 l 1,25,-1
 384 512 l 1,26,-1
 640 512 l 1,27,-1
 640 768 l 1,28,-1
 768 768 l 1,29,-1
 768 1024 l 1,30,-1
 640 1024 l 1,31,-1
 640 1280 l 1,32,-1
 384 1280 l 1,33,-1
 384 1024 l 1,34,-1
 256 1024 l 1,35,-1
 256 768 l 1,24,-1
384 1792 m 1,36,-1
 384 2048 l 1,37,-1
 640 2048 l 1,38,-1
 640 1792 l 1,39,-1
 384 1792 l 1,36,-1
EndSplineSet
EndChar

StartChar: Otilde
Encoding: 213 213 150
Width: 1152
GlyphClass: 2
Flags: W
LayerCount: 2
Fore
SplineSet
0 768 m 1,0,-1
 0 1024 l 1,1,-1
 128 1024 l 1,2,-1
 128 1280 l 1,3,-1
 256 1280 l 1,4,-1
 256 1536 l 1,5,-1
 512 1536 l 1,6,-1
 512 1792 l 1,7,-1
 896 1792 l 1,8,-1
 896 1536 l 1,9,-1
 768 1536 l 1,10,-1
 768 1280 l 1,11,-1
 896 1280 l 1,12,-1
 896 1024 l 1,13,-1
 1024 1024 l 1,14,-1
 1024 768 l 1,15,-1
 896 768 l 1,16,-1
 896 512 l 1,17,-1
 768 512 l 1,18,-1
 768 256 l 1,19,-1
 256 256 l 1,20,-1
 256 512 l 1,21,-1
 128 512 l 1,22,-1
 128 768 l 1,23,-1
 0 768 l 1,0,-1
0 1536 m 1,24,-1
 0 1792 l 1,25,-1
 128 1792 l 1,26,-1
 128 1536 l 1,27,-1
 0 1536 l 1,24,-1
128 1792 m 1,28,-1
 128 2048 l 1,29,-1
 512 2048 l 1,30,-1
 512 1792 l 1,31,-1
 128 1792 l 1,28,-1
256 768 m 1,32,-1
 384 768 l 1,33,-1
 384 512 l 1,34,-1
 640 512 l 1,35,-1
 640 768 l 1,36,-1
 768 768 l 1,37,-1
 768 1024 l 1,38,-1
 640 1024 l 1,39,-1
 640 1280 l 1,40,-1
 384 1280 l 1,41,-1
 384 1024 l 1,42,-1
 256 1024 l 1,43,-1
 256 768 l 1,32,-1
896 1792 m 1,44,-1
 896 2048 l 1,45,-1
 1024 2048 l 1,46,-1
 1024 1792 l 1,47,-1
 896 1792 l 1,44,-1
EndSplineSet
EndChar

StartChar: Odieresis
Encoding: 214 214 151
Width: 1152
GlyphClass: 2
Flags: W
LayerCount: 2
Fore
SplineSet
0 768 m 1,0,-1
 0 1280 l 1,1,-1
 128 1280 l 1,2,-1
 128 1536 l 1,3,-1
 256 1536 l 1,4,-1
 256 1792 l 1,5,-1
 768 1792 l 1,6,-1
 768 1536 l 1,7,-1
 896 1536 l 1,8,-1
 896 1280 l 1,9,-1
 1024 1280 l 1,10,-1
 1024 768 l 1,11,-1
 896 768 l 1,12,-1
 896 512 l 1,13,-1
 768 512 l 1,14,-1
 768 256 l 1,15,-1
 256 256 l 1,16,-1
 256 512 l 1,17,-1
 128 512 l 1,18,-1
 128 768 l 1,19,-1
 0 768 l 1,0,-1
0 1792 m 1,20,-1
 0 2048 l 1,21,-1
 256 2048 l 1,22,-1
 256 1792 l 1,23,-1
 0 1792 l 1,20,-1
256 768 m 1,24,-1
 384 768 l 1,25,-1
 384 512 l 1,26,-1
 640 512 l 1,27,-1
 640 768 l 1,28,-1
 768 768 l 1,29,-1
 768 1280 l 1,30,-1
 640 1280 l 1,31,-1
 640 1536 l 1,32,-1
 384 1536 l 1,33,-1
 384 1280 l 1,34,-1
 256 1280 l 1,35,-1
 256 768 l 1,24,-1
768 1792 m 1,36,-1
 768 2048 l 1,37,-1
 1024 2048 l 1,38,-1
 1024 1792 l 1,39,-1
 768 1792 l 1,36,-1
EndSplineSet
EndChar

StartChar: multiply
Encoding: 215 215 152
Width: 1024
GlyphClass: 2
Flags: W
LayerCount: 2
Fore
SplineSet
128 512 m 1,0,-1
 128 768 l 1,1,-1
 256 768 l 1,2,-1
 256 1024 l 1,3,-1
 384 1024 l 1,4,-1
 384 1280 l 1,5,-1
 256 1280 l 1,6,-1
 256 1536 l 1,7,-1
 128 1536 l 1,8,-1
 128 1792 l 1,9,-1
 384 1792 l 1,10,-1
 384 1536 l 1,11,-1
 640 1536 l 1,12,-1
 640 1792 l 1,13,-1
 896 1792 l 1,14,-1
 896 1536 l 1,15,-1
 768 1536 l 1,16,-1
 768 1280 l 1,17,-1
 640 1280 l 1,18,-1
 640 1024 l 1,19,-1
 768 1024 l 1,20,-1
 768 768 l 1,21,-1
 896 768 l 1,22,-1
 896 512 l 1,23,-1
 640 512 l 1,24,-1
 640 768 l 1,25,-1
 384 768 l 1,26,-1
 384 512 l 1,27,-1
 128 512 l 1,0,-1
EndSplineSet
EndChar

StartChar: Oslash
Encoding: 216 216 153
Width: 1152
GlyphClass: 2
Flags: W
LayerCount: 2
Fore
SplineSet
0 256 m 1,0,-1
 0 512 l 1,1,-1
 128 512 l 1,2,-1
 128 256 l 1,3,-1
 0 256 l 1,0,-1
0 768 m 1,4,-1
 0 1536 l 1,5,-1
 128 1536 l 1,6,-1
 128 1792 l 1,7,-1
 256 1792 l 1,8,-1
 256 2048 l 1,9,-1
 768 2048 l 1,10,-1
 768 1792 l 1,11,-1
 896 1792 l 1,12,-1
 896 1536 l 1,13,-1
 1024 1536 l 1,14,-1
 1024 768 l 1,15,-1
 896 768 l 1,16,-1
 896 512 l 1,17,-1
 768 512 l 1,18,-1
 768 256 l 1,19,-1
 256 256 l 1,20,-1
 256 512 l 1,21,-1
 128 512 l 1,22,-1
 128 768 l 1,23,-1
 0 768 l 1,4,-1
256 1024 m 1,24,-1
 384 1024 l 1,25,-1
 384 1280 l 1,26,-1
 512 1280 l 1,27,-1
 512 1536 l 1,28,-1
 640 1536 l 1,29,-1
 640 1792 l 1,30,-1
 384 1792 l 1,31,-1
 384 1536 l 1,32,-1
 256 1536 l 1,33,-1
 256 1024 l 1,24,-1
384 512 m 1,34,-1
 640 512 l 1,35,-1
 640 768 l 1,36,-1
 768 768 l 1,37,-1
 768 1280 l 1,38,-1
 640 1280 l 1,39,-1
 640 1024 l 1,40,-1
 512 1024 l 1,41,-1
 512 768 l 1,42,-1
 384 768 l 1,43,-1
 384 512 l 1,34,-1
896 1792 m 1,44,-1
 896 2048 l 1,45,-1
 1024 2048 l 1,46,-1
 1024 1792 l 1,47,-1
 896 1792 l 1,44,-1
EndSplineSet
EndChar

StartChar: Ugrave
Encoding: 217 217 154
Width: 1024
GlyphClass: 2
Flags: W
LayerCount: 2
Fore
SplineSet
128 512 m 1,0,-1
 128 1536 l 1,1,-1
 384 1536 l 1,2,-1
 384 512 l 1,3,-1
 640 512 l 1,4,-1
 640 1536 l 1,5,-1
 896 1536 l 1,6,-1
 896 256 l 1,7,-1
 256 256 l 1,8,-1
 256 512 l 1,9,-1
 128 512 l 1,0,-1
256 1792 m 1,10,-1
 256 2048 l 1,11,-1
 512 2048 l 1,12,-1
 512 1792 l 1,13,-1
 256 1792 l 1,10,-1
512 1536 m 1,14,-1
 512 1792 l 1,15,-1
 640 1792 l 1,16,-1
 640 1536 l 1,17,-1
 512 1536 l 1,14,-1
EndSplineSet
EndChar

StartChar: Uacute
Encoding: 218 218 155
Width: 1024
GlyphClass: 2
Flags: W
LayerCount: 2
Fore
SplineSet
128 512 m 1,0,-1
 128 1536 l 1,1,-1
 384 1536 l 1,2,-1
 384 512 l 1,3,-1
 640 512 l 1,4,-1
 640 1536 l 1,5,-1
 896 1536 l 1,6,-1
 896 256 l 1,7,-1
 256 256 l 1,8,-1
 256 512 l 1,9,-1
 128 512 l 1,0,-1
384 1536 m 1,10,-1
 384 1792 l 1,11,-1
 512 1792 l 1,12,-1
 512 1536 l 1,13,-1
 384 1536 l 1,10,-1
512 1792 m 1,14,-1
 512 2048 l 1,15,-1
 768 2048 l 1,16,-1
 768 1792 l 1,17,-1
 512 1792 l 1,14,-1
EndSplineSet
EndChar

StartChar: Ucircumflex
Encoding: 219 219 156
Width: 1024
GlyphClass: 2
Flags: W
LayerCount: 2
Fore
SplineSet
128 512 m 1,0,-1
 128 1536 l 1,1,-1
 256 1536 l 1,2,-1
 256 1792 l 1,3,-1
 384 1792 l 1,4,-1
 384 512 l 1,5,-1
 640 512 l 1,6,-1
 640 1792 l 1,7,-1
 768 1792 l 1,8,-1
 768 1536 l 1,9,-1
 896 1536 l 1,10,-1
 896 256 l 1,11,-1
 256 256 l 1,12,-1
 256 512 l 1,13,-1
 128 512 l 1,0,-1
384 1792 m 1,14,-1
 384 2048 l 1,15,-1
 640 2048 l 1,16,-1
 640 1792 l 1,17,-1
 384 1792 l 1,14,-1
EndSplineSet
EndChar

StartChar: Udieresis
Encoding: 220 220 157
Width: 1024
GlyphClass: 2
Flags: W
LayerCount: 2
Fore
SplineSet
128 512 m 1,0,-1
 128 1536 l 1,1,-1
 384 1536 l 1,2,-1
 384 512 l 1,3,-1
 640 512 l 1,4,-1
 640 1536 l 1,5,-1
 896 1536 l 1,6,-1
 896 256 l 1,7,-1
 256 256 l 1,8,-1
 256 512 l 1,9,-1
 128 512 l 1,0,-1
128 1792 m 1,10,-1
 128 2048 l 1,11,-1
 384 2048 l 1,12,-1
 384 1792 l 1,13,-1
 128 1792 l 1,10,-1
640 1792 m 1,14,-1
 640 2048 l 1,15,-1
 896 2048 l 1,16,-1
 896 1792 l 1,17,-1
 640 1792 l 1,14,-1
EndSplineSet
EndChar

StartChar: Yacute
Encoding: 221 221 158
Width: 1152
GlyphClass: 2
Flags: W
LayerCount: 2
Fore
SplineSet
0 1280 m 1,0,-1
 0 1536 l 1,1,-1
 256 1536 l 1,2,-1
 256 1280 l 1,3,-1
 384 1280 l 1,4,-1
 384 1024 l 1,5,-1
 640 1024 l 1,6,-1
 640 1280 l 1,7,-1
 768 1280 l 1,8,-1
 768 1536 l 1,9,-1
 1024 1536 l 1,10,-1
 1024 1280 l 1,11,-1
 896 1280 l 1,12,-1
 896 1024 l 1,13,-1
 768 1024 l 1,14,-1
 768 768 l 1,15,-1
 640 768 l 1,16,-1
 640 512 l 1,17,-1
 768 512 l 1,18,-1
 768 256 l 1,19,-1
 256 256 l 1,20,-1
 256 512 l 1,21,-1
 384 512 l 1,22,-1
 384 768 l 1,23,-1
 256 768 l 1,24,-1
 256 1024 l 1,25,-1
 128 1024 l 1,26,-1
 128 1280 l 1,27,-1
 0 1280 l 1,0,-1
512 1536 m 1,28,-1
 512 1792 l 1,29,-1
 640 1792 l 1,30,-1
 640 1536 l 1,31,-1
 512 1536 l 1,28,-1
640 1792 m 1,32,-1
 640 2048 l 1,33,-1
 896 2048 l 1,34,-1
 896 1792 l 1,35,-1
 640 1792 l 1,32,-1
EndSplineSet
EndChar

StartChar: Thorn
Encoding: 222 222 159
Width: 1152
GlyphClass: 2
Flags: W
LayerCount: 2
Fore
SplineSet
0 0 m 1,0,-1
 0 256 l 1,1,-1
 128 256 l 1,2,-1
 128 1792 l 1,3,-1
 0 1792 l 1,4,-1
 0 2048 l 1,5,-1
 512 2048 l 1,6,-1
 512 1792 l 1,7,-1
 384 1792 l 1,8,-1
 384 1536 l 1,9,-1
 896 1536 l 1,10,-1
 896 1280 l 1,11,-1
 1024 1280 l 1,12,-1
 1024 768 l 1,13,-1
 896 768 l 1,14,-1
 896 512 l 1,15,-1
 384 512 l 1,16,-1
 384 256 l 1,17,-1
 512 256 l 1,18,-1
 512 0 l 1,19,-1
 0 0 l 1,0,-1
384 768 m 1,20,-1
 768 768 l 1,21,-1
 768 1280 l 1,22,-1
 384 1280 l 1,23,-1
 384 768 l 1,20,-1
EndSplineSet
EndChar

StartChar: germandbls
Encoding: 223 223 160
Width: 1024
GlyphClass: 2
Flags: W
LayerCount: 2
Fore
SplineSet
128 0 m 1,0,-1
 128 2048 l 1,1,-1
 768 2048 l 1,2,-1
 768 1792 l 1,3,-1
 896 1792 l 1,4,-1
 896 1280 l 1,5,-1
 768 1280 l 1,6,-1
 768 1024 l 1,7,-1
 896 1024 l 1,8,-1
 896 512 l 1,9,-1
 768 512 l 1,10,-1
 768 256 l 1,11,-1
 512 256 l 1,12,-1
 512 512 l 1,13,-1
 640 512 l 1,14,-1
 640 1024 l 1,15,-1
 512 1024 l 1,16,-1
 512 1280 l 1,17,-1
 640 1280 l 1,18,-1
 640 1792 l 1,19,-1
 384 1792 l 1,20,-1
 384 0 l 1,21,-1
 128 0 l 1,0,-1
EndSplineSet
EndChar

StartChar: agrave
Encoding: 224 224 161
Width: 1024
GlyphClass: 2
Flags: W
LayerCount: 2
Fore
SplineSet
0 512 m 1,0,-1
 0 768 l 1,1,-1
 256 768 l 1,2,-1
 256 512 l 1,3,-1
 512 512 l 1,4,-1
 512 256 l 1,5,-1
 128 256 l 1,6,-1
 128 512 l 1,7,-1
 0 512 l 1,0,-1
128 1280 m 1,8,-1
 128 1536 l 1,9,-1
 384 1536 l 1,10,-1
 384 1792 l 1,11,-1
 512 1792 l 1,12,-1
 512 1536 l 1,13,-1
 640 1536 l 1,14,-1
 640 1280 l 1,15,-1
 768 1280 l 1,16,-1
 768 512 l 1,17,-1
 896 512 l 1,18,-1
 896 256 l 1,19,-1
 640 256 l 1,20,-1
 640 512 l 1,21,-1
 512 512 l 1,22,-1
 512 768 l 1,23,-1
 256 768 l 1,24,-1
 256 1024 l 1,25,-1
 512 1024 l 1,26,-1
 512 1280 l 1,27,-1
 128 1280 l 1,8,-1
128 1792 m 1,28,-1
 128 2048 l 1,29,-1
 384 2048 l 1,30,-1
 384 1792 l 1,31,-1
 128 1792 l 1,28,-1
EndSplineSet
EndChar

StartChar: aacute
Encoding: 225 225 162
Width: 1024
GlyphClass: 2
Flags: W
LayerCount: 2
Fore
SplineSet
0 512 m 1,0,-1
 0 768 l 1,1,-1
 256 768 l 1,2,-1
 256 512 l 1,3,-1
 512 512 l 1,4,-1
 512 256 l 1,5,-1
 128 256 l 1,6,-1
 128 512 l 1,7,-1
 0 512 l 1,0,-1
128 1280 m 1,8,-1
 128 1536 l 1,9,-1
 256 1536 l 1,10,-1
 256 1792 l 1,11,-1
 384 1792 l 1,12,-1
 384 1536 l 1,13,-1
 640 1536 l 1,14,-1
 640 1280 l 1,15,-1
 768 1280 l 1,16,-1
 768 512 l 1,17,-1
 896 512 l 1,18,-1
 896 256 l 1,19,-1
 640 256 l 1,20,-1
 640 512 l 1,21,-1
 512 512 l 1,22,-1
 512 768 l 1,23,-1
 256 768 l 1,24,-1
 256 1024 l 1,25,-1
 512 1024 l 1,26,-1
 512 1280 l 1,27,-1
 128 1280 l 1,8,-1
384 1792 m 1,28,-1
 384 2048 l 1,29,-1
 640 2048 l 1,30,-1
 640 1792 l 1,31,-1
 384 1792 l 1,28,-1
EndSplineSet
EndChar

StartChar: acircumflex
Encoding: 226 226 163
Width: 1024
GlyphClass: 2
Flags: W
LayerCount: 2
Fore
SplineSet
0 512 m 1,0,-1
 0 768 l 1,1,-1
 256 768 l 1,2,-1
 256 512 l 1,3,-1
 512 512 l 1,4,-1
 512 256 l 1,5,-1
 128 256 l 1,6,-1
 128 512 l 1,7,-1
 0 512 l 1,0,-1
128 1280 m 1,8,-1
 128 1792 l 1,9,-1
 256 1792 l 1,10,-1
 256 1536 l 1,11,-1
 512 1536 l 1,12,-1
 512 1792 l 1,13,-1
 640 1792 l 1,14,-1
 640 1280 l 1,15,-1
 768 1280 l 1,16,-1
 768 512 l 1,17,-1
 896 512 l 1,18,-1
 896 256 l 1,19,-1
 640 256 l 1,20,-1
 640 512 l 1,21,-1
 512 512 l 1,22,-1
 512 768 l 1,23,-1
 256 768 l 1,24,-1
 256 1024 l 1,25,-1
 512 1024 l 1,26,-1
 512 1280 l 1,27,-1
 128 1280 l 1,8,-1
256 1792 m 1,28,-1
 256 2048 l 1,29,-1
 512 2048 l 1,30,-1
 512 1792 l 1,31,-1
 256 1792 l 1,28,-1
EndSplineSet
EndChar

StartChar: atilde
Encoding: 227 227 164
Width: 1152
GlyphClass: 2
Flags: W
LayerCount: 2
Fore
SplineSet
0 1536 m 1,0,-1
 0 1792 l 1,1,-1
 128 1792 l 1,2,-1
 128 1536 l 1,3,-1
 0 1536 l 1,0,-1
128 512 m 1,4,-1
 128 768 l 1,5,-1
 384 768 l 1,6,-1
 384 512 l 1,7,-1
 640 512 l 1,8,-1
 640 256 l 1,9,-1
 256 256 l 1,10,-1
 256 512 l 1,11,-1
 128 512 l 1,4,-1
128 1792 m 1,12,-1
 128 2048 l 1,13,-1
 512 2048 l 1,14,-1
 512 1792 l 1,15,-1
 128 1792 l 1,12,-1
256 1280 m 1,16,-1
 256 1536 l 1,17,-1
 512 1536 l 1,18,-1
 512 1792 l 1,19,-1
 896 1792 l 1,20,-1
 896 1536 l 1,21,-1
 768 1536 l 1,22,-1
 768 1280 l 1,23,-1
 896 1280 l 1,24,-1
 896 512 l 1,25,-1
 1024 512 l 1,26,-1
 1024 256 l 1,27,-1
 768 256 l 1,28,-1
 768 512 l 1,29,-1
 640 512 l 1,30,-1
 640 768 l 1,31,-1
 384 768 l 1,32,-1
 384 1024 l 1,33,-1
 640 1024 l 1,34,-1
 640 1280 l 1,35,-1
 256 1280 l 1,16,-1
896 1792 m 1,36,-1
 896 2048 l 1,37,-1
 1024 2048 l 1,38,-1
 1024 1792 l 1,39,-1
 896 1792 l 1,36,-1
EndSplineSet
EndChar

StartChar: adieresis
Encoding: 228 228 165
Width: 1024
GlyphClass: 2
Flags: W
LayerCount: 2
Fore
SplineSet
0 512 m 1,0,-1
 0 768 l 1,1,-1
 256 768 l 1,2,-1
 256 512 l 1,3,-1
 512 512 l 1,4,-1
 512 256 l 1,5,-1
 128 256 l 1,6,-1
 128 512 l 1,7,-1
 0 512 l 1,0,-1
128 1280 m 1,8,-1
 128 1536 l 1,9,-1
 640 1536 l 1,10,-1
 640 1280 l 1,11,-1
 768 1280 l 1,12,-1
 768 512 l 1,13,-1
 896 512 l 1,14,-1
 896 256 l 1,15,-1
 640 256 l 1,16,-1
 640 512 l 1,17,-1
 512 512 l 1,18,-1
 512 768 l 1,19,-1
 256 768 l 1,20,-1
 256 1024 l 1,21,-1
 512 1024 l 1,22,-1
 512 1280 l 1,23,-1
 128 1280 l 1,8,-1
128 1792 m 1,24,-1
 128 2048 l 1,25,-1
 384 2048 l 1,26,-1
 384 1792 l 1,27,-1
 128 1792 l 1,24,-1
640 1792 m 1,28,-1
 640 2048 l 1,29,-1
 896 2048 l 1,30,-1
 896 1792 l 1,31,-1
 640 1792 l 1,28,-1
EndSplineSet
EndChar

StartChar: aring
Encoding: 229 229 166
Width: 1024
GlyphClass: 2
Flags: W
LayerCount: 2
Fore
SplineSet
0 512 m 1,0,-1
 0 768 l 1,1,-1
 256 768 l 1,2,-1
 256 512 l 1,3,-1
 512 512 l 1,4,-1
 512 256 l 1,5,-1
 128 256 l 1,6,-1
 128 512 l 1,7,-1
 0 512 l 1,0,-1
0 1536 m 1,8,-1
 0 1792 l 1,9,-1
 128 1792 l 1,10,-1
 128 2048 l 1,11,-1
 640 2048 l 1,12,-1
 640 1792 l 1,13,-1
 768 1792 l 1,14,-1
 768 1536 l 1,15,-1
 640 1536 l 1,16,-1
 640 1280 l 1,17,-1
 768 1280 l 1,18,-1
 768 512 l 1,19,-1
 896 512 l 1,20,-1
 896 256 l 1,21,-1
 640 256 l 1,22,-1
 640 512 l 1,23,-1
 512 512 l 1,24,-1
 512 768 l 1,25,-1
 256 768 l 1,26,-1
 256 1024 l 1,27,-1
 512 1024 l 1,28,-1
 512 1280 l 1,29,-1
 128 1280 l 1,30,-1
 128 1536 l 1,31,-1
 0 1536 l 1,8,-1
256 1536 m 1,32,-1
 512 1536 l 1,33,-1
 512 1792 l 1,34,-1
 256 1792 l 1,35,-1
 256 1536 l 1,32,-1
EndSplineSet
EndChar

StartChar: ae
Encoding: 230 230 167
Width: 1280
GlyphClass: 2
Flags: W
LayerCount: 2
Fore
SplineSet
128 512 m 1,0,-1
 128 768 l 1,1,-1
 256 768 l 1,2,-1
 256 1024 l 1,3,-1
 512 1024 l 1,4,-1
 512 1280 l 1,5,-1
 256 1280 l 1,6,-1
 256 1536 l 1,7,-1
 1024 1536 l 1,8,-1
 1024 1280 l 1,9,-1
 1152 1280 l 1,10,-1
 1152 768 l 1,11,-1
 768 768 l 1,12,-1
 768 512 l 1,13,-1
 640 512 l 1,14,-1
 640 256 l 1,15,-1
 256 256 l 1,16,-1
 256 512 l 1,17,-1
 128 512 l 1,0,-1
384 512 m 1,18,-1
 512 512 l 1,19,-1
 512 768 l 1,20,-1
 384 768 l 1,21,-1
 384 512 l 1,18,-1
768 256 m 1,22,-1
 768 512 l 1,23,-1
 1152 512 l 1,24,-1
 1152 256 l 1,25,-1
 768 256 l 1,22,-1
768 1024 m 1,26,-1
 896 1024 l 1,27,-1
 896 1280 l 1,28,-1
 768 1280 l 1,29,-1
 768 1024 l 1,26,-1
EndSplineSet
EndChar

StartChar: ccedilla
Encoding: 231 231 168
Width: 1024
GlyphClass: 2
Flags: W
LayerCount: 2
Fore
SplineSet
128 512 m 1,0,-1
 128 1280 l 1,1,-1
 256 1280 l 1,2,-1
 256 1536 l 1,3,-1
 768 1536 l 1,4,-1
 768 1280 l 1,5,-1
 896 1280 l 1,6,-1
 896 1024 l 1,7,-1
 640 1024 l 1,8,-1
 640 1280 l 1,9,-1
 384 1280 l 1,10,-1
 384 512 l 1,11,-1
 640 512 l 1,12,-1
 640 768 l 1,13,-1
 896 768 l 1,14,-1
 896 512 l 1,15,-1
 768 512 l 1,16,-1
 768 256 l 1,17,-1
 512 256 l 1,18,-1
 512 0 l 1,19,-1
 384 0 l 1,20,-1
 384 256 l 1,21,-1
 256 256 l 1,22,-1
 256 512 l 1,23,-1
 128 512 l 1,0,-1
EndSplineSet
EndChar

StartChar: egrave
Encoding: 232 232 169
Width: 1024
GlyphClass: 2
Flags: W
LayerCount: 2
Fore
SplineSet
128 512 m 1,0,-1
 128 1280 l 1,1,-1
 256 1280 l 1,2,-1
 256 1536 l 1,3,-1
 512 1536 l 1,4,-1
 512 1792 l 1,5,-1
 640 1792 l 1,6,-1
 640 1536 l 1,7,-1
 768 1536 l 1,8,-1
 768 1280 l 1,9,-1
 896 1280 l 1,10,-1
 896 768 l 1,11,-1
 384 768 l 1,12,-1
 384 512 l 1,13,-1
 768 512 l 1,14,-1
 768 256 l 1,15,-1
 256 256 l 1,16,-1
 256 512 l 1,17,-1
 128 512 l 1,0,-1
256 1792 m 1,18,-1
 256 2048 l 1,19,-1
 512 2048 l 1,20,-1
 512 1792 l 1,21,-1
 256 1792 l 1,18,-1
384 1024 m 1,22,-1
 640 1024 l 1,23,-1
 640 1280 l 1,24,-1
 384 1280 l 1,25,-1
 384 1024 l 1,22,-1
EndSplineSet
EndChar

StartChar: eacute
Encoding: 233 233 170
Width: 1024
GlyphClass: 2
Flags: W
LayerCount: 2
Fore
SplineSet
128 512 m 1,0,-1
 128 1280 l 1,1,-1
 256 1280 l 1,2,-1
 256 1536 l 1,3,-1
 384 1536 l 1,4,-1
 384 1792 l 1,5,-1
 512 1792 l 1,6,-1
 512 1536 l 1,7,-1
 768 1536 l 1,8,-1
 768 1280 l 1,9,-1
 896 1280 l 1,10,-1
 896 768 l 1,11,-1
 384 768 l 1,12,-1
 384 512 l 1,13,-1
 768 512 l 1,14,-1
 768 256 l 1,15,-1
 256 256 l 1,16,-1
 256 512 l 1,17,-1
 128 512 l 1,0,-1
384 1024 m 1,18,-1
 640 1024 l 1,19,-1
 640 1280 l 1,20,-1
 384 1280 l 1,21,-1
 384 1024 l 1,18,-1
512 1792 m 1,22,-1
 512 2048 l 1,23,-1
 768 2048 l 1,24,-1
 768 1792 l 1,25,-1
 512 1792 l 1,22,-1
EndSplineSet
EndChar

StartChar: ecircumflex
Encoding: 234 234 171
Width: 1024
GlyphClass: 2
Flags: W
LayerCount: 2
Fore
SplineSet
128 512 m 1,0,-1
 128 1280 l 1,1,-1
 256 1280 l 1,2,-1
 256 1792 l 1,3,-1
 384 1792 l 1,4,-1
 384 1536 l 1,5,-1
 640 1536 l 1,6,-1
 640 1792 l 1,7,-1
 768 1792 l 1,8,-1
 768 1280 l 1,9,-1
 896 1280 l 1,10,-1
 896 768 l 1,11,-1
 384 768 l 1,12,-1
 384 512 l 1,13,-1
 768 512 l 1,14,-1
 768 256 l 1,15,-1
 256 256 l 1,16,-1
 256 512 l 1,17,-1
 128 512 l 1,0,-1
384 1024 m 1,18,-1
 640 1024 l 1,19,-1
 640 1280 l 1,20,-1
 384 1280 l 1,21,-1
 384 1024 l 1,18,-1
384 1792 m 1,22,-1
 384 2048 l 1,23,-1
 640 2048 l 1,24,-1
 640 1792 l 1,25,-1
 384 1792 l 1,22,-1
EndSplineSet
EndChar

StartChar: edieresis
Encoding: 235 235 172
Width: 1024
GlyphClass: 2
Flags: W
LayerCount: 2
Fore
SplineSet
128 512 m 1,0,-1
 128 1280 l 1,1,-1
 256 1280 l 1,2,-1
 256 1536 l 1,3,-1
 768 1536 l 1,4,-1
 768 1280 l 1,5,-1
 896 1280 l 1,6,-1
 896 768 l 1,7,-1
 384 768 l 1,8,-1
 384 512 l 1,9,-1
 768 512 l 1,10,-1
 768 256 l 1,11,-1
 256 256 l 1,12,-1
 256 512 l 1,13,-1
 128 512 l 1,0,-1
128 1792 m 1,14,-1
 128 2048 l 1,15,-1
 384 2048 l 1,16,-1
 384 1792 l 1,17,-1
 128 1792 l 1,14,-1
384 1024 m 1,18,-1
 640 1024 l 1,19,-1
 640 1280 l 1,20,-1
 384 1280 l 1,21,-1
 384 1024 l 1,18,-1
640 1792 m 1,22,-1
 640 2048 l 1,23,-1
 896 2048 l 1,24,-1
 896 1792 l 1,25,-1
 640 1792 l 1,22,-1
EndSplineSet
EndChar

StartChar: igrave
Encoding: 236 236 173
Width: 768
GlyphClass: 2
Flags: W
LayerCount: 2
Fore
SplineSet
128 256 m 1,0,-1
 128 512 l 1,1,-1
 256 512 l 1,2,-1
 256 1280 l 1,3,-1
 128 1280 l 1,4,-1
 128 1536 l 1,5,-1
 384 1536 l 1,6,-1
 384 1792 l 1,7,-1
 512 1792 l 1,8,-1
 512 512 l 1,9,-1
 640 512 l 1,10,-1
 640 256 l 1,11,-1
 128 256 l 1,0,-1
128 1792 m 1,12,-1
 128 2048 l 1,13,-1
 384 2048 l 1,14,-1
 384 1792 l 1,15,-1
 128 1792 l 1,12,-1
EndSplineSet
EndChar

StartChar: iacute
Encoding: 237 237 174
Width: 768
GlyphClass: 2
Flags: W
LayerCount: 2
Fore
SplineSet
128 256 m 1,0,-1
 128 512 l 1,1,-1
 256 512 l 1,2,-1
 256 1280 l 1,3,-1
 128 1280 l 1,4,-1
 128 1536 l 1,5,-1
 256 1536 l 1,6,-1
 256 1792 l 1,7,-1
 384 1792 l 1,8,-1
 384 1536 l 1,9,-1
 512 1536 l 1,10,-1
 512 512 l 1,11,-1
 640 512 l 1,12,-1
 640 256 l 1,13,-1
 128 256 l 1,0,-1
384 1792 m 1,14,-1
 384 2048 l 1,15,-1
 640 2048 l 1,16,-1
 640 1792 l 1,17,-1
 384 1792 l 1,14,-1
EndSplineSet
EndChar

StartChar: icircumflex
Encoding: 238 238 175
Width: 768
GlyphClass: 2
Flags: W
LayerCount: 2
Fore
SplineSet
128 256 m 1,0,-1
 128 512 l 1,1,-1
 256 512 l 1,2,-1
 256 1280 l 1,3,-1
 128 1280 l 1,4,-1
 128 1792 l 1,5,-1
 256 1792 l 1,6,-1
 256 1536 l 1,7,-1
 512 1536 l 1,8,-1
 512 512 l 1,9,-1
 640 512 l 1,10,-1
 640 256 l 1,11,-1
 128 256 l 1,0,-1
256 1792 m 1,12,-1
 256 2048 l 1,13,-1
 512 2048 l 1,14,-1
 512 1792 l 1,15,-1
 256 1792 l 1,12,-1
512 1536 m 1,16,-1
 512 1792 l 1,17,-1
 640 1792 l 1,18,-1
 640 1536 l 1,19,-1
 512 1536 l 1,16,-1
EndSplineSet
EndChar

StartChar: idieresis
Encoding: 239 239 176
Width: 1024
GlyphClass: 2
Flags: W
LayerCount: 2
Fore
SplineSet
128 1792 m 1,0,-1
 128 2048 l 1,1,-1
 384 2048 l 1,2,-1
 384 1792 l 1,3,-1
 128 1792 l 1,0,-1
256 256 m 1,4,-1
 256 512 l 1,5,-1
 384 512 l 1,6,-1
 384 1280 l 1,7,-1
 256 1280 l 1,8,-1
 256 1536 l 1,9,-1
 640 1536 l 1,10,-1
 640 512 l 1,11,-1
 768 512 l 1,12,-1
 768 256 l 1,13,-1
 256 256 l 1,4,-1
640 1792 m 1,14,-1
 640 2048 l 1,15,-1
 896 2048 l 1,16,-1
 896 1792 l 1,17,-1
 640 1792 l 1,14,-1
EndSplineSet
EndChar

StartChar: eth
Encoding: 240 240 177
Width: 1024
GlyphClass: 2
Flags: W
LayerCount: 2
Fore
SplineSet
0 512 m 1,0,-1
 0 1024 l 1,1,-1
 128 1024 l 1,2,-1
 128 1280 l 1,3,-1
 384 1280 l 1,4,-1
 384 1536 l 1,5,-1
 0 1536 l 1,6,-1
 0 1792 l 1,7,-1
 128 1792 l 1,8,-1
 128 2048 l 1,9,-1
 384 2048 l 1,10,-1
 384 1792 l 1,11,-1
 768 1792 l 1,12,-1
 768 1536 l 1,13,-1
 640 1536 l 1,14,-1
 640 1280 l 1,15,-1
 768 1280 l 1,16,-1
 768 1024 l 1,17,-1
 896 1024 l 1,18,-1
 896 512 l 1,19,-1
 768 512 l 1,20,-1
 768 256 l 1,21,-1
 128 256 l 1,22,-1
 128 512 l 1,23,-1
 0 512 l 1,0,-1
256 512 m 1,24,-1
 640 512 l 1,25,-1
 640 1024 l 1,26,-1
 256 1024 l 1,27,-1
 256 512 l 1,24,-1
EndSplineSet
EndChar

StartChar: ntilde
Encoding: 241 241 178
Width: 1024
GlyphClass: 2
Flags: W
LayerCount: 2
Fore
SplineSet
0 1536 m 1,0,-1
 0 1792 l 1,1,-1
 128 1792 l 1,2,-1
 128 1536 l 1,3,-1
 0 1536 l 1,0,-1
128 256 m 1,4,-1
 128 1536 l 1,5,-1
 512 1536 l 1,6,-1
 512 1792 l 1,7,-1
 896 1792 l 1,8,-1
 896 1536 l 1,9,-1
 768 1536 l 1,10,-1
 768 1280 l 1,11,-1
 896 1280 l 1,12,-1
 896 256 l 1,13,-1
 640 256 l 1,14,-1
 640 1280 l 1,15,-1
 384 1280 l 1,16,-1
 384 256 l 1,17,-1
 128 256 l 1,4,-1
128 1792 m 1,18,-1
 128 2048 l 1,19,-1
 512 2048 l 1,20,-1
 512 1792 l 1,21,-1
 128 1792 l 1,18,-1
EndSplineSet
EndChar

StartChar: ograve
Encoding: 242 242 179
Width: 1024
GlyphClass: 2
Flags: W
LayerCount: 2
Fore
SplineSet
128 512 m 1,0,-1
 128 1280 l 1,1,-1
 256 1280 l 1,2,-1
 256 1536 l 1,3,-1
 512 1536 l 1,4,-1
 512 1792 l 1,5,-1
 640 1792 l 1,6,-1
 640 1536 l 1,7,-1
 768 1536 l 1,8,-1
 768 1280 l 1,9,-1
 896 1280 l 1,10,-1
 896 512 l 1,11,-1
 768 512 l 1,12,-1
 768 256 l 1,13,-1
 256 256 l 1,14,-1
 256 512 l 1,15,-1
 128 512 l 1,0,-1
256 1792 m 1,16,-1
 256 2048 l 1,17,-1
 512 2048 l 1,18,-1
 512 1792 l 1,19,-1
 256 1792 l 1,16,-1
384 512 m 1,20,-1
 640 512 l 1,21,-1
 640 1280 l 1,22,-1
 384 1280 l 1,23,-1
 384 512 l 1,20,-1
EndSplineSet
EndChar

StartChar: oacute
Encoding: 243 243 180
Width: 1024
GlyphClass: 2
Flags: W
LayerCount: 2
Fore
SplineSet
128 512 m 1,0,-1
 128 1280 l 1,1,-1
 256 1280 l 1,2,-1
 256 1536 l 1,3,-1
 384 1536 l 1,4,-1
 384 1792 l 1,5,-1
 512 1792 l 1,6,-1
 512 1536 l 1,7,-1
 768 1536 l 1,8,-1
 768 1280 l 1,9,-1
 896 1280 l 1,10,-1
 896 512 l 1,11,-1
 768 512 l 1,12,-1
 768 256 l 1,13,-1
 256 256 l 1,14,-1
 256 512 l 1,15,-1
 128 512 l 1,0,-1
384 512 m 1,16,-1
 640 512 l 1,17,-1
 640 1280 l 1,18,-1
 384 1280 l 1,19,-1
 384 512 l 1,16,-1
512 1792 m 1,20,-1
 512 2048 l 1,21,-1
 768 2048 l 1,22,-1
 768 1792 l 1,23,-1
 512 1792 l 1,20,-1
EndSplineSet
EndChar

StartChar: ocircumflex
Encoding: 244 244 181
Width: 1024
GlyphClass: 2
Flags: W
LayerCount: 2
Fore
SplineSet
128 512 m 1,0,-1
 128 1280 l 1,1,-1
 256 1280 l 1,2,-1
 256 1792 l 1,3,-1
 384 1792 l 1,4,-1
 384 1536 l 1,5,-1
 640 1536 l 1,6,-1
 640 1792 l 1,7,-1
 768 1792 l 1,8,-1
 768 1280 l 1,9,-1
 896 1280 l 1,10,-1
 896 512 l 1,11,-1
 768 512 l 1,12,-1
 768 256 l 1,13,-1
 256 256 l 1,14,-1
 256 512 l 1,15,-1
 128 512 l 1,0,-1
384 512 m 1,16,-1
 640 512 l 1,17,-1
 640 1280 l 1,18,-1
 384 1280 l 1,19,-1
 384 512 l 1,16,-1
384 1792 m 1,20,-1
 384 2048 l 1,21,-1
 640 2048 l 1,22,-1
 640 1792 l 1,23,-1
 384 1792 l 1,20,-1
EndSplineSet
EndChar

StartChar: otilde
Encoding: 245 245 182
Width: 1152
GlyphClass: 2
Flags: W
LayerCount: 2
Fore
SplineSet
0 1536 m 1,0,-1
 0 1792 l 1,1,-1
 128 1792 l 1,2,-1
 128 1536 l 1,3,-1
 0 1536 l 1,0,-1
128 512 m 1,4,-1
 128 1280 l 1,5,-1
 256 1280 l 1,6,-1
 256 1536 l 1,7,-1
 512 1536 l 1,8,-1
 512 1792 l 1,9,-1
 896 1792 l 1,10,-1
 896 1536 l 1,11,-1
 768 1536 l 1,12,-1
 768 1280 l 1,13,-1
 896 1280 l 1,14,-1
 896 512 l 1,15,-1
 768 512 l 1,16,-1
 768 256 l 1,17,-1
 256 256 l 1,18,-1
 256 512 l 1,19,-1
 128 512 l 1,4,-1
128 1792 m 1,20,-1
 128 2048 l 1,21,-1
 512 2048 l 1,22,-1
 512 1792 l 1,23,-1
 128 1792 l 1,20,-1
384 512 m 1,24,-1
 640 512 l 1,25,-1
 640 1280 l 1,26,-1
 384 1280 l 1,27,-1
 384 512 l 1,24,-1
896 1792 m 1,28,-1
 896 2048 l 1,29,-1
 1024 2048 l 1,30,-1
 1024 1792 l 1,31,-1
 896 1792 l 1,28,-1
EndSplineSet
EndChar

StartChar: odieresis
Encoding: 246 246 183
Width: 1024
GlyphClass: 2
Flags: W
LayerCount: 2
Fore
SplineSet
128 512 m 1,0,-1
 128 1280 l 1,1,-1
 256 1280 l 1,2,-1
 256 1536 l 1,3,-1
 768 1536 l 1,4,-1
 768 1280 l 1,5,-1
 896 1280 l 1,6,-1
 896 512 l 1,7,-1
 768 512 l 1,8,-1
 768 256 l 1,9,-1
 256 256 l 1,10,-1
 256 512 l 1,11,-1
 128 512 l 1,0,-1
128 1792 m 1,12,-1
 128 2048 l 1,13,-1
 384 2048 l 1,14,-1
 384 1792 l 1,15,-1
 128 1792 l 1,12,-1
384 512 m 1,16,-1
 640 512 l 1,17,-1
 640 1280 l 1,18,-1
 384 1280 l 1,19,-1
 384 512 l 1,16,-1
640 1792 m 1,20,-1
 640 2048 l 1,21,-1
 896 2048 l 1,22,-1
 896 1792 l 1,23,-1
 640 1792 l 1,20,-1
EndSplineSet
EndChar

StartChar: divide
Encoding: 247 247 184
Width: 1024
GlyphClass: 2
Flags: W
LayerCount: 2
Fore
SplineSet
128 1024 m 1,0,-1
 128 1280 l 1,1,-1
 896 1280 l 1,2,-1
 896 1024 l 1,3,-1
 128 1024 l 1,0,-1
384 512 m 1,4,-1
 384 768 l 1,5,-1
 640 768 l 1,6,-1
 640 512 l 1,7,-1
 384 512 l 1,4,-1
384 1536 m 1,8,-1
 384 1792 l 1,9,-1
 640 1792 l 1,10,-1
 640 1536 l 1,11,-1
 384 1536 l 1,8,-1
EndSplineSet
EndChar

StartChar: oslash
Encoding: 248 248 185
Width: 1152
GlyphClass: 2
Flags: W
LayerCount: 2
Fore
SplineSet
128 256 m 1,0,-1
 128 512 l 1,1,-1
 256 512 l 1,2,-1
 256 256 l 1,3,-1
 128 256 l 1,0,-1
128 768 m 1,4,-1
 128 1536 l 1,5,-1
 256 1536 l 1,6,-1
 256 1792 l 1,7,-1
 896 1792 l 1,8,-1
 896 1536 l 1,9,-1
 1024 1536 l 1,10,-1
 1024 768 l 1,11,-1
 896 768 l 1,12,-1
 896 512 l 1,13,-1
 256 512 l 1,14,-1
 256 768 l 1,15,-1
 128 768 l 1,4,-1
384 1024 m 1,16,-1
 512 1024 l 1,17,-1
 512 768 l 1,18,-1
 768 768 l 1,19,-1
 768 1280 l 1,20,-1
 640 1280 l 1,21,-1
 640 1536 l 1,22,-1
 384 1536 l 1,23,-1
 384 1024 l 1,16,-1
512 1024 m 1,24,-1
 512 1280 l 1,25,-1
 640 1280 l 1,26,-1
 640 1024 l 1,27,-1
 512 1024 l 1,24,-1
896 1792 m 1,28,-1
 896 2048 l 1,29,-1
 1024 2048 l 1,30,-1
 1024 1792 l 1,31,-1
 896 1792 l 1,28,-1
EndSplineSet
EndChar

StartChar: ugrave
Encoding: 249 249 186
Width: 1152
GlyphClass: 2
Flags: W
LayerCount: 2
Fore
SplineSet
128 512 m 1,0,-1
 128 1536 l 1,1,-1
 384 1536 l 1,2,-1
 384 512 l 1,3,-1
 640 512 l 1,4,-1
 640 256 l 1,5,-1
 256 256 l 1,6,-1
 256 512 l 1,7,-1
 128 512 l 1,0,-1
256 1792 m 1,8,-1
 256 2048 l 1,9,-1
 512 2048 l 1,10,-1
 512 1792 l 1,11,-1
 256 1792 l 1,8,-1
512 1536 m 1,12,-1
 512 1792 l 1,13,-1
 640 1792 l 1,14,-1
 640 1536 l 1,15,-1
 512 1536 l 1,12,-1
640 512 m 1,16,-1
 640 1536 l 1,17,-1
 896 1536 l 1,18,-1
 896 512 l 1,19,-1
 1024 512 l 1,20,-1
 1024 256 l 1,21,-1
 768 256 l 1,22,-1
 768 512 l 1,23,-1
 640 512 l 1,16,-1
EndSplineSet
EndChar

StartChar: uacute
Encoding: 250 250 187
Width: 1152
GlyphClass: 2
Flags: W
LayerCount: 2
Fore
SplineSet
128 512 m 1,0,-1
 128 1536 l 1,1,-1
 384 1536 l 1,2,-1
 384 512 l 1,3,-1
 640 512 l 1,4,-1
 640 256 l 1,5,-1
 256 256 l 1,6,-1
 256 512 l 1,7,-1
 128 512 l 1,0,-1
384 1536 m 1,8,-1
 384 1792 l 1,9,-1
 512 1792 l 1,10,-1
 512 1536 l 1,11,-1
 384 1536 l 1,8,-1
512 1792 m 1,12,-1
 512 2048 l 1,13,-1
 768 2048 l 1,14,-1
 768 1792 l 1,15,-1
 512 1792 l 1,12,-1
640 512 m 1,16,-1
 640 1536 l 1,17,-1
 896 1536 l 1,18,-1
 896 512 l 1,19,-1
 1024 512 l 1,20,-1
 1024 256 l 1,21,-1
 768 256 l 1,22,-1
 768 512 l 1,23,-1
 640 512 l 1,16,-1
EndSplineSet
EndChar

StartChar: ucircumflex
Encoding: 251 251 188
Width: 1152
GlyphClass: 2
Flags: W
LayerCount: 2
Fore
SplineSet
128 512 m 1,0,-1
 128 1536 l 1,1,-1
 256 1536 l 1,2,-1
 256 1792 l 1,3,-1
 384 1792 l 1,4,-1
 384 512 l 1,5,-1
 640 512 l 1,6,-1
 640 256 l 1,7,-1
 256 256 l 1,8,-1
 256 512 l 1,9,-1
 128 512 l 1,0,-1
384 1792 m 1,10,-1
 384 2048 l 1,11,-1
 640 2048 l 1,12,-1
 640 1792 l 1,13,-1
 384 1792 l 1,10,-1
640 512 m 1,14,-1
 640 1792 l 1,15,-1
 768 1792 l 1,16,-1
 768 1536 l 1,17,-1
 896 1536 l 1,18,-1
 896 512 l 1,19,-1
 1024 512 l 1,20,-1
 1024 256 l 1,21,-1
 768 256 l 1,22,-1
 768 512 l 1,23,-1
 640 512 l 1,14,-1
EndSplineSet
EndChar

StartChar: udieresis
Encoding: 252 252 189
Width: 1152
GlyphClass: 2
Flags: W
LayerCount: 2
Fore
SplineSet
128 512 m 1,0,-1
 128 1536 l 1,1,-1
 384 1536 l 1,2,-1
 384 512 l 1,3,-1
 640 512 l 1,4,-1
 640 256 l 1,5,-1
 256 256 l 1,6,-1
 256 512 l 1,7,-1
 128 512 l 1,0,-1
128 1792 m 1,8,-1
 128 2048 l 1,9,-1
 384 2048 l 1,10,-1
 384 1792 l 1,11,-1
 128 1792 l 1,8,-1
640 512 m 1,12,-1
 640 1536 l 1,13,-1
 896 1536 l 1,14,-1
 896 512 l 1,15,-1
 1024 512 l 1,16,-1
 1024 256 l 1,17,-1
 768 256 l 1,18,-1
 768 512 l 1,19,-1
 640 512 l 1,12,-1
640 1792 m 1,20,-1
 640 2048 l 1,21,-1
 896 2048 l 1,22,-1
 896 1792 l 1,23,-1
 640 1792 l 1,20,-1
EndSplineSet
EndChar

StartChar: yacute
Encoding: 253 253 190
Width: 1024
GlyphClass: 2
Flags: W
LayerCount: 2
Fore
SplineSet
128 0 m 1,0,-1
 128 256 l 1,1,-1
 384 256 l 1,2,-1
 384 512 l 1,3,-1
 256 512 l 1,4,-1
 256 768 l 1,5,-1
 128 768 l 1,6,-1
 128 1536 l 1,7,-1
 384 1536 l 1,8,-1
 384 768 l 1,9,-1
 640 768 l 1,10,-1
 640 1536 l 1,11,-1
 896 1536 l 1,12,-1
 896 768 l 1,13,-1
 768 768 l 1,14,-1
 768 512 l 1,15,-1
 640 512 l 1,16,-1
 640 256 l 1,17,-1
 512 256 l 1,18,-1
 512 0 l 1,19,-1
 128 0 l 1,0,-1
384 1536 m 1,20,-1
 384 1792 l 1,21,-1
 512 1792 l 1,22,-1
 512 1536 l 1,23,-1
 384 1536 l 1,20,-1
512 1792 m 1,24,-1
 512 2048 l 1,25,-1
 768 2048 l 1,26,-1
 768 1792 l 1,27,-1
 512 1792 l 1,24,-1
EndSplineSet
EndChar

StartChar: thorn
Encoding: 254 254 191
Width: 1024
GlyphClass: 2
Flags: W
LayerCount: 2
Fore
SplineSet
0 0 m 1,0,-1
 0 256 l 1,1,-1
 128 256 l 1,2,-1
 128 1792 l 1,3,-1
 0 1792 l 1,4,-1
 0 2048 l 1,5,-1
 512 2048 l 1,6,-1
 512 1792 l 1,7,-1
 384 1792 l 1,8,-1
 384 1536 l 1,9,-1
 768 1536 l 1,10,-1
 768 1280 l 1,11,-1
 896 1280 l 1,12,-1
 896 768 l 1,13,-1
 768 768 l 1,14,-1
 768 512 l 1,15,-1
 384 512 l 1,16,-1
 384 256 l 1,17,-1
 512 256 l 1,18,-1
 512 0 l 1,19,-1
 0 0 l 1,0,-1
384 768 m 1,20,-1
 640 768 l 1,21,-1
 640 1280 l 1,22,-1
 384 1280 l 1,23,-1
 384 768 l 1,20,-1
EndSplineSet
EndChar

StartChar: ydieresis
Encoding: 255 255 192
Width: 1024
GlyphClass: 2
Flags: W
LayerCount: 2
Fore
SplineSet
128 0 m 1,0,-1
 128 256 l 1,1,-1
 384 256 l 1,2,-1
 384 512 l 1,3,-1
 256 512 l 1,4,-1
 256 768 l 1,5,-1
 128 768 l 1,6,-1
 128 1536 l 1,7,-1
 384 1536 l 1,8,-1
 384 768 l 1,9,-1
 640 768 l 1,10,-1
 640 1536 l 1,11,-1
 896 1536 l 1,12,-1
 896 768 l 1,13,-1
 768 768 l 1,14,-1
 768 512 l 1,15,-1
 640 512 l 1,16,-1
 640 256 l 1,17,-1
 512 256 l 1,18,-1
 512 0 l 1,19,-1
 128 0 l 1,0,-1
128 1792 m 1,20,-1
 128 2048 l 1,21,-1
 384 2048 l 1,22,-1
 384 1792 l 1,23,-1
 128 1792 l 1,20,-1
640 1792 m 1,24,-1
 640 2048 l 1,25,-1
 896 2048 l 1,26,-1
 896 1792 l 1,27,-1
 640 1792 l 1,24,-1
EndSplineSet
EndChar

StartChar: Ydieresis
Encoding: 376 376 193
Width: 1152
GlyphClass: 2
Flags: W
LayerCount: 2
Fore
SplineSet
0 1280 m 1,0,-1
 0 1536 l 1,1,-1
 256 1536 l 1,2,-1
 256 1280 l 1,3,-1
 384 1280 l 1,4,-1
 384 1024 l 1,5,-1
 640 1024 l 1,6,-1
 640 1280 l 1,7,-1
 768 1280 l 1,8,-1
 768 1536 l 1,9,-1
 1024 1536 l 1,10,-1
 1024 1280 l 1,11,-1
 896 1280 l 1,12,-1
 896 1024 l 1,13,-1
 768 1024 l 1,14,-1
 768 768 l 1,15,-1
 640 768 l 1,16,-1
 640 512 l 1,17,-1
 768 512 l 1,18,-1
 768 256 l 1,19,-1
 256 256 l 1,20,-1
 256 512 l 1,21,-1
 384 512 l 1,22,-1
 384 768 l 1,23,-1
 256 768 l 1,24,-1
 256 1024 l 1,25,-1
 128 1024 l 1,26,-1
 128 1280 l 1,27,-1
 0 1280 l 1,0,-1
0 1792 m 1,28,-1
 0 2048 l 1,29,-1
 256 2048 l 1,30,-1
 256 1792 l 1,31,-1
 0 1792 l 1,28,-1
768 1792 m 1,32,-1
 768 2048 l 1,33,-1
 1024 2048 l 1,34,-1
 1024 1792 l 1,35,-1
 768 1792 l 1,32,-1
EndSplineSet
EndChar

StartChar: uni2010
Encoding: 8208 8208 205
Width: 1024
GlyphClass: 2
Flags: W
LayerCount: 2
Fore
SplineSet
128 1024 m 1,0,-1
 128 1280 l 1,1,-1
 896 1280 l 1,2,-1
 896 1024 l 1,3,-1
 128 1024 l 1,0,-1
EndSplineSet
EndChar

StartChar: uni2011
Encoding: 8209 8209 206
Width: 1024
GlyphClass: 2
Flags: W
LayerCount: 2
Fore
SplineSet
128 1024 m 1,0,-1
 128 1280 l 1,1,-1
 896 1280 l 1,2,-1
 896 1024 l 1,3,-1
 128 1024 l 1,0,-1
EndSplineSet
EndChar

StartChar: figuredash
Encoding: 8210 8210 207
Width: 1024
GlyphClass: 2
Flags: W
LayerCount: 2
Fore
SplineSet
128 1024 m 1,0,-1
 128 1280 l 1,1,-1
 896 1280 l 1,2,-1
 896 1024 l 1,3,-1
 128 1024 l 1,0,-1
EndSplineSet
EndChar

StartChar: endash
Encoding: 8211 8211 208
Width: 1280
GlyphClass: 2
Flags: W
LayerCount: 2
Fore
SplineSet
128 1024 m 1,0,-1
 128 1280 l 1,1,-1
 1152 1280 l 1,2,-1
 1152 1024 l 1,3,-1
 128 1024 l 1,0,-1
EndSplineSet
EndChar

StartChar: emdash
Encoding: 8212 8212 209
Width: 2304
GlyphClass: 2
Flags: W
LayerCount: 2
Fore
SplineSet
128 1024 m 1,0,-1
 128 1280 l 1,1,-1
 2176 1280 l 1,2,-1
 2176 1024 l 1,3,-1
 128 1024 l 1,0,-1
EndSplineSet
EndChar

StartChar: quoteleft
Encoding: 8216 8216 210
Width: 768
GlyphClass: 2
Flags: W
LayerCount: 2
Fore
SplineSet
256 1280 m 1,0,-1
 256 1792 l 1,1,-1
 384 1792 l 1,2,-1
 384 2048 l 1,3,-1
 640 2048 l 1,4,-1
 640 1792 l 1,5,-1
 512 1792 l 1,6,-1
 512 1280 l 1,7,-1
 256 1280 l 1,0,-1
EndSplineSet
EndChar

StartChar: quoteright
Encoding: 8217 8217 211
Width: 768
GlyphClass: 2
Flags: W
LayerCount: 2
Fore
SplineSet
256 1280 m 1,0,-1
 256 1536 l 1,1,-1
 384 1536 l 1,2,-1
 384 2048 l 1,3,-1
 640 2048 l 1,4,-1
 640 1536 l 1,5,-1
 512 1536 l 1,6,-1
 512 1280 l 1,7,-1
 256 1280 l 1,0,-1
EndSplineSet
EndChar

StartChar: quotesinglbase
Encoding: 8218 8218 212
Width: 896
GlyphClass: 2
Flags: W
LayerCount: 2
Fore
SplineSet
384 0 m 1,0,-1
 384 256 l 1,1,-1
 512 256 l 1,2,-1
 512 768 l 1,3,-1
 768 768 l 1,4,-1
 768 256 l 1,5,-1
 640 256 l 1,6,-1
 640 0 l 1,7,-1
 384 0 l 1,0,-1
EndSplineSet
EndChar

StartChar: quotedblleft
Encoding: 8220 8220 213
Width: 1024
GlyphClass: 2
Flags: W
LayerCount: 2
Fore
SplineSet
128 1280 m 1,0,-1
 128 1792 l 1,1,-1
 256 1792 l 1,2,-1
 256 2048 l 1,3,-1
 512 2048 l 1,4,-1
 512 1792 l 1,5,-1
 384 1792 l 1,6,-1
 384 1280 l 1,7,-1
 128 1280 l 1,0,-1
512 1280 m 1,8,-1
 512 1792 l 1,9,-1
 640 1792 l 1,10,-1
 640 2048 l 1,11,-1
 896 2048 l 1,12,-1
 896 1792 l 1,13,-1
 768 1792 l 1,14,-1
 768 1280 l 1,15,-1
 512 1280 l 1,8,-1
EndSplineSet
EndChar

StartChar: quotedblright
Encoding: 8221 8221 214
Width: 896
GlyphClass: 2
Flags: W
LayerCount: 2
Fore
SplineSet
0 1280 m 1,0,-1
 0 1536 l 1,1,-1
 128 1536 l 1,2,-1
 128 2048 l 1,3,-1
 384 2048 l 1,4,-1
 384 1536 l 1,5,-1
 256 1536 l 1,6,-1
 256 1280 l 1,7,-1
 0 1280 l 1,0,-1
384 1280 m 1,8,-1
 384 1536 l 1,9,-1
 512 1536 l 1,10,-1
 512 2048 l 1,11,-1
 768 2048 l 1,12,-1
 768 1536 l 1,13,-1
 640 1536 l 1,14,-1
 640 1280 l 1,15,-1
 384 1280 l 1,8,-1
EndSplineSet
EndChar

StartChar: quotedblbase
Encoding: 8222 8222 215
Width: 896
GlyphClass: 2
Flags: W
LayerCount: 2
Fore
SplineSet
0 0 m 1,0,-1
 0 256 l 1,1,-1
 128 256 l 1,2,-1
 128 768 l 1,3,-1
 384 768 l 1,4,-1
 384 256 l 1,5,-1
 256 256 l 1,6,-1
 256 0 l 1,7,-1
 0 0 l 1,0,-1
384 0 m 1,8,-1
 384 256 l 1,9,-1
 512 256 l 1,10,-1
 512 768 l 1,11,-1
 768 768 l 1,12,-1
 768 256 l 1,13,-1
 640 256 l 1,14,-1
 640 0 l 1,15,-1
 384 0 l 1,8,-1
EndSplineSet
EndChar

StartChar: bullet
Encoding: 8226 8226 216
Width: 1280
GlyphClass: 2
Flags: W
LayerCount: 2
Fore
SplineSet
384 1024 m 1,0,-1
 384 1280 l 1,1,-1
 512 1280 l 1,2,-1
 512 1408 l 1,3,-1
 768 1408 l 1,4,-1
 768 1280 l 1,5,-1
 896 1280 l 1,6,-1
 896 1024 l 1,7,-1
 768 1024 l 1,8,-1
 768 896 l 1,9,-1
 512 896 l 1,10,-1
 512 1024 l 1,11,-1
 384 1024 l 1,0,-1
EndSplineSet
EndChar

StartChar: ellipsis
Encoding: 8230 8230 217
Width: 1280
GlyphClass: 2
Flags: W
LayerCount: 2
Fore
SplineSet
128 256 m 1,0,-1
 128 640 l 1,1,-1
 384 640 l 1,2,-1
 384 256 l 1,3,-1
 128 256 l 1,0,-1
512 256 m 1,4,-1
 512 640 l 1,5,-1
 768 640 l 1,6,-1
 768 256 l 1,7,-1
 512 256 l 1,4,-1
896 256 m 1,8,-1
 896 640 l 1,9,-1
 1152 640 l 1,10,-1
 1152 256 l 1,11,-1
 896 256 l 1,8,-1
EndSplineSet
EndChar

StartChar: guilsinglleft
Encoding: 8249 8249 219
Width: 640
GlyphClass: 2
Flags: W
LayerCount: 2
Fore
SplineSet
0 1024 m 1,0,-1
 0 1280 l 1,1,-1
 128 1280 l 1,2,-1
 128 1536 l 1,3,-1
 256 1536 l 1,4,-1
 256 1792 l 1,5,-1
 512 1792 l 1,6,-1
 512 1536 l 1,7,-1
 384 1536 l 1,8,-1
 384 1280 l 1,9,-1
 256 1280 l 1,10,-1
 256 1024 l 1,11,-1
 384 1024 l 1,12,-1
 384 768 l 1,13,-1
 512 768 l 1,14,-1
 512 512 l 1,15,-1
 256 512 l 1,16,-1
 256 768 l 1,17,-1
 128 768 l 1,18,-1
 128 1024 l 1,19,-1
 0 1024 l 1,0,-1
EndSplineSet
EndChar

StartChar: guilsinglright
Encoding: 8250 8250 220
Width: 640
GlyphClass: 2
Flags: W
LayerCount: 2
Fore
SplineSet
0 512 m 1,0,-1
 0 768 l 1,1,-1
 128 768 l 1,2,-1
 128 1024 l 1,3,-1
 256 1024 l 1,4,-1
 256 1280 l 1,5,-1
 128 1280 l 1,6,-1
 128 1536 l 1,7,-1
 0 1536 l 1,8,-1
 0 1792 l 1,9,-1
 256 1792 l 1,10,-1
 256 1536 l 1,11,-1
 384 1536 l 1,12,-1
 384 1280 l 1,13,-1
 512 1280 l 1,14,-1
 512 1024 l 1,15,-1
 384 1024 l 1,16,-1
 384 768 l 1,17,-1
 256 768 l 1,18,-1
 256 512 l 1,19,-1
 0 512 l 1,0,-1
EndSplineSet
EndChar

StartChar: Euro
Encoding: 8364 8364 222
Width: 1152
GlyphClass: 2
Flags: W
LayerCount: 2
Fore
SplineSet
0 896 m 1,0,-1
 0 1024 l 1,1,-1
 128 1024 l 1,2,-1
 128 1280 l 1,3,-1
 0 1280 l 1,4,-1
 0 1408 l 1,5,-1
 128 1408 l 1,6,-1
 128 1536 l 1,7,-1
 256 1536 l 1,8,-1
 256 1792 l 1,9,-1
 384 1792 l 1,10,-1
 384 2048 l 1,11,-1
 896 2048 l 1,12,-1
 896 1792 l 1,13,-1
 1024 1792 l 1,14,-1
 1024 1536 l 1,15,-1
 768 1536 l 1,16,-1
 768 1792 l 1,17,-1
 512 1792 l 1,18,-1
 512 1536 l 1,19,-1
 384 1536 l 1,20,-1
 384 1408 l 1,21,-1
 640 1408 l 1,22,-1
 640 1280 l 1,23,-1
 384 1280 l 1,24,-1
 384 1024 l 1,25,-1
 640 1024 l 1,26,-1
 640 896 l 1,27,-1
 384 896 l 1,28,-1
 384 768 l 1,29,-1
 512 768 l 1,30,-1
 512 512 l 1,31,-1
 768 512 l 1,32,-1
 768 768 l 1,33,-1
 1024 768 l 1,34,-1
 1024 512 l 1,35,-1
 896 512 l 1,36,-1
 896 256 l 1,37,-1
 384 256 l 1,38,-1
 384 512 l 1,39,-1
 256 512 l 1,40,-1
 256 768 l 1,41,-1
 128 768 l 1,42,-1
 128 896 l 1,43,-1
 0 896 l 1,0,-1
EndSplineSet
EndChar

StartChar: trademark
Encoding: 8482 8482 223
Width: 1408
GlyphClass: 2
Flags: W
LayerCount: 2
Fore
SplineSet
128 1920 m 1,0,-1
 128 2048 l 1,1,-1
 512 2048 l 1,2,-1
 512 1920 l 1,3,-1
 384 1920 l 1,4,-1
 384 1536 l 1,5,-1
 256 1536 l 1,6,-1
 256 1920 l 1,7,-1
 128 1920 l 1,0,-1
640 1536 m 1,8,-1
 640 2048 l 1,9,-1
 768 2048 l 1,10,-1
 768 1920 l 1,11,-1
 896 1920 l 1,12,-1
 896 1792 l 1,13,-1
 768 1792 l 1,14,-1
 768 1536 l 1,15,-1
 640 1536 l 1,8,-1
896 1664 m 1,16,-1
 896 1792 l 1,17,-1
 1024 1792 l 1,18,-1
 1024 1664 l 1,19,-1
 896 1664 l 1,16,-1
1024 1792 m 1,20,-1
 1024 1920 l 1,21,-1
 1152 1920 l 1,22,-1
 1152 2048 l 1,23,-1
 1280 2048 l 1,24,-1
 1280 1536 l 1,25,-1
 1152 1536 l 1,26,-1
 1152 1792 l 1,27,-1
 1024 1792 l 1,20,-1
EndSplineSet
EndChar

StartChar: uni25FC
Encoding: 9724 9724 224
Width: 1535
GlyphClass: 2
Flags: W
LayerCount: 2
Fore
SplineSet
0 0 m 1,0,-1
 0 1535 l 1,1,-1
 1535 1535 l 1,2,-1
 1535 0 l 1,3,-1
 0 0 l 1,0,-1
EndSplineSet
EndChar
